<?xml version="1.0" encoding="utf-8"?>
<!-- Generator: Adobe Illustrator 26.3.1, SVG Export Plug-In . SVG Version: 6.00 Build 0)  -->
<svg version="1.1" id="Livello_1" xmlns="http://www.w3.org/2000/svg" xmlns:xlink="http://www.w3.org/1999/xlink" x="0px" y="0px"
	 viewBox="0 0 1200 844" style="enable-background:new 0 0 1200 844;" xml:space="preserve">
<style type="text/css">
	.st0{fill:none;stroke:#000000;stroke-width:0.75;stroke-miterlimit:10;}
	.st1{fill:none;stroke:#000000;stroke-width:0.75;stroke-linejoin:round;stroke-miterlimit:10;}
	.st2{fill:none;stroke:#000000;stroke-width:0.75;stroke-linecap:round;stroke-linejoin:round;stroke-miterlimit:10;}
	.st3{enable-background:new    ;}
	.st4{clip-path:url(#SVGID_00000039822094113564809580000011591307603822189189_);}
</style>
<g>
	<path class="st0" d="M507.78,519.96c-0.97,0.78-1.99,1.55-1.99,1.55 M518.62,513.69c0.29-0.07,0.77-0.41,0.77-0.41
		c0.28-0.14,7.12-4.35,18.68,0.56c3.3,1.4,6.47,3.29,9.48,5.56 M576.15,569.14c1.98,16.94-5.97,24.99-9.81,27.21 M520.61,557.99
		l4.77,2.15c1.36,0.71,2.29,2.13,2.29,3.77c0,2.34-1.9,4.24-4.24,4.24c-0.54,0-1.06-0.1-1.54-0.28l-4.77-2.15 M503.17,568.8
		c0.45,1.01,0.92,2.01,1.41,2.99c3.91,7.84,9.44,15.38,16.13,21.14c3.58,3.09,7.69,5.84,12.15,7.54c3.78,1.45,8.03,2.22,12.12,1.3
		c4.29-0.96,7.57-3.6,9.73-7.35c2.37-4.11,3.17-9.07,3.17-13.66c0-4.05-0.6-8.13-1.59-12.04c-1.18-4.69-2.94-9.29-5.09-13.62
		c-3.91-7.84-9.45-15.38-16.13-21.14c-3.58-3.09-7.69-5.84-12.15-7.55c-3.78-1.45-8.03-2.22-12.12-1.3
		c-1.07,0.24-2.08,0.58-3.03,1.03 M523.13,511.93c4.79-5.13,11.14-5.95,17.09-4.79 M582.76,581.1c-2.25,5.88-5.89,9.16-8.13,10.45
		 M570.13,593.32c1.31-0.3,2.54-0.74,3.74-1.35 M748.45,381.02c1.81-0.94,3.75-1.59,5.79-1.96c2.24-0.4,4.57-0.44,6.93-0.16
		c4.32,0.52,8.75,2.13,13.06,4.62c4.25,2.45,8.37,5.75,12.2,9.71c0.6,0.62,1.19,1.26,1.78,1.91 M788.21,395.15
		c3.42,3.81,6.51,8.1,9.17,12.7c3.11,5.39,5.55,11.09,7.18,16.79c1.52,5.31,2.31,10.52,2.31,15.42c0,4.98-0.82,9.61-2.53,13.62
		c-0.94,2.19-2.14,4.19-3.6,5.93c-1.52,1.8-3.29,3.31-5.3,4.47l-220.8,127.48 M571.18,592.08c0.03-0.02,0.07-0.03,0.1-0.05
		 M524.58,511.66c0.04-0.02,0.07-0.04,0.11-0.07 M519.39,513.28c1.21-0.62,2.46-1.07,3.78-1.39 M533.51,571.02
		c0-4.29-2.12-8.89-4.71-12.11c-1.35-1.67-3.06-3.26-4.97-4.3c-1.2-0.65-2.67-1.16-4.12-1.1 M537.26,568.86
		c0-4.29-2.12-8.89-4.71-12.11c-1.35-1.67-3.06-3.27-4.97-4.3c-1.83-0.98-4.28-1.66-6.31-0.48 M534.51,574.93
		c2.15-1.24,2.75-3.9,2.75-6.07 M521.26,551.97c-0.01,0.01-0.02,0.01-0.03,0.02 M566.34,596.34l-10.85,6.26 M507.78,519.96
		l10.85-6.26 M526.92,508.91l220.8-127.48 M534.51,574.93l-3.75,2.16 M519.47,553l1.79-1.03 M530.76,577.09
		c2.15-1.24,2.75-3.9,2.75-6.07 M516.1,566.54c0.4,1.01,0.88,1.99,1.41,2.9c1.36,2.35,3.24,4.64,5.47,6.24
		c1.11,0.8,2.39,1.49,3.73,1.82c1.35,0.33,2.8,0.31,4.05-0.41 M534.09,575.14c0.15-0.06,0.29-0.14,0.42-0.22 M555.49,602.61
		c-2.01,1.16-4.2,1.95-6.52,2.36c-2.24,0.4-4.57,0.44-6.93,0.16c-4.32-0.52-8.75-2.13-13.06-4.62c-4.25-2.45-8.37-5.75-12.2-9.71
		c-4.12-4.27-7.84-9.23-10.95-14.61c-1.38-2.4-2.63-4.85-3.74-7.34 M570.18,593.31c-1.14,1.2-2.42,2.22-3.83,3.04 M574.63,591.55
		c-1.41,0.82-2.93,1.42-4.54,1.8 M406.03,540.09c0.5,2.22,1.18,4.38,2.04,6.48c1.96,4.81,4.8,9.15,8.38,12.8
		c3.32,3.39,7.23,6.12,11.53,8.05c0.33,0.15,0.67,0.3,1.01,0.44c0.96,0.4,1.93,0.75,2.91,1.07c4.25,1.37,8.72,1.98,13.24,1.81
		c5.55-0.21,11.03-1.61,16.11-4.09c4.67-2.28,8.92-5.43,12.53-9.29c3.6-3.85,6.5-8.34,8.56-13.23c2.23-5.3,3.42-10.97,3.49-16.67
		c0.07-5.72-0.98-11.34-3.1-16.53c-1.96-4.81-4.8-9.15-8.38-12.8c-2.33-2.38-4.96-4.44-7.8-6.12c-1.2-0.71-2.45-1.36-3.73-1.94
		c-0.33-0.15-0.67-0.3-1.01-0.44c-5.09-2.12-10.59-3.1-16.15-2.88c-5.54,0.21-11.03,1.61-16.11,4.09c-0.59,0.29-1.17,0.59-1.74,0.9
		 M853.09,278.21l-6.33,22.48l-0.02,0.04c-0.06,0.12-0.15,0.17-0.26,0.22c-0.17,0.08-0.35,0.11-0.53,0.14
		c-0.3,0.04-0.59,0.05-0.89,0.06c-0.6,0-1.19-0.03-1.79-0.09c-1.19-0.11-2.37-0.28-3.55-0.47c-6.9-1.12-15.98-3.49-22.66-5.48
		c-3.73-1.11-7.43-2.29-11.09-3.61c-1.83-0.66-3.65-1.35-5.43-2.12c-0.73-0.32-1.45-0.64-2.16-1c-0.52-0.26-1.04-0.54-1.54-0.85
		c-0.32-0.2-0.62-0.4-0.88-0.68c-0.11-0.12-0.27-0.3-0.25-0.5l0.01-0.04l6.33-22.48 M859.49,255.51l-2.06,7.31l-0.74,2.62
		c-0.04,0.13-0.12,0.18-0.23,0.24c-0.17,0.09-0.35,0.12-0.53,0.15c-0.3,0.05-0.6,0.06-0.9,0.06c-0.6,0.01-1.2-0.03-1.8-0.08
		c-1.2-0.11-2.39-0.28-3.57-0.47c-6.91-1.12-15.99-3.49-22.68-5.48c-3.73-1.11-7.44-2.29-11.1-3.62c-1.83-0.66-3.65-1.35-5.44-2.12
		c-0.74-0.32-1.47-0.65-2.19-1.02c-0.53-0.27-1.04-0.54-1.54-0.86c-0.31-0.2-0.61-0.4-0.86-0.68c-0.11-0.12-0.25-0.31-0.2-0.5
		l0.74-2.61l2.06-7.32 M814.85,218.44l-2.06,7.32l-0.74,2.61c-0.05,0.19,0.09,0.37,0.2,0.49c0.25,0.28,0.55,0.48,0.86,0.69
		c0.5,0.32,1.01,0.6,1.54,0.86c0.72,0.36,1.45,0.7,2.19,1.02c1.79,0.77,3.6,1.46,5.43,2.13c3.66,1.32,7.37,2.51,11.1,3.61
		c6.69,1.99,15.78,4.36,22.69,5.48c1.19,0.19,2.37,0.36,3.57,0.47c0.6,0.05,1.2,0.09,1.8,0.08c0.3,0,0.6-0.02,0.9-0.06
		c0.19-0.03,0.36-0.06,0.53-0.16c0.11-0.06,0.19-0.11,0.23-0.24l0.73-2.61l2.06-7.32 M862.44,219.95
		c-6.91-1.12-15.99-3.49-22.68-5.48c-3.73-1.11-7.44-2.29-11.1-3.61c-1.83-0.66-3.65-1.35-5.43-2.13c-0.74-0.32-1.47-0.65-2.19-1.02
		c-0.53-0.27-1.04-0.54-1.54-0.86c-0.31-0.2-0.61-0.4-0.86-0.68c-0.11-0.12-0.25-0.31-0.2-0.49 M876.24,0.43
		c-16.89,59.98-33.78,119.96-50.67,179.93c-0.24,0.87-0.49,1.74-0.74,2.61c-0.05,0.19,0.09,0.37,0.2,0.49
		c0.25,0.28,0.55,0.48,0.86,0.68c0.5,0.32,1.01,0.6,1.54,0.86c0.72,0.36,1.45,0.7,2.19,1.02c1.79,0.77,3.61,1.46,5.44,2.12
		c3.66,1.32,7.37,2.51,11.1,3.62c6.69,1.98,15.78,4.36,22.69,5.48c1.19,0.19,2.37,0.36,3.57,0.47c0.6,0.05,1.2,0.09,1.8,0.08
		c0.3,0,0.6-0.02,0.9-0.06c0.19-0.03,0.36-0.06,0.53-0.15c0.11-0.06,0.19-0.11,0.23-0.24l0.74-2.61
		c18.24-64.77,36.48-129.54,54.72-194.3 M797.41,394.63c-0.07-0.01-0.15-0.02-0.23-0.04 M846.75,300.72
		c-7.63,16.41-15.27,32.82-22.9,49.22c-3.82,8.2-7.63,16.41-11.45,24.61c-1.91,4.1-3.82,8.2-5.72,12.31c-0.51,1.1-1.02,2.2-1.53,3.3
		c-0.13,0.27-0.26,0.55-0.38,0.82c-0.13,0.28-0.25,0.55-0.39,0.82c-0.28,0.55-0.62,1.02-1.07,1.45c-0.82,0.79-1.88,1.31-3.01,1.48
		c-0.98,0.15-1.92,0.05-2.88-0.11l-0.23-0.04c-2.37-0.41-5.93-1.41-8.17-2.3c-0.88-0.35-1.73-0.72-2.49-1.31
		c-0.93-0.72-1.62-1.67-1.97-2.8c-0.18-0.59-0.25-1.17-0.23-1.79c0.01-0.26,0.16-1.56,0.19-1.81c0.14-1.21,0.28-2.42,0.41-3.63
		c0.51-4.5,1.03-9.01,1.54-13.51c1.03-9.01,2.06-18.02,3.09-27.03c2.06-18.02,4.11-36.03,6.17-54.05 M795.72,286.35
		c0-0.02,0-0.03,0.01-0.04 M846.77,300.68c0,0.02-0.01,0.03-0.02,0.04 M857.43,262.83c2.9,1.14,5.26,2.17,7.2,3.17
		c0.39,0.2,0.75,0.4,1.1,0.6c0.36,0.2,0.7,0.4,1.02,0.61c0.32,0.2,0.62,0.41,0.92,0.63c0.21,0.15,0.42,0.32,0.62,0.49
		c0.16,0.14,0.32,0.28,0.48,0.44c0.42,0.41,0.85,0.9,1.23,1.58c0.28,0.5,0.53,1.08,0.67,1.75c0.18,0.87,0.17,1.81-0.09,2.73
		c-0.24,0.85-0.67,1.61-1.21,2.23c-0.51,0.58-1.07,0.99-1.62,1.3c-0.68,0.38-1.31,0.57-1.88,0.7c-0.23,0.05-0.46,0.1-0.68,0.13
		c-0.25,0.04-0.5,0.07-0.74,0.09c-0.9,0.08-1.78,0.07-2.78,0.03c-1.94-0.1-4.16-0.37-6.89-0.81c-0.54-0.09-1.1-0.18-1.68-0.29
		c-6.59-1.16-14.97-3.12-23.89-5.58c-9.67-2.67-18.93-5.64-26.01-8.35c-0.39-0.15-0.77-0.3-1.14-0.44c-2.9-1.14-5.26-2.17-7.2-3.17
		c-0.39-0.2-0.75-0.4-1.1-0.59c-0.36-0.2-0.69-0.4-1.02-0.61c-0.32-0.2-0.62-0.41-0.92-0.63c-0.21-0.16-0.42-0.32-0.62-0.49
		c-0.16-0.14-0.32-0.28-0.48-0.44c-0.42-0.41-0.85-0.9-1.23-1.58c-0.29-0.5-0.53-1.08-0.67-1.75c-0.18-0.87-0.17-1.81,0.09-2.73
		c0.24-0.85,0.67-1.6,1.21-2.23c0.51-0.58,1.06-0.99,1.62-1.3c0.68-0.38,1.31-0.57,1.87-0.7c0.23-0.05,0.46-0.1,0.69-0.13
		c0.25-0.04,0.5-0.07,0.74-0.09c0.9-0.08,1.78-0.07,2.78-0.02c1.94,0.1,4.16,0.37,6.89,0.81c0.55,0.09,1.11,0.18,1.68,0.29
		 M805.66,251.07l0.74-2.61 M863.82,240.13c2.9,1.14,5.26,2.17,7.2,3.17c0.39,0.2,0.75,0.4,1.1,0.59c0.36,0.2,0.69,0.4,1.02,0.61
		c0.32,0.2,0.62,0.41,0.92,0.63c0.21,0.16,0.42,0.32,0.62,0.49c0.16,0.14,0.32,0.28,0.48,0.44c0.42,0.41,0.85,0.9,1.23,1.58
		c0.29,0.5,0.53,1.08,0.67,1.75c0.18,0.87,0.17,1.81-0.09,2.73c-0.24,0.85-0.67,1.6-1.21,2.23c-0.51,0.58-1.07,0.99-1.62,1.3
		c-0.68,0.38-1.31,0.57-1.88,0.7c-0.23,0.05-0.46,0.1-0.69,0.13c-0.25,0.04-0.5,0.07-0.74,0.09c-0.9,0.08-1.78,0.07-2.78,0.02
		c-1.94-0.1-4.17-0.37-6.89-0.81c-0.55-0.09-1.1-0.18-1.68-0.28c-6.59-1.16-14.97-3.12-23.89-5.58c-9.67-2.66-18.94-5.64-26.01-8.35
		c-0.39-0.15-0.77-0.3-1.14-0.44c-2.9-1.14-5.26-2.17-7.2-3.17c-0.39-0.2-0.75-0.4-1.1-0.6c-0.36-0.2-0.7-0.4-1.02-0.61
		c-0.32-0.2-0.62-0.41-0.92-0.63c-0.21-0.16-0.42-0.32-0.62-0.49c-0.16-0.14-0.32-0.28-0.48-0.44c-0.42-0.41-0.85-0.9-1.23-1.58
		c-0.28-0.5-0.53-1.08-0.67-1.75c-0.18-0.87-0.17-1.81,0.09-2.73c0.24-0.85,0.67-1.6,1.21-2.23c0.51-0.58,1.07-0.99,1.62-1.3
		c0.68-0.38,1.31-0.57,1.88-0.7c0.23-0.05,0.46-0.1,0.69-0.13c0.25-0.04,0.49-0.07,0.74-0.09c0.9-0.08,1.78-0.07,2.78-0.03
		c1.94,0.1,4.16,0.37,6.89,0.81c0.55,0.09,1.11,0.18,1.68,0.28 M870.21,217.43c2.9,1.14,5.26,2.17,7.19,3.17
		c0.39,0.2,0.75,0.4,1.1,0.59c0.36,0.2,0.7,0.4,1.02,0.61c0.32,0.2,0.62,0.41,0.92,0.63c0.21,0.16,0.42,0.32,0.62,0.49
		c0.16,0.14,0.32,0.28,0.48,0.44c0.42,0.41,0.85,0.9,1.23,1.58c0.28,0.5,0.53,1.08,0.67,1.76c0.18,0.87,0.17,1.81-0.09,2.73
		c-0.24,0.85-0.67,1.6-1.21,2.23c-0.51,0.58-1.07,0.99-1.62,1.29c-0.68,0.38-1.31,0.57-1.88,0.71c-0.23,0.05-0.46,0.1-0.69,0.13
		c-0.25,0.04-0.5,0.07-0.74,0.09c-0.9,0.08-1.78,0.08-2.78,0.03c-1.94-0.1-4.16-0.37-6.89-0.81c-0.55-0.09-1.11-0.18-1.68-0.29
		c-6.59-1.16-14.97-3.12-23.89-5.58c-9.67-2.67-18.94-5.64-26.01-8.35c-0.39-0.15-0.76-0.3-1.14-0.44c-2.9-1.14-5.26-2.17-7.2-3.17
		c-0.39-0.2-0.75-0.4-1.1-0.59c-0.36-0.2-0.69-0.4-1.02-0.61c-0.32-0.2-0.62-0.41-0.92-0.63c-0.21-0.15-0.42-0.32-0.62-0.49
		c-0.16-0.13-0.32-0.28-0.48-0.44c-0.42-0.41-0.85-0.9-1.23-1.58c-0.29-0.5-0.53-1.08-0.67-1.75c-0.18-0.87-0.17-1.81,0.09-2.73
		c0.24-0.85,0.67-1.61,1.21-2.23c0.51-0.58,1.07-0.99,1.62-1.3c0.68-0.38,1.31-0.57,1.88-0.71c0.23-0.05,0.46-0.1,0.69-0.13
		c0.25-0.04,0.5-0.07,0.74-0.09c0.9-0.08,1.78-0.07,2.78-0.03c1.94,0.1,4.17,0.37,6.89,0.81c0.55,0.09,1.11,0.18,1.68,0.29
		 M818.44,205.67l0.73-2.61 M869.48,220.04c-0.04,0.13-0.12,0.18-0.23,0.24c-0.17,0.09-0.35,0.13-0.53,0.16
		c-0.3,0.05-0.6,0.06-0.9,0.06c-0.6,0.01-1.2-0.03-1.8-0.08c-1.2-0.11-2.39-0.28-3.57-0.47 M876.6,194.73
		c2.9,1.14,5.26,2.17,7.2,3.17c0.39,0.2,0.75,0.4,1.1,0.6c0.36,0.2,0.69,0.4,1.02,0.61c0.32,0.2,0.62,0.41,0.92,0.63
		c0.21,0.15,0.42,0.32,0.62,0.49c0.16,0.13,0.32,0.28,0.48,0.44c0.42,0.41,0.85,0.9,1.23,1.58c0.29,0.5,0.53,1.08,0.67,1.75
		c0.18,0.87,0.17,1.81-0.09,2.73c-0.24,0.85-0.67,1.61-1.21,2.23c-0.51,0.58-1.06,0.99-1.62,1.3c-0.68,0.38-1.31,0.57-1.88,0.71
		c-0.23,0.05-0.46,0.1-0.68,0.13c-0.25,0.04-0.5,0.07-0.74,0.09c-0.9,0.08-1.78,0.07-2.77,0.03c-1.94-0.1-4.17-0.37-6.89-0.81
		c-0.55-0.09-1.11-0.18-1.68-0.29c-6.59-1.16-14.97-3.12-23.89-5.58c-9.67-2.67-18.93-5.64-26.01-8.35
		c-0.39-0.15-0.77-0.3-1.14-0.44c-2.9-1.14-5.26-2.17-7.2-3.17c-0.39-0.2-0.75-0.4-1.1-0.59c-0.36-0.2-0.7-0.4-1.02-0.61
		c-0.32-0.2-0.62-0.41-0.92-0.63c-0.21-0.16-0.42-0.32-0.62-0.49c-0.16-0.14-0.32-0.28-0.48-0.44c-0.42-0.41-0.85-0.9-1.23-1.58
		c-0.28-0.5-0.53-1.08-0.67-1.76c-0.18-0.87-0.17-1.81,0.09-2.73c0.24-0.85,0.67-1.6,1.21-2.23c0.51-0.58,1.07-0.99,1.62-1.3
		c0.68-0.38,1.31-0.57,1.88-0.7c0.23-0.05,0.46-0.1,0.68-0.13c0.25-0.04,0.5-0.07,0.74-0.09c0.9-0.08,1.78-0.08,2.78-0.03
		c1.94,0.1,4.16,0.37,6.89,0.81c0.55,0.09,1.11,0.18,1.68,0.29 M797.18,394.59l-2.49,8.83 M863.82,240.13l-0.73,2.61 M819.18,203.06
		l2.06-7.32 M870.21,217.43l-0.74,2.61 M872.27,210.11l-2.06,7.32 M876.6,194.73c-0.24,0.87-0.49,1.74-0.74,2.61 M272.86,453.15
		c-1.83,1.95-4.81,2.47-7.04,0.82 M265.81,453.98c-2.5-1.85-5.07-3.69-7.7-5.53 M0.17,365.64c62.18-0.11,123.51,8.97,183.99,30
		c28.33,10.12,54.63,26.3,80.18,43.25 M272.35,444.63c1.32,0.98,2.07,2.52,2.14,4.13c0.07,1.62-0.53,3.21-1.63,4.39 M788.21,395.15
		l0.8-2.85 M301.79,469.03c2.84-3.04,4.24-7.27,3.67-11.42c-0.57-4.16-3.08-7.84-6.97-9.59 M287.59,472.18
		c-5.57-2.51-11.13-5.02-16.7-7.52 M287.59,472.18c4.96,2.24,10.59,0.7,14.2-3.16 M463.47,565.48c0.04,0.01,0.08,0.02,0.12,0.03
		 M484.99,518.03c-0.03-0.03-0.07-0.05-0.1-0.07 M281.79,440.49c5.57,2.51,11.13,5.01,16.7,7.52 M270.9,464.66
		c-1.73-0.78-3.45-1.56-5.18-2.33c-0.32-0.15-0.65-0.29-0.97-0.46c-0.53-0.27-1.03-0.58-1.51-0.92c-0.78-0.56-1.47-1.19-2.1-1.91
		c-2.55-2.91-3.59-6.8-3.02-10.59 M463.52,565.46c0.02,0.02,0.05,0.04,0.08,0.05 M484.99,518.02c-0.03-0.01-0.06-0.01-0.09-0.02
		 M481.86,498.91c0.98,0.32,1.95,0.67,2.91,1.07c0.34,0.14,0.68,0.29,1.01,0.44c4.3,1.94,8.2,4.67,11.53,8.06
		c11,11.22,11.53,24.87,11.47,29.33c-0.1,7.64-2.49,20.64-13.45,31.33c-19.86,19.38-42.39,9.48-43.39,9.06
		c-0.34-0.14-0.68-0.29-1.01-0.44c-1.28-0.58-2.53-1.22-3.73-1.94 M474.2,495.46c0.98,0.32,1.95,0.67,2.91,1.07
		c0.34,0.14,0.67,0.29,1.01,0.44c1.28,0.58,2.53,1.22,3.73,1.94c3.53,2.09,11.56,7.6,16.17,18.91c5.8,14.22,2.18,27.09-0.39,33.21
		c-5.58,13.28-15.53,19.81-21.09,22.52c-5.93,2.9-16.83,6.32-29.35,2.28c-0.98-0.32-1.96-0.68-2.91-1.07
		c-0.34-0.14-0.67-0.29-1.01-0.44c-1.28-0.58-2.53-1.22-3.73-1.94 M466.55,492.01c0.98,0.32,1.95,0.68,2.91,1.07
		c0.34,0.14,0.67,0.29,1.01,0.44c1.28,0.58,2.53,1.22,3.73,1.94c3.53,2.09,11.56,7.6,16.18,18.91c5.8,14.22,2.18,27.09-0.39,33.21
		c-5.59,13.29-15.55,19.81-21.09,22.52c-5.93,2.89-16.83,6.32-29.35,2.28c-0.98-0.32-1.95-0.68-2.91-1.07
		c-0.34-0.14-0.68-0.29-1.01-0.44c-1.28-0.57-2.53-1.22-3.73-1.94 M281.79,440.49c5.37-4.01,12.07-5.87,18.75-4.97
		c1.75,0.24,3.44,0.65,5.1,1.25c0.98,0.35,1.91,0.79,2.85,1.21c1.17,0.53,2.34,1.05,3.5,1.58c2.33,1.05,4.67,2.1,7,3.16
		c12.09,5.45,24.18,10.9,36.27,16.34c24.18,10.9,48.36,21.79,72.54,32.68c8.92,4.02,17.85,8.04,26.77,12.06
		c7.79,3.51,12.81,10.88,13.95,19.19c1.13,8.28-1.65,16.75-7.34,22.83c-3.55,3.79-8.12,6.55-13.21,7.73
		c-5.09,1.19-10.4,0.74-15.19-1.41c-8.92-4.02-17.85-8.04-26.77-12.06c-24.18-10.9-48.36-21.79-72.54-32.69
		c-12.09-5.45-24.18-10.9-36.27-16.34c-2.33-1.05-4.67-2.1-7-3.16c-1.17-0.52-2.33-1.05-3.5-1.58c-0.94-0.42-1.88-0.84-2.79-1.33
		c-1.56-0.85-2.98-1.84-4.33-3c-5.1-4.41-8.15-10.67-8.7-17.34 M258.11,448.45c-76.83-51.3-166.59-71.72-257.95-71.6 M264.34,438.89
		c2.74,1.9,5.4,3.81,8.01,5.73 M264.34,438.89c2.64-1.66,5.78-2.33,8.87-1.82c1.79,0.3,2.73,0.78,4.36,1.52
		c1.41,0.63,2.81,1.27,4.22,1.9 M497.35,569.05c-0.67,0.03-1.35,0.06-2.02,0.09 M517.69,565.16c-1.22,1.3-2.74,2.28-4.44,2.83
		c-0.86,0.28-1.71,0.43-2.61,0.48c-0.89,0.05-1.77,0.08-2.66,0.12c-3.54,0.15-7.09,0.31-10.63,0.46 M508.73,539.4
		c3.19,3.94,6.38,7.88,9.57,11.82c3.34,4.13,2.98,10.1-0.61,13.94"/>
</g>
</svg>
