<?xml version="1.0" encoding="utf-8"?>
<!-- Generator: Adobe Illustrator 26.3.1, SVG Export Plug-In . SVG Version: 6.00 Build 0)  -->
<svg version="1.1" id="Livello_1" xmlns="http://www.w3.org/2000/svg" xmlns:xlink="http://www.w3.org/1999/xlink" x="0px" y="0px"
	 viewBox="0 0 1200 892" style="enable-background:new 0 0 1200 892;" xml:space="preserve">
<style type="text/css">
	.st0{fill:none;stroke:#000000;stroke-width:0.75;stroke-miterlimit:10;}
	.st1{fill:none;stroke:#000000;stroke-width:0.75;stroke-linejoin:round;stroke-miterlimit:10;}
	.st2{fill:none;stroke:#000000;stroke-width:0.75;stroke-linecap:round;stroke-linejoin:round;stroke-miterlimit:10;}
	.st3{enable-background:new    ;}
	.st4{clip-path:url(#SVGID_00000040555173989929636230000006433080192759193270_);}
</style>
<g>
	<path class="st0" d="M258.54,341.14c0-10.79,1.74-22.25,5.08-33.92c3.59-12.54,8.96-25.07,15.8-36.92
		c5.83-10.1,12.62-19.52,20.12-27.89 M769.28,674.3L283.69,393.94 M916.31,516.84c4.42,2.55,8.33,5.86,11.66,9.82
		c3.22,3.83,5.86,8.22,7.92,13.03c3.76,8.8,5.57,19,5.57,29.95c0,10.79-1.74,22.25-5.08,33.92c-3.59,12.54-8.96,25.07-15.8,36.92
		c-6.84,11.85-15.01,22.77-24.08,32.15c-8.43,8.72-17.49,15.97-26.83,21.36c-9.48,5.47-19.21,9.01-28.72,10.15
		c-5.2,0.62-10.32,0.53-15.24-0.34c-5.1-0.91-9.92-2.64-14.34-5.19 M787.52,684.83c-3.17-1.83-5.92-4.02-8.43-6.67 M777.09,675.73
		c-0.08-0.05-0.17-0.1-0.25-0.14 M857.78,603.6c-3.08,5.21-5.45,11.38-6.12,17.48c-0.33,3.03-0.26,6.28,0.57,9.25
		c0.83,2.97,2.47,5.78,5.28,7.4 M901.17,508.09l15.15,8.74 M470.75,259.59l311.3,179.73 M425.52,291.07l45.68-26.37 M299.53,234.43
		c0-6.66,1.84-14.86,8.45-18.68 M377.3,193.48c-3.38-2.39-7.27-4.45-11.36-5.42c-4.08-0.97-8.47-0.88-12.28,1.32 M471.66,260.23
		l-0.91-0.64 M425.52,291.07l0.46-4.46 M471.2,264.7l0.46-4.46 M307.99,215.75l45.68-26.37 M303.66,236.82
		c0-5.71,1.58-12.74,7.24-16.01 M425.98,286.61l45.68-26.37 M907.58,532.74v97.32 M907.58,630.07l-45.68,26.37 M875.49,481.1
		c5.7,2.55,10.87,6.83,15.02,11.37c4.23,4.63,7.86,10.01,10.66,15.62 M735.46,465.28l45.68-26.37 M781.14,438.91l0.91,0.41
		 M857.78,654.06l4.12,2.38 M735.92,470.28l-0.46-5 M299.53,242.42v-7.98 M470.75,259.59l-93.45-66.11 M303.66,237.99v-1.18
		 M782.05,439.32l93.44,41.79 M331.16,224.31l94.35,66.76 M331.62,219.85l94.35,66.76 M310.9,220.8c3.26-1.88,7.02-1.97,10.52-1.13
		c3.5,0.83,6.84,2.6,9.74,4.64 M307.99,215.75c3.8-2.2,8.19-2.3,12.28-1.32c4.08,0.97,7.98,3.03,11.36,5.42 M857.78,654.06v-97.32
		 M857.78,556.74c0-8.91-3.52-18.33-8.04-25.72c-4.46-7.28-11.34-14.91-19.47-18.55 M830.27,512.48l-94.35-42.19 M861.9,656.44
		v-97.32 M861.9,559.12c0-10.39-4.1-21.38-9.38-30c-5.2-8.49-13.23-17.4-22.71-21.64 M901.17,508.09c3.69,7.4,6.42,16.22,6.42,24.65
		 M829.81,507.48l-94.35-42.19 M811.37,698.6l-23.85-13.77 M857.78,637.88l-0.27-0.16 M299.54,242.41c1.3-1.45,2.62-2.87,3.96-4.26
		c6.61-6.83,13.6-12.76,20.8-17.6 M283.69,393.94c-4.42-2.55-8.33-5.86-11.66-9.82c-3.22-3.83-5.86-8.22-7.92-13.03
		c-3.76-8.8-5.57-19-5.57-29.95"/>
	<path class="st0" d="M765.78,636.79c0,9.06,1.25,18.52,4.61,27.07c3.38,8.59,8.89,16.22,17.12,20.97 M850.03,531.5
		c-24.47,19.48-43.75,49.33-53.4,78.7c-4.88,14.86-7.94,31.56-6.74,47.39c0.6,7.92,2.31,16.01,5.75,23.27
		c3.45,7.3,8.59,13.61,15.73,17.74 M811.83,504.22c-18.85,13.82-34.56,33.74-45.44,54.08c-10.76,20.12-18.85,44.62-18.85,67.95
		 M832.04,513.34c-19.44,13.64-35.66,33.87-46.83,54.43c-11.07,20.37-19.43,45.3-19.43,69.02 M328.23,222.44
		c-13.52,9.48-25.41,22.14-34.96,35.45c-9.63,13.44-17.62,28.57-23.14,44.17c-5.41,15.31-8.95,32.59-8.04,49.04
		c0.45,8.23,2.05,16.67,5.48,24.27c3.45,7.64,8.69,14.29,16.11,18.57 M747.54,626.26c0,10.71,1.76,22.18,6.82,31.94
		c5.22,10.06,13.54,17.38,24.84,19.99 M765.78,636.79c0,9.06,1.25,18.52,4.61,27.07c3.38,8.59,8.89,16.22,17.12,20.97
		 M916.31,516.84c-4.09-2.36-8.54-3.83-13.21-4.49 M856.61,547.38c-25.01,21.41-44.64,56.09-49.4,88.82
		c-1.31,8.97-1.58,18.41-0.01,27.42c1.37,7.87,4.22,15.78,9.43,22.11c5.41,6.58,12.63,10.52,21.06,11.6
		c9.08,1.17,18.31-1.09,26.44-4.65c7.12-3.11,13.79-7.37,19.86-12.16c7.43-5.87,14.19-12.71,20.18-20.02
		c10.83-13.22,19.75-28.72,25.73-44.73c3.3-8.85,5.82-18.14,7.14-27.51c1.08-7.65,1.39-15.56,0.47-23.27
		c-1.05-8.81-3.79-17.89-9.43-25.1c-5.26-6.71-12.36-10.87-20.79-12.14 M916.31,516.84c-4.09-2.36-8.54-3.83-13.21-4.49
		 M856.61,547.38c-25.01,21.41-44.64,56.09-49.4,88.82c-1.31,8.97-1.58,18.41-0.01,27.42c1.37,7.87,4.22,15.78,9.43,22.11
		c5.41,6.58,12.63,10.52,21.06,11.6c9.08,1.17,18.31-1.09,26.44-4.65c7.12-3.11,13.79-7.37,19.86-12.16
		c7.43-5.87,14.19-12.71,20.18-20.02c10.83-13.22,19.75-28.72,25.73-44.73c3.3-8.85,5.82-18.14,7.14-27.51
		c1.08-7.65,1.39-15.56,0.47-23.27c-1.05-8.81-3.79-17.89-9.43-25.1c-5.26-6.71-12.36-10.87-20.79-12.14 M850.03,531.5
		c-24.47,19.48-43.75,49.33-53.4,78.7c-4.88,14.86-7.94,31.56-6.74,47.39c0.6,7.92,2.31,16.01,5.75,23.27
		c3.45,7.3,8.59,13.61,15.73,17.74 M811.83,504.22c-18.85,13.82-34.56,33.74-45.44,54.08c-10.76,20.12-18.85,44.62-18.85,67.95
		 M832.04,513.34c-19.44,13.64-35.66,33.87-46.83,54.43c-11.07,20.37-19.43,45.3-19.43,69.02 M328.23,222.44
		c-13.52,9.48-25.41,22.14-34.96,35.45c-9.63,13.44-17.62,28.57-23.14,44.17c-5.41,15.31-8.95,32.59-8.04,49.04
		c0.45,8.23,2.05,16.67,5.48,24.27c3.45,7.64,8.69,14.29,16.11,18.57 M747.54,626.26c0,10.71,1.76,22.18,6.82,31.94
		c5.22,10.06,13.54,17.38,24.84,19.99"/>
</g>
</svg>
