<?xml version="1.0" encoding="utf-8"?>
<!-- Generator: Adobe Illustrator 26.3.1, SVG Export Plug-In . SVG Version: 6.00 Build 0)  -->
<svg version="1.1" xmlns="http://www.w3.org/2000/svg" xmlns:xlink="http://www.w3.org/1999/xlink" x="0px" y="0px"
	 viewBox="0 0 1200 829.33" style="enable-background:new 0 0 1200 829.33;" xml:space="preserve">
<style type="text/css">
	.st0{fill:none;stroke:#000000;stroke-width:0.75;stroke-miterlimit:10;}
	.st1{fill:none;stroke:#000000;stroke-width:0.75;stroke-linejoin:round;stroke-miterlimit:10;}
	.st2{fill:none;stroke:#000000;stroke-width:0.75;stroke-linecap:round;stroke-linejoin:round;stroke-miterlimit:10;}
	.st3{enable-background:new    ;}
	.st4{clip-path:url(#SVGID_00000041277708594577705260000016024744155295337346_);}
	.st5{fill:none;stroke:#2D0000;stroke-width:0.75;stroke-miterlimit:10;}
	.st6{fill:none;}
</style>
<g id="Livello_2">
	<g>
		<path d="M537.5,259.67c-4.05,5.36-7.33,11.48-9.51,17.69c-1.72,4.93-3.58,12.35-2.68,19.73c0.45,3.68,1.53,6.81,3.22,9.29
			c1.62,2.37,3.71,4.02,6.22,4.95c-0.86-1.13-1.6-2.4-2.2-3.81c-0.73-1.71-1.27-3.62-1.6-5.67l0.22-0.04
			c-0.18-1.19-0.31-2.42-0.35-3.71c-0.22-7.38,1.86-14.44,3.64-19.06c2.31-5.98,5.61-11.82,9.57-16.88
			c3.02-3.88,7.98-9.28,14.41-12.99c3.31-1.91,6.56-3.12,9.68-3.58c1.65-0.25,3.25-0.27,4.77-0.08c-0.57-0.47-1.17-0.9-1.81-1.27
			l-8.78-5.07h0l-0.02-0.01l0.22-0.39l0.02-0.04l-0.25,0.43c-0.29-0.17-0.59-0.31-0.89-0.46c-3.76-1.78-7.79-1.39-10.59-0.69
			c-3.5,0.87-7.11,2.63-10.74,5.25c-5.96,4.3-11.58,10.72-15.83,18.09c-4.25,7.36-7,15.45-7.75,22.75
			c-0.45,4.45-0.17,8.46,0.83,11.93c0.86,2.99,2.73,7.04,6.74,9.36l4.37,2.52c-0.24-0.31-0.48-0.62-0.71-0.95
			c-1.78-2.61-2.92-5.88-3.39-9.73c-0.93-7.57,0.97-15.15,2.73-20.18c2.21-6.32,5.54-12.53,9.65-17.97
			c3.12-4.14,8.27-9.88,15.02-13.78l0.5,0.87C545.61,249.97,540.57,255.61,537.5,259.67z"/>
		<path d="M793.66,320.35l0.81-0.41c3.03-1.5,6-2.38,8.81-2.64c1.43-0.13,2.8-0.09,4.11,0.11L632.59,216.5
			c-0.03-0.02-0.05-0.03-0.08-0.04c-0.29-0.16-0.58-0.31-0.87-0.45c-0.09-0.04-0.18-0.08-0.28-0.12c-0.27-0.12-0.54-0.23-0.82-0.33
			c-0.04-0.02-0.09-0.03-0.13-0.05c-2.2-0.76-4.66-0.95-7.35-0.54c-2.99,0.45-6.13,1.61-9.33,3.46
			c-7.25,4.19-12.65,10.54-15.9,15.14c-4.27,6.03-7.51,12.78-9.4,19.54l169.11,97.64c0,0,0.01,0,0.01,0l0,0
			c1.67,0.97,3.16,2.22,4.44,3.74c1.06,1.26,1.97,2.7,2.71,4.29l-0.91,0.42c-0.7-1.51-1.57-2.88-2.57-4.07
			c-1.2-1.43-2.6-2.61-4.17-3.52l0,0c0,0,0,0,0,0l0,0l-0.01-0.01c-4-2.3-8.44-1.9-11.47-1.15c-3.5,0.87-7.11,2.63-10.74,5.25
			c-5.96,4.3-11.59,10.72-15.84,18.09c-4.25,7.37-7,15.45-7.75,22.76c-0.45,4.45-0.17,8.46,0.83,11.93
			c0.86,2.99,2.74,7.05,6.74,9.36l0,0l0,0c1.57,0.9,3.29,1.53,5.13,1.85c1.75,0.31,3.59,0.35,5.48,0.12
			c3.38-0.41,6.88-1.65,10.41-3.68c2.03-1.17,4.02-2.6,5.96-4.23c-2.32,1.84-4.59,3.27-6.94,4.37c-3.06,1.43-6,2.15-8.76,2.15
			c-0.2,0-0.4,0-0.59-0.01c-3.1-0.12-5.88-1.21-8.05-3.17c-2.02-1.82-3.5-4.33-4.38-7.44c-0.8-2.81-1.09-6.03-0.86-9.55
			c0.18-2.71,0.64-5.42,1.41-8.31c0.82-3.07,1.91-6.04,3.33-9.09c2.58-5.52,6.05-10.7,10.04-14.98c2.37-2.55,4.88-4.73,7.46-6.5
			c2.46-1.68,4.93-2.94,7.35-3.75c3.4-1.14,6.58-1.37,9.43-0.67c2.94,0.72,5.44,2.46,7.24,5.02l-0.82,0.57
			c-1.68-2.39-3.92-3.95-6.66-4.62c-2.67-0.65-5.65-0.44-8.87,0.64c-2.33,0.78-4.72,2-7.1,3.63c-2.52,1.72-4.97,3.86-7.29,6.35
			c-3.92,4.21-7.33,9.3-9.87,14.72c-1.4,2.99-2.47,5.91-3.27,8.92c-0.75,2.82-1.21,5.48-1.38,8.12c-0.22,3.41,0.05,6.51,0.82,9.21
			c0.83,2.93,2.21,5.28,4.09,6.97c2.02,1.82,4.52,2.8,7.42,2.91c2.75,0.12,5.75-0.58,8.89-2.04c2.28-1.06,4.49-2.46,6.76-4.26
			c2.45-1.95,4.71-4.18,6.91-6.81c3.43-4.1,6.35-8.86,8.54-13.82l-30.2,17.44v-29.27l0.25-0.14l36.35-20.99l-0.63-0.16
			c1.91-7.33,5.38-14.64,10.04-21.16C781.42,329.19,787.53,323.58,793.66,320.35z"/>
		<path d="M577.43,228.8c-2.52,4.37-4.47,8.91-5.78,13.51c-0.09,0.32-0.17,0.63-0.26,0.95l0.19,0.11c0.14,0.08,0.27,0.17,0.4,0.25
			c2.87-10.08,8.69-20.05,16.05-27.46c4.18-4.21,8.72-7.42,13.15-9.33c-1.7,0.61-3.42,1.41-5.15,2.41c-2.08,1.2-4.15,2.67-6.15,4.37
			l0,0c-1.24,1.05-2.46,2.2-3.64,3.43C582.92,220.47,579.95,224.43,577.43,228.8z"/>
		<path d="M523.37,260.83c4.32-7.49,10.04-14.02,16.12-18.4c2.28-1.65,4.56-2.96,6.82-3.94c-1.67,0.61-3.35,1.39-5.04,2.37
			c-3.38,1.95-6.68,4.58-9.79,7.8c-3.33,3.44-6.29,7.4-8.81,11.77c-2.52,4.37-4.47,8.92-5.78,13.52c-1.23,4.3-1.86,8.47-1.86,12.38
			c0,1.94,0.16,3.78,0.46,5.52c-0.28-2.44-0.28-5.06,0.01-7.85C516.25,276.54,519.05,268.32,523.37,260.83z"/>
		<path d="M521.79,259.92c2.56-4.44,5.58-8.46,8.96-11.96c3.18-3.29,6.55-5.97,10.01-7.97c1.48-0.85,2.96-1.57,4.43-2.15l0.7-0.66
			c-1.31-2.16-3.66-4.32-7.65-3.22c-1.28,0.35-2.63,1.01-4.02,1.97c-1.33,0.92-2.63,2.06-3.98,3.48
			c-3.86,4.07-7.59,10.05-10.51,16.85c-2.68,6.26-4.58,12.89-5.48,19.19c-0.51,3.58-0.68,6.92-0.5,9.94c0.07,1.14,0.19,2.2,0.35,3.2
			c-0.05-0.74-0.08-1.5-0.08-2.27c0-4.01,0.64-8.26,1.89-12.66C517.25,268.98,519.23,264.36,521.79,259.92z"/>
		<path d="M792.86,327.97l0.82-0.56c3.12-2.07,6.22-3.44,9.22-4.09c3.6-0.78,6.95-0.44,9.72,0.96c0.35-0.29,0.7-0.58,1.05-0.82
			c0.11-0.08,0.22-0.15,0.33-0.22c0.2-0.13,0.42-0.27,0.63-0.39c0.17-0.1,0.35-0.17,0.53-0.26c-1-1.03-2.12-1.91-3.34-2.62l0,0l0,0
			c-2.43-1.4-5.26-1.96-8.45-1.67c-2.69,0.25-5.53,1.1-8.45,2.54l-0.8,0.41c-5.98,3.15-11.97,8.66-16.87,15.5
			c-4.52,6.31-7.89,13.39-9.79,20.49l7.33-4.23l-0.6-0.23c1.86-4.8,4.48-9.55,7.57-13.73C785.06,334.58,788.9,330.75,792.86,327.97z
			"/>
		<path d="M514.72,300.81c1.1,0.39,2.26,0.57,3.48,0.57c0.02,0,0.03,0,0.05,0c-0.83-1.15-1.55-2.43-2.14-3.81
			c-0.31-0.73-0.58-1.49-0.83-2.27c-0.73-1.23-1.32-2.72-1.75-4.42c-0.41-1.64-0.67-3.41-0.79-5.42c-0.18-3.08-0.01-6.49,0.51-10.14
			c0.91-6.38,2.83-13.1,5.55-19.44c2.96-6.9,6.76-12.99,10.7-17.14c1.39-1.47,2.74-2.65,4.13-3.61c1.48-1.03,2.94-1.74,4.32-2.12
			c3.56-0.97,6.61,0.26,8.65,3.49l0.44-0.42c-0.46-1.13-1-2.18-1.63-3.09c-0.97-1.41-2.13-2.54-3.45-3.36l-0.15-0.1
			c-0.2-0.12-0.41-0.23-0.62-0.34c-0.2-0.1-0.41-0.2-0.61-0.29c-0.2-0.08-0.41-0.16-0.61-0.24l0,0l0,0
			c-1.42-0.49-3.01-0.49-4.73,0.01c-1.66,0.48-3.42,1.43-5.22,2.81c-1.25,0.96-2.47,2.07-3.73,3.41c-1.31,1.39-2.57,2.93-3.85,4.69
			c-5.03,6.96-8.28,14.67-10.11,19.91c-1.84,5.24-4.11,13.29-4.52,21.86c-0.2,4.23,0.09,7.95,0.87,11.06
			c0.56,2.23,1.36,4.09,2.37,5.52c1.02,1.43,2.25,2.4,3.64,2.89L514.72,300.81L514.72,300.81
			C514.72,300.81,514.72,300.81,514.72,300.81l-0.11,0.31L514.72,300.81z"/>
		<polygon points="632.89,215.98 632.84,216.06 632.59,216.5 632.89,215.98 		"/>
		<path d="M769.63,434.37c0.41,0.75,0.89,1.4,1.4,1.97c-0.36-0.7-0.67-1.46-0.96-2.37c-0.33-1.03-0.59-2.15-0.81-3.42
			c-0.51-3.01-0.71-6.61-0.58-10.7c0.21-6.45,1.21-13.75,2.91-21.13c1.7-7.37,4-14.38,6.65-20.27c0.87-1.94,1.73-3.67,2.64-5.28
			c0.86-1.54,1.7-2.87,2.57-4.09c1.44-2.01,2.81-3.46,4.19-4.47c-0.44,0.17-0.87,0.38-1.3,0.63c-0.2,0.11-0.4,0.24-0.59,0.36
			c-0.1,0.07-0.2,0.13-0.3,0.2c-0.79,0.55-1.55,1.21-2.34,2.03c-0.92,0.96-1.81,2.06-2.72,3.36c-1.76,2.54-3.47,5.71-5.07,9.42
			c-0.78,1.8-1.53,3.73-2.24,5.73c-0.49,1.4-0.96,2.83-1.4,4.26c-0.3,1-0.6,2-0.88,3.02c-0.43,1.58-0.83,3.16-1.19,4.71l0,0
			c-0.72,3.15-1.31,6.31-1.76,9.4c-0.62,4.35-0.94,8.45-0.94,12.18c0,3.16,0.23,5.99,0.68,8.42
			C768.08,430.79,768.74,432.76,769.63,434.37z"/>
		<path d="M1062.57,456.27c0.89-0.19,1.78-0.54,2.65-1.04c0.2-0.11,0.4-0.23,0.59-0.36l0.3-0.2c0.78-0.55,1.57-1.23,2.34-2.03
			c0.92-0.96,1.81-2.06,2.72-3.36c1.76-2.54,3.46-5.71,5.07-9.42c1.71-3.95,3.22-8.33,4.51-13.02c1.28-4.68,2.28-9.42,2.95-14.11
			c0.41-2.84,0.68-5.61,0.83-8.23l0.04-0.76c0.05-1.08,0.07-2.16,0.07-3.2c0-3.16-0.23-5.99-0.68-8.42
			c-0.46-2.45-1.11-4.42-2.01-6.03c-0.71-1.28-1.58-2.31-2.57-3.06c-0.83-0.63-1.75-1.06-2.73-1.29h0l-0.04-0.01
			c-0.78-0.17-1.64-0.03-2.55,0.4c-0.95,0.45-1.92,1.19-2.95,2.25c-1.35,1.38-2.67,3.16-4.05,5.45c-2.05,3.4-3.99,7.58-5.77,12.44
			c-3.04,8.27-5.31,17.72-6.41,26.64c0.25,0.6,0.47,1.25,0.64,1.97l20.95-30.23c0.01-0.02,0.73-1.06,1.3-1.88l1.59-2.31v29.88
			l-0.09,0.13l-20.47,29.54c0.21,0.1,0.42,0.18,0.65,0.24v0C1060.45,456.49,1061.5,456.49,1062.57,456.27z"/>
		<path d="M1048.09,422.3c1.12,0.26,2.16,0.75,3.11,1.47c1.2,0.91,2.19,2.08,2.85,3.39c0.01,0.02,0.02,0.05,0.04,0.07
			c1.17-8.53,3.36-17.44,6.24-25.3c1.81-4.91,3.78-9.15,5.85-12.61c1.42-2.35,2.79-4.19,4.19-5.63c1.12-1.15,2.18-1.95,3.24-2.45
			c0.09-0.04,0.18-0.08,0.27-0.12L841.3,327.4c-0.09-0.02-0.19-0.03-0.28-0.04c-1.28-0.17-2.74,0.43-4.34,1.81
			c-1.16,1.01-2.36,2.4-3.57,4.14c-3.76,5.42-6.57,12.64-8.26,17.73c-1.97,5.91-3.55,12.34-4.6,18.64l227.83,52.61
			C1048.09,422.3,1048.09,422.3,1048.09,422.3L1048.09,422.3L1048.09,422.3z"/>
		<path d="M1047.46,481.38c1.71-3.95,3.23-8.33,4.51-13.02c0.36-1.3,0.69-2.64,1.01-3.98l-13.8,19.92v-29.87l0.09-0.13l15.43-22.27
			c-0.24-1.83-0.98-3.33-1.54-4.43c-0.59-1.17-1.48-2.22-2.56-3.04c-0.83-0.63-1.75-1.06-2.73-1.29l-0.01,0
			c-1.1-0.25-2.35,0.11-3.7,1.06c-1.35,0.95-2.71,2.38-4.15,4.39c-0.85,1.18-1.67,2.49-2.51,3.99c-0.89,1.59-1.74,3.29-2.6,5.2
			c-2.62,5.83-4.9,12.78-6.58,20.08c-1.69,7.3-2.69,14.54-2.89,20.94c-0.13,4.02,0.06,7.56,0.56,10.5c0.21,1.23,0.46,2.3,0.77,3.29
			c0.32,1.02,0.67,1.83,1.08,2.57c0.81,1.42,1.73,2.23,2.82,2.48l-0.11,0.49l0.11-0.49c1.01,0.24,2.07,0.24,3.13,0.02
			c0.88-0.19,1.78-0.53,2.65-1.04c0.2-0.11,0.39-0.23,0.59-0.36c0.1-0.07,0.2-0.13,0.29-0.2c0.79-0.55,1.57-1.23,2.35-2.03
			c0.92-0.96,1.81-2.06,2.71-3.36l0.31,0.22v0l-0.31-0.22C1044.15,488.26,1045.86,485.09,1047.46,481.38z"/>
		<path d="M1078.34,399.68c-0.5,0.72-1.03,1.49-1.06,1.54l-37.09,53.54v26.36l38.16-55.08L1078.34,399.68z"/>
		<path d="M789.42,441.57l0.11-0.49l2.22,0.51c-0.76-1.27-1.36-2.88-1.81-4.94c-0.57-2.58-0.86-5.7-0.89-9.28
			c-0.04-5.48,0.59-11.85,1.81-18.44c1.12-6.09,2.75-12.29,4.69-17.92c1.65-4.78,4.38-11.56,7.97-16.75
			c1.26-1.81,2.51-3.27,3.74-4.33c0.42-0.36,0.83-0.67,1.24-0.94l-2.21-0.51v0l-0.25-0.06l0.03-0.13l-0.04,0.04
			c-0.25-0.27-0.5-0.51-0.77-0.71c-0.49-0.37-1.01-0.62-1.56-0.74c-1.36-0.31-2.91,0.28-4.62,1.77c-1.16,1.01-2.36,2.4-3.57,4.14
			l-0.82-0.57c1.25-1.81,2.51-3.27,3.74-4.33c0.87-0.76,1.72-1.3,2.55-1.65l-4.7-1.09l0.11-0.49h0l-0.11,0.49l-4.12-0.95l0,0
			c-0.02,0-0.03,0-0.05-0.01c-1.09-0.23-2.33,0.12-3.67,1.07c-1.35,0.95-2.71,2.38-4.15,4.39c-0.85,1.18-1.67,2.49-2.51,3.99
			c-0.89,1.59-1.74,3.29-2.6,5.2c-2.62,5.83-4.9,12.78-6.58,20.09c-1.69,7.31-2.68,14.55-2.89,20.93c-0.13,4.02,0.06,7.55,0.56,10.5
			c0.21,1.23,0.46,2.3,0.77,3.29c0.32,1.02,0.67,1.83,1.08,2.57c0.81,1.42,1.73,2.23,2.82,2.48l0,0c0,0,0,0,0,0l8.82,2.04
			c-0.24-0.27-0.46-0.57-0.68-0.91c-0.84-1.31-1.49-3.02-1.97-5.23c-0.57-2.58-0.87-5.71-0.89-9.28
			c-0.04-5.47,0.59-11.85,1.81-18.44c1.13-6.1,2.75-12.3,4.69-17.92c1.65-4.78,4.38-11.56,7.97-16.75l0.82,0.57
			c-3.53,5.09-6.21,11.78-7.85,16.5c-1.93,5.57-3.54,11.72-4.66,17.77c-1.21,6.53-1.82,12.84-1.79,18.26
			c0.02,3.5,0.31,6.56,0.86,9.07c0.46,2.09,1.06,3.7,1.84,4.91c0.75,1.17,1.6,1.86,2.58,2.08l-0.11,0.49l0.11-0.49
			c0.85,0.2,1.77,0.1,2.73-0.29l0.02,0.06l0.03-0.14l0.25,0.06L789.42,441.57L789.42,441.57z"/>
		<polygon points="835.17,326.48 835.17,326.48 835.17,326.48 		"/>
		<path d="M1027.33,457.77c1.7-7.37,4-14.38,6.65-20.27c0.87-1.93,1.73-3.66,2.64-5.28c0.86-1.54,1.7-2.87,2.57-4.09
			c1.51-2.1,2.94-3.61,4.39-4.62c0.53-0.37,1.05-0.66,1.55-0.87l-232.59-53.71l0.22-0.97l6.51,1.5c1.06-6.33,2.65-12.79,4.63-18.73
			c1.72-5.16,4.57-12.46,8.39-17.98c1.25-1.81,2.51-3.26,3.73-4.33c0.42-0.36,0.83-0.67,1.24-0.94l-2.21-0.51l0.11-0.49l-0.11,0.49
			l-0.25-0.06l0.03-0.13l-0.04,0.04c-0.25-0.27-0.5-0.51-0.77-0.71c-0.49-0.37-1.01-0.62-1.56-0.74l0,0
			c-1.36-0.31-2.91,0.28-4.62,1.77c-1.16,1-2.36,2.4-3.57,4.14l-0.82-0.57c1.25-1.81,2.51-3.27,3.74-4.33
			c0.87-0.76,1.72-1.3,2.55-1.65l-8.83-2.04l0,0c-0.01,0-0.01,0-0.02,0c-0.73-0.16-1.53-0.06-2.39,0.31
			c-0.88,0.38-1.78,1.02-2.74,1.94c-1.27,1.22-2.53,2.81-3.84,4.87c-1.94,3.04-3.81,6.84-5.56,11.28
			c-2.83,7.18-5.13,15.65-6.5,23.88l4.08,0.94l0,0h0c0.69,0.16,1.34,0.47,1.94,0.92c0.27,0.21,0.53,0.45,0.79,0.72l2.95,0.68
			c0.25-0.09,0.5-0.18,0.74-0.24c1.05-6.45,2.65-13.05,4.66-19.12c1.73-5.21,4.59-12.6,8.45-18.17l0.82,0.57
			c-3.79,5.47-6.62,12.76-8.32,17.92c-1.96,5.92-3.53,12.36-4.57,18.66c0.24-0.01,0.48-0.01,0.71,0.01
			c0.21,0.01,0.42,0.04,0.63,0.09c0.01,0,0.03,0,0.04,0.01l-0.22,0.97c0,0,0,0,0,0v0c-1.36-0.31-2.91,0.28-4.62,1.77
			c-1.16,1-2.36,2.4-3.57,4.14c-3.53,5.09-6.21,11.78-7.85,16.5c-1.93,5.58-3.54,11.72-4.66,17.77c-1.21,6.53-1.83,12.84-1.79,18.25
			c0.02,3.51,0.31,6.56,0.86,9.07c0.46,2.09,1.06,3.69,1.84,4.91c0.75,1.18,1.6,1.86,2.58,2.08l232.59,53.71
			c-0.34-0.39-0.66-0.84-0.96-1.36c-0.45-0.8-0.82-1.68-1.17-2.76c-0.33-1.03-0.59-2.15-0.81-3.42c-0.51-3.01-0.71-6.61-0.58-10.7
			C1024.63,472.45,1025.63,465.14,1027.33,457.77z"/>
		<path d="M714.41,415.27c-1.44-1.79-2.56-3.98-3.3-6.54c-1.04-3.59-1.32-7.73-0.86-12.3c0.76-7.45,3.55-15.67,7.88-23.15
			c4.32-7.48,10.04-14.02,16.12-18.4c3.73-2.69,7.46-4.51,11.08-5.41c2.58-0.64,5.04-0.77,7.31-0.42L577.82,248.12
			c-0.32-0.18-0.64-0.35-0.97-0.5c-0.08-0.04-0.16-0.07-0.23-0.1c-0.29-0.13-0.58-0.25-0.87-0.35c-0.03-0.01-0.07-0.02-0.1-0.04
			c-2.2-0.77-4.67-0.95-7.37-0.55c-2.99,0.45-6.13,1.61-9.33,3.46c-6.29,3.63-11.15,8.94-14.12,12.74
			c-3.89,4.99-7.15,10.74-9.42,16.63c-1.75,4.54-3.79,11.46-3.58,18.67c0.1,3.49,0.72,6.6,1.84,9.24c1,2.36,2.36,4.27,4.05,5.71
			c0.02,0.02,0.04,0.04,0.06,0.05c0.23,0.19,0.47,0.38,0.72,0.55c0.06,0.05,0.13,0.1,0.19,0.14c0.27,0.19,0.55,0.36,0.83,0.53
			c0.02,0.01,0.04,0.02,0.06,0.04l0,0L714.41,415.27z"/>
		<path d="M275.93,176.66c1.86-5.31,5.14-13.11,10.25-20.17c1.29-1.79,2.58-3.36,3.93-4.79c1.3-1.38,2.56-2.53,3.85-3.51
			c0.84-0.64,1.67-1.18,2.5-1.65c-0.98,0.39-1.97,0.89-2.96,1.5c-1.41,0.88-2.83,2-4.23,3.34c-2.49,2.36-4.9,5.37-7.16,8.94
			c-2.41,3.8-4.56,8.06-6.38,12.66c-1.82,4.6-3.22,9.29-4.17,13.96c-0.88,4.34-1.33,8.48-1.33,12.3c0,4.15,0.53,7.76,1.58,10.74
			c0.39,1.1,0.85,2.12,1.38,3.04c-0.36-0.88-0.67-1.83-0.93-2.86c-0.8-3.2-1.1-7.02-0.89-11.35
			C271.77,190.11,274.07,181.96,275.93,176.66z"/>
		<path d="M356.46,114.33c0.63-0.3,1.25-0.54,1.86-0.73c-0.48-0.49-0.99-0.92-1.53-1.25c-0.46-0.29-0.94-0.52-1.44-0.69l0,0
			c-1.94-0.68-4.15-0.43-6.59,0.73c-1.84,0.87-3.76,2.25-5.7,4.1c-5.25,5-9.18,11.9-11.55,16.81c-2.88,5.96-5.15,12.51-6.61,18.96
			l7.19,2.52c1.47-6.48,3.76-13.06,6.66-19.06c2.4-4.98,6.4-11.99,11.76-17.1C352.51,116.69,354.52,115.25,356.46,114.33z"/>
		<path d="M315.9,134.75c-0.1,0.24-0.19,0.49-0.28,0.73c-1.55,4.02-2.78,8.14-3.67,12.23l1.35,0.47c2.04-8.97,5.6-17.99,10.1-25.44
			c2.74-4.55,5.66-8.26,8.67-11.04c1.53-1.41,3.05-2.54,4.53-3.38c-0.97,0.39-1.95,0.88-2.93,1.49c-1.41,0.88-2.83,2-4.23,3.34
			c-2.49,2.36-4.9,5.37-7.16,8.95l-0.32,0.5l-0.32,0.52l-0.43-0.16c0,0,0,0.01,0,0.01l0.39,0.23
			C319.46,126.7,317.54,130.59,315.9,134.75z"/>
		<path d="M363.48,114.5L363.48,114.5c-1.94-0.68-4.16-0.43-6.6,0.73c-1.84,0.88-3.76,2.25-5.7,4.1c-5.25,5-9.18,11.9-11.55,16.81
			c-2.88,5.97-5.16,12.51-6.61,18.96l207.29,72.61c0,0,0,0,0,0l-0.06,0.17l0.06-0.17c0.23,0.08,0.45,0.17,0.67,0.26
			c0.23,0.1,0.46,0.2,0.68,0.32c0.23,0.12,0.46,0.24,0.68,0.37l0.13,0.08c1.47,0.92,2.73,2.14,3.78,3.67
			c0.6,0.87,1.13,1.85,1.58,2.91l0.01-0.01c1.58-9.53,5.19-19.8,9.92-28.2c2.75-4.89,5.85-9.1,8.97-12.17
			c2.06-2.04,4.12-3.57,6.12-4.57c1.29-0.64,2.52-1.04,3.71-1.22L363.48,114.5l0.19-0.55l0,0L363.48,114.5
			C363.48,114.5,363.48,114.5,363.48,114.5z"/>
		<path d="M580.32,189.99l-0.14,0.41l0,0l0,0c-2.01-0.7-4.32-0.42-6.86,0.85c-1.9,0.95-3.87,2.42-5.86,4.39
			c-3.05,3-6.09,7.13-8.8,11.94c-4.46,7.91-7.88,17.49-9.55,26.53l6.19-5.89c1.46-5.35,3.53-10.69,5.99-15.47
			c2.04-3.95,5.39-9.52,9.76-13.62c2.5-2.34,4.94-3.83,7.24-4.42c3.18-0.82,5.92,0.1,7.92,2.67c0.77,0.98,1.37,2.1,1.89,3.51
			c0.19,0.52,0.36,1.07,0.51,1.63c-0.25-1.35-0.58-2.61-0.99-3.77c-0.53-1.51-1.21-2.87-2-4.03c-0.97-1.41-2.13-2.54-3.45-3.36
			l-0.15-0.09c-0.21-0.12-0.41-0.24-0.62-0.34c-0.2-0.1-0.41-0.2-0.62-0.29c-0.2-0.09-0.41-0.17-0.61-0.24L580.32,189.99
			C580.32,189.99,580.32,189.99,580.32,189.99z"/>
		<path d="M769.54,384.14l4.29-2.48c0.2-0.48,0.39-0.98,0.59-1.45c1.63-3.77,3.37-7,5.17-9.6c0.94-1.35,1.86-2.49,2.82-3.49
			c0.83-0.86,1.65-1.57,2.49-2.16c0.11-0.07,0.21-0.15,0.32-0.22c0.21-0.14,0.42-0.27,0.64-0.39c0.97-0.55,1.96-0.94,2.94-1.15
			c0.58-0.12,1.17-0.18,1.74-0.18l8.33-12.02c1.25-4.42,2.69-8.57,4.32-12.32c0.19-0.43,0.37-0.85,0.56-1.26l-72.33,41.76v26.96
			l31.17-18l0,0L769.54,384.14l0.17,0.3l0,0L769.54,384.14z"/>
		<path d="M286.31,220.8c-0.14-0.15-0.29-0.29-0.43-0.46c-1.01-1.23-1.84-2.81-2.48-4.7c-0.89-2.63-1.38-5.82-1.46-9.48
			c-0.16-7.11,1.27-14.18,2.5-18.86c1.61-6.12,3.94-12.27,6.74-17.78c2.29-4.49,6.05-10.84,10.99-15.54l0.69,0.72
			c-4.84,4.6-8.53,10.84-10.78,15.27c-2.77,5.45-5.07,11.53-6.67,17.58c-1.21,4.62-2.63,11.59-2.47,18.59
			c0.08,3.55,0.55,6.64,1.41,9.18c0.6,1.77,1.37,3.24,2.3,4.38c0.93,1.13,2.02,1.92,3.23,2.35v0c0.95,0.33,1.98,0.47,3.06,0.39
			l0.23-0.02c0.04,0,0.08-0.01,0.12-0.01c-0.51-0.7-0.97-1.48-1.38-2.35c-0.69-1.48-1.23-3.2-1.6-5.12l0.34-0.07
			c-0.32-1.79-0.52-3.73-0.57-5.86c-0.16-7.12,1.28-14.19,2.5-18.86c1.61-6.13,3.94-12.28,6.74-17.78
			c2.28-4.49,6.04-10.83,10.99-15.54c2.01-1.92,4.02-3.35,5.96-4.28c0.63-0.3,1.25-0.54,1.86-0.73c-0.48-0.49-0.99-0.92-1.53-1.25
			c-0.46-0.28-0.94-0.52-1.44-0.69l0.33-0.94c0.57,0.2,1.12,0.46,1.64,0.79c0.63,0.39,1.22,0.88,1.76,1.45l0.67,0.23
			c0.12-0.02,0.24-0.03,0.36-0.04l0.25-0.02c1.21-0.08,2.37,0.07,3.46,0.45l0,0l0.31,0.11c1.47-6.49,3.77-13.07,6.66-19.06
			c2.4-4.98,6.4-12,11.76-17.1c2.01-1.92,4.02-3.36,5.96-4.28c1.19-0.56,2.33-0.92,3.42-1.08l-7.04-2.47
			c-0.01,0-0.03-0.01-0.04-0.01c-1.87-0.64-4.01-0.43-6.36,0.64c-1.8,0.82-3.67,2.12-5.56,3.88c-2.9,2.68-5.83,6.42-8.49,10.83
			c-4.46,7.4-8,16.35-10,25.26l1.24,0.44l-0.33,0.94c-1.94-0.68-4.16-0.43-6.6,0.72c-1.84,0.88-3.76,2.25-5.7,4.1l-0.69-0.72
			c2.01-1.92,4.02-3.35,5.96-4.28c1.19-0.56,2.33-0.92,3.43-1.08l-7.04-2.47c0,0,0,0-0.01,0c-1.42-0.5-3.01-0.49-4.73,0.01
			c-1.66,0.49-3.42,1.43-5.22,2.81c-1.25,0.95-2.47,2.07-3.73,3.41c-1.32,1.4-2.58,2.94-3.85,4.7c-5.03,6.96-8.28,14.67-10.12,19.91
			c-1.84,5.24-4.11,13.29-4.52,21.86c-0.2,4.23,0.09,7.95,0.87,11.06c0.56,2.24,1.35,4.09,2.37,5.52c1.02,1.43,2.25,2.41,3.65,2.9
			l-0.07,0.2c0,0,0,0,0,0l0.07-0.2L286.31,220.8z"/>
		<path d="M297.91,225.25l0.12-0.35l213.09,74.64c-0.3-0.32-0.59-0.67-0.86-1.05c-1.09-1.53-1.94-3.5-2.53-5.86
			c-0.8-3.21-1.1-7.03-0.89-11.35c0.41-8.69,2.71-16.84,4.57-22.15c1.86-5.31,5.14-13.11,10.25-20.17c1.3-1.8,2.59-3.37,3.93-4.79
			c1.29-1.37,2.55-2.52,3.85-3.52c1.9-1.46,3.77-2.46,5.55-2.98c0.48-0.14,0.94-0.24,1.4-0.31L323.3,152.74
			c-1.93-0.68-4.15-0.44-6.6,0.72c-1.84,0.88-3.76,2.25-5.7,4.1c-4.84,4.61-8.54,10.85-10.78,15.27
			c-2.77,5.45-5.07,11.53-6.67,17.58c-1.21,4.61-2.63,11.58-2.47,18.59c0.08,3.55,0.55,6.64,1.41,9.18c0.6,1.77,1.37,3.25,2.3,4.38
			c0.69,0.84,1.48,1.5,2.33,1.95c0.01,0,0.02,0.01,0.02,0.01c0.28,0.15,0.57,0.28,0.87,0.38c0,0,0,0,0,0L297.91,225.25
			L297.91,225.25z"/>
		<path d="M796.95,364.3l1.93,0.44c1.39-8.28,3.7-16.79,6.55-24.02c1.77-4.5,3.67-8.35,5.65-11.45c1.36-2.13,2.66-3.78,4-5.06
			c0.45-0.43,0.89-0.79,1.32-1.11c-0.07,0.03-0.14,0.05-0.2,0.08c-0.36,0.15-0.71,0.33-1.06,0.53c-0.2,0.11-0.4,0.24-0.59,0.36
			c-0.11,0.07-0.2,0.13-0.3,0.2c-0.78,0.54-1.57,1.23-2.34,2.03c-0.92,0.95-1.8,2.05-2.71,3.36c-1.76,2.54-3.46,5.71-5.07,9.42
			c-1.7,3.94-3.22,8.32-4.51,13.02C798.49,356.14,797.61,360.24,796.95,364.3z"/>
		<path d="M613.23,217.55c3.31-1.91,6.56-3.11,9.68-3.58c1.65-0.25,3.24-0.27,4.75-0.09c-2.53-2.12-5.75-3.15-9.43-3
			c-3.49,0.16-7.38,1.42-11.24,3.65c-7.25,4.19-12.65,10.54-15.9,15.14c-4.27,6.03-7.51,12.78-9.4,19.54l5.84,3.37
			c1.94-6.79,5.2-13.55,9.48-19.6C600.32,228.3,605.82,221.83,613.23,217.55z"/>
		<path d="M808.36,329.1c0.94-1.36,1.86-2.5,2.82-3.49c0.21-0.22,0.42-0.4,0.64-0.6c-2.49-1.15-5.49-1.4-8.71-0.71
			c-2.87,0.62-5.86,1.95-8.87,3.95l-0.81,0.55c-3.87,2.71-7.62,6.46-10.86,10.84c-2.95,3.99-5.45,8.5-7.27,13.07l29.2-16.86
			C805.74,333.28,807.03,331.01,808.36,329.1z"/>
		<path d="M551.55,236.18c1.99-0.24,3.93-0.19,5.77,0.13c1.96,0.35,3.79,1.01,5.45,1.97l-0.25,0.43v0.01l0.25-0.43l0.27,0.16
			l11.68-6.74c0.57-1.15,1.18-2.28,1.83-3.41c0.85-1.48,1.78-2.9,2.73-4.28v-16.29l-30.41,28.94
			C549.78,236.45,550.67,236.29,551.55,236.18z"/>
		<path d="M617.35,207.01l-0.3,0.51c0,0,0,0,0,0c-5.5-3.17-11.92-1.29-15.25,0.12c-4.38,1.85-8.9,5.03-13.05,9.22
			c-7.32,7.37-13.1,17.32-15.89,27.35c0.64,0.47,1.25,0.99,1.82,1.58c0.84,0.21,1.66,0.5,2.43,0.86c0.05,0.02,0.1,0.04,0.14,0.06
			c0.36,0.17,0.72,0.35,1.06,0.55l2.48,1.43c1.93-6.78,5.2-13.55,9.48-19.6c3.31-4.68,8.81-11.15,16.22-15.43
			c4.06-2.34,7.99-3.61,11.69-3.78c1.11-0.05,2.19,0,3.23,0.16l-0.17-0.1l0,0l-0.93-0.54l0.07-0.12l-0.07,0.11l-3.26-1.88
			L617.35,207.01C617.35,207.01,617.35,207.01,617.35,207.01z"/>
		<path d="M587.16,201.25c-0.49-1.32-1.04-2.35-1.74-3.24c-1.74-2.23-4.12-3.03-6.88-2.32c-2.14,0.55-4.44,1.96-6.81,4.19
			c-4.27,4-7.55,9.46-9.55,13.34c-2.18,4.23-4.05,8.92-5.46,13.65l22-20.93l0.35,0.36l0.17-0.47l0.74,0.26l-0.17,0.47l0,0h0.5v16.03
			c1.63-2.23,3.36-4.33,5.23-6.26c0.96-1,1.96-1.93,2.96-2.82c0.17-2.94,0.08-5.64-0.28-8.02
			C587.97,203.9,587.62,202.51,587.16,201.25z"/>
		<path d="M564.67,239.37l5.83,3.37c0.06-0.23,0.13-0.47,0.19-0.7c0.75-2.62,1.71-5.22,2.85-7.78L564.67,239.37z"/>
		<polygon points="621.51,209.48 621.51,209.48 621.5,209.51 		"/>
		<path d="M792.31,363.23c0.02,0,0.04,0,0.05,0.01l0,0c0,0,0,0,0,0l0,0l3.61,0.83c0.55-3.4,1.27-6.81,2.13-10.19l-6.4,9.24
			C791.91,363.16,792.11,363.19,792.31,363.23z"/>
	</g>
</g>
<g id="Livello_1">
	<g>
		<path class="st0" d="M855.95,202.9l-0.21-0.12 M852.71,201.02l-0.21-0.12 M849.47,199.16l-0.21-0.12 M846.23,197.28L674.16,97.94
			 M849.26,199.28v-0.24 M891.39,223.6v-0.24 M898.29,240.19l-1.62-0.93l-1.54-0.89l-1.7-0.98l-1.54-0.89l-1.7-0.98l-1.54-0.89
			l-1.7-0.98l-1.54-0.89l-1.7-0.98l-1.54-0.89l-1.7-0.98l-1.54-0.89l-1.7-0.98l-1.54-0.89l-1.7-0.98l-1.54-0.89l-1.7-0.98
			l-1.54-0.89l-1.7-0.98l-1.54-0.89l-1.7-0.98l-1.54-0.89l-1.7-0.98l-1.54-0.89l-1.7-0.98l-1.54-0.89l-1.7-0.98l-1.54-0.89
			l-1.7-0.98l-1.54-0.89l-1.7-0.98l-1.54-0.89l-1.7-0.98l-1.54-0.89l-1.7-0.98l-1.54-0.89l-1.7-0.98l-1.54-0.89l-1.7-0.98
			 M845.08,207.4l1.54,0.89 M846.62,208.28l1.7,0.98 M848.32,209.27l1.54,0.89 M851.57,211.14l1.54,0.89 M854.81,213.01l1.54,0.89
			 M858.05,214.88l1.54,0.89 M861.29,216.75l1.54,0.89 M864.53,218.62l1.54,0.89 M867.77,220.49l1.54,0.89 M871.01,222.36l1.54,0.89
			 M874.25,224.23l1.54,0.89 M877.49,226.1l1.54,0.89 M880.73,227.97l1.54,0.89 M883.97,229.85l1.54,0.89 M887.21,231.72l1.54,0.89
			 M890.45,233.59l1.54,0.89 M893.69,235.46l1.54,0.89 M896.93,237.33l1.54,0.89 M898.29,254.01v-13.82 M900.09,239.15l-1.8,1.04
			 M852.5,201.15v-0.24 M858.98,204.89v-0.24 M862.22,206.76v-0.24 M865.46,208.63v-0.24 M868.7,210.5v-0.24 M871.94,212.37v-0.24
			 M875.18,214.24V214 M878.42,216.11v-0.24 M881.67,217.98v-0.24 M884.91,219.86v-0.24 M888.15,221.73v-0.24 M894.63,225.47v-0.24
			 M897.87,227.34v-0.24 M901.11,229.21v-0.24 M904.35,231.08v-0.24 M907.59,232.95v-0.25 M838.6,203.65l1.54,0.89 M840.14,204.54
			l1.7,0.98 M841.84,205.52l1.54,0.89 M843.38,206.41l1.7,0.98 M849.86,210.15l1.7,0.98 M853.1,212.03l1.7,0.98 M856.34,213.9
			l1.7,0.98 M859.58,215.77l1.7,0.98 M862.82,217.64l1.7,0.98 M866.06,219.51l1.7,0.98 M869.3,221.38l1.7,0.98 M872.54,223.25
			l1.7,0.98 M875.78,225.12l1.7,0.98 M879.03,226.99l1.7,0.98 M882.27,228.86l1.7,0.98 M885.51,230.73l1.7,0.98 M888.75,232.6
			l1.7,0.98 M891.99,234.47l1.7,0.98 M895.23,236.34l1.7,0.98 M898.47,238.22l1.62,0.93 M847.56,196.52l-1.33,0.76 M849.26,197.5
			l-1.7-0.98 M850.8,198.39l-1.32,0.76 M852.5,199.37l-1.7-0.98 M854.04,200.26l-1.33,0.77 M855.74,201.24l-1.7-0.98 M857.28,202.13
			l-1.33,0.77 M858.98,203.11l-1.7-0.98 M860.52,204l-1.33,0.77 M862.22,204.98l-1.7-0.98 M863.76,205.87l-1.32,0.76 M865.46,206.85
			l-1.7-0.98 M867,207.74l-1.33,0.77 M868.7,208.73l-1.7-0.98 M870.24,209.61l-1.32,0.77 M871.94,210.6l-1.7-0.98 M873.48,211.48
			l-1.33,0.77 M875.18,212.47l-1.7-0.98 M876.72,213.35l-1.32,0.77 M878.42,214.34l-1.7-0.98 M879.96,215.23l-1.33,0.77
			 M881.67,216.21l-1.7-0.98 M883.2,217.1l-1.32,0.76 M884.91,218.08l-1.7-0.98 M886.44,218.97l-1.33,0.77 M888.15,219.95l-1.7-0.98
			 M889.68,220.84l-1.33,0.77 M891.39,221.82l-1.7-0.98 M892.92,222.71l-1.33,0.77 M894.63,223.69l-1.7-0.98 M896.16,224.58
			l-1.33,0.77 M897.87,225.56l-1.7-0.98 M899.4,226.45l-1.33,0.77 M901.11,227.43l-1.7-0.98 M902.64,228.32l-1.33,0.76
			 M904.35,229.3l-1.7-0.98 M905.88,230.19l-1.33,0.77 M907.59,231.18l-1.7-0.98 M909.13,232.06l-1.33,0.77 M910.74,233l-1.62-0.93
			 M910.74,246.82v-12.29 M836.9,202.67l1.7,0.98 M836.9,202.67l-1.8,1.04 M835.1,203.71v13.82 M909.51,262.71L649.14,112.38
			 M934.53,248.26l-25.02,14.45 M794.59,200.23c-0.48,0.24-0.96,0.48-1.44,0.71c-3.38,1.67-6.89,3.33-10.49,4.92
			c-3.24,1.44-6.56,2.83-9.88,4.11c-3.14,1.22-6.28,2.34-9.37,3.34c-3.05,0.99-6.04,1.87-8.96,2.63c-2.95,0.77-5.82,1.42-8.63,1.95
			c-2.86,0.55-5.65,0.99-8.4,1.33c-2.79,0.35-5.54,0.6-8.27,0.76c-2.74,0.16-5.47,0.24-8.23,0.23c-1.37,0-2.74-0.02-4.12-0.06
			c-1.37-0.04-2.76-0.1-4.15-0.18c-2.75-0.15-5.54-0.38-8.36-0.66c-2.77-0.27-5.57-0.61-8.41-0.98c-2.76-0.37-5.56-0.78-8.39-1.23
			c-2.74-0.43-5.51-0.89-8.32-1.38c-2.7-0.46-5.43-0.95-8.2-1.44c-2.64-0.47-5.31-0.95-8.02-1.42c-2.56-0.45-5.16-0.89-7.78-1.32
			c-2.47-0.4-4.97-0.78-7.49-1.12c-2.36-0.32-4.75-0.61-7.15-0.84c-2.24-0.22-4.5-0.39-6.75-0.47c-2.12-0.08-4.22-0.1-6.29-0.03
			c-1.97,0.06-3.91,0.2-5.78,0.39c-0.07,0.01-0.14,0.02-0.21,0.02 M649.14,115.63c-0.03,0-0.07,0.01-0.11,0.01
			c-9.94,1.07-19.85,1.91-29.74,2.48c-8.68,0.5-17.34,0.77-25.97,0.78c-7.59,0.01-15.15-0.19-22.68-0.64
			c-6.65-0.4-13.28-0.99-19.88-1.8c-5.88-0.72-11.73-1.62-17.56-2.68c-5.25-0.96-10.49-2.07-15.73-3.3
			c-4.78-1.12-9.57-2.35-14.38-3.64c-4.47-1.2-8.97-2.46-13.51-3.71c-4.32-1.19-8.69-2.39-13.13-3.51c-2.17-0.55-4.37-1.09-6.58-1.6
			c-2.2-0.51-4.42-0.99-6.66-1.45c-4.47-0.91-9.01-1.71-13.59-2.41c-4.56-0.7-9.17-1.29-13.81-1.78c-4.59-0.49-9.2-0.88-13.84-1.17
			c-4.55-0.29-9.13-0.48-13.7-0.57c-4.46-0.09-8.92-0.09-13.38,0.01c-4.31,0.1-8.61,0.28-12.89,0.57c-4.1,0.28-8.18,0.64-12.22,1.12
			c-3.83,0.45-7.63,0.99-11.38,1.65c-3.51,0.62-6.98,1.33-10.35,2.16c-3.14,0.77-6.21,1.65-9.15,2.66
			c-2.73,0.93-5.34,1.97-7.79,3.13c-2.28,1.07-4.41,2.24-6.36,3.47c-1.82,1.15-3.47,2.37-4.93,3.62c-1.36,1.17-2.54,2.37-3.5,3.57
			c-0.9,1.12-1.6,2.24-2.06,3.31c-0.44,1.01-0.65,1.98-0.63,2.84c0.03,0.73,0.23,1.38,0.61,1.92c0.05,0.07,0.11,0.15,0.17,0.22
			c0.47,0.56,1.17,1,2.1,1.28c0.96,0.29,2.17,0.4,3.56,0.33c0.47-0.03,0.95-0.07,1.46-0.14 M793.89,199.82l0.7,0.41 M794.59,200.23
			l71.44,41.25 M649.14,114.98v0.65 M649.14,115.63v0.62 M934.19,248.07l-23.45-13.54 M934.53,248.74v-0.48 M313.59,120.81
			c-0.45-0.65-0.67-1.41-0.69-2.22c-0.02-0.93,0.22-1.94,0.66-2.97c0.48-1.11,1.19-2.25,2.09-3.39c0.97-1.22,2.16-2.44,3.53-3.63
			c1.47-1.27,3.14-2.5,4.96-3.67c1.96-1.25,4.11-2.43,6.4-3.52c2.46-1.17,5.09-2.23,7.84-3.17c2.96-1.02,6.04-1.91,9.2-2.69
			c3.39-0.84,6.87-1.57,10.4-2.19c3.76-0.66,7.57-1.21,11.42-1.67c4.06-0.48,8.15-0.85,12.26-1.14c4.3-0.29,8.61-0.49,12.93-0.58
			c4.47-0.1,8.95-0.11,13.43-0.02c4.59,0.09,9.18,0.28,13.75,0.56c4.65,0.29,9.28,0.68,13.89,1.16c4.66,0.49,9.28,1.08,13.86,1.78
			c4.6,0.7,9.16,1.5,13.65,2.41c2.25,0.45,4.48,0.94,6.69,1.45c2.22,0.51,4.42,1.05,6.6,1.6c4.45,1.13,8.83,2.32,13.17,3.52
			c4.55,1.26,9.05,2.51,13.52,3.71c4.81,1.29,9.58,2.52,14.36,3.64c5.23,1.23,10.45,2.34,15.69,3.3c5.82,1.07,11.65,1.97,17.51,2.69
			c6.58,0.81,13.19,1.41,19.82,1.81c7.51,0.45,15.05,0.66,22.62,0.66c8.61,0,17.25-0.28,25.91-0.77c9.87-0.56,19.77-1.4,29.69-2.46
			c0.13-0.01,0.25-0.03,0.38-0.04 M809.12,261.9c0.32-0.16,0.64-0.31,0.98-0.44c0.95-0.38,1.97-0.67,3.09-0.94
			c0.51-0.12,1.05-0.25,1.61-0.38c0.57-0.13,1.16-0.27,1.8-0.44c0.56-0.14,1.16-0.3,1.79-0.47c0.63-0.17,1.3-0.36,2.01-0.56
			c1.25-0.36,2.62-0.77,4.16-1.25c0.68-0.21,1.39-0.44,2.13-0.68c0.75-0.24,1.53-0.5,2.36-0.78c0.73-0.25,1.49-0.51,2.28-0.78
			c0.8-0.28,1.63-0.57,2.5-0.88c1.55-0.55,3.23-1.16,5.04-1.84c1.65-0.61,3.41-1.28,5.26-2c1.75-0.68,3.57-1.39,5.45-2.14
			c1.84-0.73,3.71-1.5,5.6-2.27c1.91-0.79,3.82-1.58,5.71-2.38c1.74-0.74,3.46-1.47,5.15-2.2 M866.03,241.48l0.82,0.47
			 M866.85,241.95c-1.85,0.8-3.75,1.61-5.67,2.42c-1.89,0.8-3.8,1.6-5.72,2.38c-1.88,0.77-3.76,1.54-5.6,2.27
			c-1.88,0.75-3.71,1.47-5.45,2.14c-1.85,0.72-3.62,1.38-5.27,2c-1.81,0.68-3.49,1.29-5.05,1.84c-0.87,0.31-1.71,0.6-2.5,0.88
			c-0.8,0.28-1.56,0.54-2.29,0.78c-0.83,0.28-1.61,0.54-2.36,0.78c-0.75,0.24-1.46,0.47-2.14,0.69c-1.55,0.49-2.93,0.9-4.18,1.26
			c-0.71,0.2-1.38,0.39-2.02,0.56c-0.63,0.17-1.23,0.33-1.8,0.47c-0.64,0.16-1.24,0.31-1.81,0.44c-0.57,0.13-1.1,0.25-1.61,0.38
			c-1.11,0.27-2.09,0.55-2.99,0.91c-0.31,0.13-0.62,0.26-0.92,0.41c-0.6,0.3-1.17,0.66-1.71,1.09c-0.84,0.67-1.63,1.52-2.38,2.64
			c-0.77,1.14-1.5,2.56-2.22,4.35c-0.72,1.81-1.41,3.99-2.08,6.61c-0.69,2.67-1.35,5.8-1.99,9.39c-0.68,3.76-1.33,8.03-1.95,12.69
			c-0.46,3.41-0.9,7.02-1.33,10.78 M866.85,241.95l42.66,24.63 M649.14,116.25l144.75,83.57 M649.14,112.38v2.6 M674.16,97.94
			l-25.02,14.45 M934.53,248.26l-0.34-0.2 M934.53,252.13l-25.02,14.45 M909.51,266.58v-3.87 M835.1,217.53l63.18,36.48l12.45-7.19"
			/>
		<path class="st0" d="M562.86,427.31l165.35,95.46 M577.61,417.39l-7.38,4.26l-7.38,4.26 M562.86,427.31v-1.4 M742.96,512.86
			l-165.35-95.46 M742.96,514.25v-1.4 M735.59,518.51l7.38-4.26 M358.89,308.15l165.35,95.46 M531.62,399.36l7.38-4.26
			 M524.24,403.62l7.38-4.26 M524.24,405.01l7.38-4.26 M524.24,405.01v-1.4 M358.89,309.55l165.35,95.47 M373.65,299.64l-7.38,4.26
			l-7.38,4.26 M358.89,309.55v-1.39 M539,395.1l-165.35-95.47 M539,396.5v-1.4 M531.62,400.75l7.38-4.26 M770.12,546.97v-1.4
			 M934.53,252.14v-3.39 M934.19,248.07c0.9-0.45,1.81-0.89,2.73-1.32c1.35-0.63,2.73-1.23,4.16-1.79c1.25-0.49,2.53-0.96,3.86-1.38
			c1.16-0.37,2.36-0.7,3.59-0.98c1.09-0.25,2.22-0.46,3.36-0.61c1.04-0.14,2.1-0.23,3.17-0.26c1.01-0.03,2.02-0.01,3.02,0.06
			c0.98,0.07,1.95,0.2,2.9,0.37c0.97,0.17,1.91,0.39,2.82,0.65c0.96,0.27,1.88,0.57,2.77,0.9c0.95,0.35,1.87,0.73,2.77,1.13
			c1.99,0.88,3.84,1.85,5.66,2.84c2.07,1.13,4.08,2.29,6.09,3.45c4.72,2.73,9.44,5.46,14.16,8.19c5.38,3.11,10.74,6.23,16.09,9.36
			c5.66,3.31,11.3,6.63,16.91,9.96c5.57,3.31,11.12,6.63,16.62,9.98c2.64,1.61,5.27,3.22,7.88,4.87c2.53,1.61,5.04,3.25,7.49,4.95
			c2.41,1.68,4.78,3.42,7.06,5.26c2.28,1.83,4.49,3.75,6.59,5.78c2.13,2.06,4.16,4.23,6.07,6.52c1.97,2.37,3.81,4.87,5.5,7.48
			c1.79,2.76,3.42,5.65,4.89,8.65c1.58,3.23,2.99,6.59,4.23,10.04c1.34,3.73,2.5,7.56,3.49,11.45c1.01,4,1.85,8.06,2.48,12.14
			c0.61,3.96,1.02,7.94,1.16,11.91c0.07,1.87,0.07,3.73-0.01,5.59c-0.07,1.75-0.22,3.48-0.45,5.19c-0.07,0.48-0.14,0.95-0.22,1.42
			c-0.19,1.1-0.43,2.19-0.72,3.26c-0.38,1.4-0.86,2.77-1.48,4.06c-0.56,1.19-1.24,2.31-2.06,3.32c-0.77,0.94-1.66,1.78-2.7,2.46
			c-1,0.65-2.14,1.15-3.37,1.45c-1.27,0.31-2.65,0.4-4.04,0.31c-0.55-0.04-1.11-0.1-1.67-0.19c-1.02-0.17-2.04-0.42-3.06-0.73
			c-1.6-0.5-3.18-1.15-4.73-1.9c-0.03-0.01-0.02-0.07-0.02-0.1c0-0.03,0.01-0.07,0.02-0.1c0.02-0.07,0.04-0.13,0.07-0.19
			c0.03-0.06,0.06-0.12,0.1-0.18c0.02-0.03,0.04-0.05,0.06-0.08c0.02-0.02,0.06-0.06,0.09-0.04c1.51,0.73,3.06,1.37,4.62,1.86
			c0.95,0.3,1.92,0.53,2.87,0.7c0.56,0.1,1.12,0.16,1.68,0.2c1.32,0.09,2.61,0,3.81-0.29c1.15-0.28,2.2-0.74,3.13-1.35
			c0.97-0.63,1.81-1.42,2.53-2.3c0.78-0.96,1.43-2.03,1.97-3.17c0.59-1.25,1.06-2.57,1.43-3.93c0.29-1.04,0.52-2.11,0.71-3.19
			c0.08-0.46,0.15-0.93,0.22-1.4c0.23-1.68,0.38-3.39,0.45-5.11c0.08-1.83,0.07-3.68,0.01-5.53c-0.14-3.93-0.55-7.89-1.16-11.82
			c-0.62-4.06-1.46-8.09-2.47-12.07c-0.98-3.87-2.13-7.68-3.47-11.38c-1.24-3.43-2.63-6.76-4.2-9.96c-1.46-2.98-3.07-5.84-4.85-8.58
			c-1.68-2.59-3.5-5.06-5.45-7.41c-1.89-2.27-3.9-4.42-6.01-6.46c-2.09-2.01-4.28-3.92-6.54-5.74c-2.27-1.82-4.62-3.56-7.02-5.23
			c-2.44-1.7-4.94-3.34-7.47-4.94c-2.6-1.65-5.23-3.26-7.86-4.86c-5.5-3.35-11.04-6.67-16.61-9.98c-5.61-3.33-11.25-6.65-16.9-9.96
			c-5.35-3.13-10.71-6.25-16.09-9.36c-4.71-2.73-9.44-5.46-14.16-8.19c-2.01-1.16-4.02-2.32-6.08-3.45
			c-1.8-0.98-3.65-1.94-5.61-2.81c-0.88-0.39-1.78-0.76-2.72-1.11c-0.88-0.32-1.78-0.62-2.72-0.88c-0.89-0.25-1.81-0.46-2.75-0.63
			c-0.92-0.17-1.87-0.29-2.82-0.36c-0.97-0.07-1.96-0.09-2.94-0.06c-1.04,0.03-2.08,0.12-3.1,0.25c-1.12,0.15-2.22,0.35-3.3,0.6
			c-1.21,0.28-2.39,0.6-3.53,0.97c-1.31,0.41-2.58,0.87-3.81,1.36c-1.41,0.56-2.78,1.16-4.12,1.77c-0.92,0.43-1.82,0.87-2.71,1.31
			 M849.26,197.5l-10.66,6.15 M849.47,199.15l-9.33,5.39 M852.5,199.37l-10.66,6.15 M852.71,201.03l-9.33,5.39 M855.74,201.24
			l-10.66,6.15 M855.95,202.9l-9.33,5.39 M858.98,203.11l-10.66,6.15 M859.2,204.77l-9.33,5.39 M862.22,204.98l-10.66,6.15
			 M862.44,206.64l-9.33,5.39 M865.46,206.85l-10.66,6.15 M865.68,208.51l-9.33,5.39 M868.7,208.73l-10.66,6.15 M868.92,210.38
			l-9.33,5.39 M871.94,210.6l-10.66,6.15 M872.15,212.25l-9.33,5.39 M875.18,212.47l-10.66,6.15 M875.4,214.12l-9.33,5.39
			 M878.42,214.34l-10.66,6.15 M878.64,215.99l-9.33,5.39 M881.66,216.21l-10.66,6.15 M881.88,217.86l-9.33,5.39 M884.9,218.08
			l-10.66,6.15 M885.12,219.73l-9.33,5.39 M888.15,219.95l-10.66,6.15 M888.36,221.6l-9.33,5.39 M891.39,221.82l-10.66,6.15
			 M891.6,223.47l-9.33,5.39 M894.63,223.69l-10.66,6.15 M894.84,225.34l-9.33,5.39 M897.87,225.56l-10.66,6.15 M898.08,227.22
			l-9.33,5.39 M901.11,227.43l-10.66,6.15 M901.32,229.09l-9.33,5.39 M904.35,229.3l-10.66,6.15 M904.56,230.96l-9.33,5.39
			 M907.59,231.17l-10.66,6.15 M907.8,232.83l-9.33,5.39 M910.74,233l-10.66,6.15 M790.99,362.52c0-0.01-0.06-0.02-0.07-0.02
			c-0.03,0-0.05-0.01-0.07-0.01c-0.05-0.01-0.1-0.01-0.15-0.02c-0.1-0.01-0.2-0.02-0.3-0.02 M790.23,362.46
			c0,0.02,0.08,0.03,0.09,0.03c0.03,0.01,0.06,0.01,0.1,0.01c0.06,0.01,0.13,0.01,0.19,0.02c0.06,0,0.13,0.01,0.19,0.01
			c0.03,0,0.06,0,0.1,0c0.02,0,0.04,0,0.07,0c0,0,0.02,0,0.03-0.01 M795.79,310.14c-0.21,1.88-0.42,3.79-0.63,5.74
			c-0.71,6.68-1.39,13.71-2.03,20.88c-0.76,8.44-1.47,17.09-2.15,25.76 M790.23,362.46c0.68-8.68,1.39-17.33,2.15-25.77
			c0.64-7.17,1.32-14.21,2.03-20.89c0.22-2.06,0.44-4.09,0.67-6.07 M790.39,362.45c-0.03,0-0.05,0-0.08,0c-0.01,0-0.03,0-0.04,0
			c-0.01,0-0.04,0-0.04,0.01 M849.26,199.03v-1.53 M855.74,203.02v-0.24 M855.74,202.77v-1.53 M891.39,223.35v-1.53 M852.5,200.9
			v-1.53 M858.98,204.64v-1.53 M862.22,206.52v-1.53 M865.46,208.39v-1.53 M868.7,210.26v-1.53 M871.94,212.13v-1.53 M875.18,214
			v-1.53 M878.42,215.87v-1.53 M881.66,217.74v-1.53 M884.9,219.61v-1.53 M888.15,221.48v-1.53 M894.63,225.22v-1.53 M897.87,227.09
			v-1.53 M901.11,228.97v-1.53 M904.35,230.84v-1.53 M907.59,232.71v-1.53 M846.23,197.28l-9.33,5.39 M910.74,234.53V233
			 M620.56,208.97l0.93,0.54 M321.17,122.92c0.12-0.2,0.24-0.4,0.37-0.6 M321.17,122.92c-0.45,0.05-0.9,0.08-1.32,0.1
			c-1.43,0.05-2.72-0.1-3.78-0.46c-1.02-0.35-1.82-0.89-2.35-1.58c-0.04-0.06-0.09-0.11-0.13-0.17 M795.08,309.73
			c0.42-3.65,0.85-7.16,1.3-10.47c0.63-4.67,1.28-8.95,1.96-12.72c0.65-3.6,1.31-6.75,2.01-9.44c0.68-2.64,1.38-4.86,2.11-6.7
			c0.73-1.83,1.49-3.3,2.29-4.5c0.79-1.18,1.64-2.09,2.54-2.81c0.59-0.47,1.2-0.85,1.84-1.18 M907.8,232.83l-0.21-0.12
			 M904.56,230.96l-0.21-0.12 M901.32,229.09l-0.21-0.12 M620.57,208.97c0.25-0.03,0.51-0.06,0.76-0.09
			c1.88-0.21,3.82-0.35,5.8-0.42c2.07-0.08,4.19-0.07,6.32,0c2.25,0.08,4.52,0.24,6.77,0.45c2.4,0.23,4.79,0.51,7.16,0.83
			c2.53,0.34,5.03,0.72,7.51,1.11c2.63,0.42,5.23,0.86,7.79,1.31c2.71,0.47,5.38,0.95,8.02,1.42c2.77,0.49,5.5,0.98,8.2,1.45
			c2.81,0.49,5.58,0.95,8.32,1.38c2.83,0.45,5.62,0.86,8.38,1.23c2.83,0.38,5.63,0.71,8.39,0.99c2.82,0.28,5.6,0.51,8.34,0.67
			c1.39,0.08,2.77,0.14,4.14,0.19c1.38,0.04,2.75,0.07,4.11,0.07c2.74,0.01,5.46-0.06,8.19-0.21c2.72-0.16,5.45-0.4,8.23-0.74
			c2.74-0.34,5.52-0.77,8.37-1.31c2.8-0.53,5.66-1.17,8.6-1.93c2.91-0.75,5.89-1.62,8.93-2.6c3.08-1,6.22-2.11,9.36-3.32
			c3.32-1.28,6.63-2.66,9.88-4.1c3.6-1.59,7.12-3.25,10.5-4.92c0.42-0.21,0.84-0.42,1.26-0.62 M898.08,227.22l-0.21-0.12
			 M894.84,225.35l-0.21-0.12 M891.6,223.47l-0.21-0.12 M888.36,221.6l-0.21-0.12 M885.12,219.73l-0.21-0.12 M881.88,217.86
			l-0.21-0.12 M878.64,215.99l-0.21-0.12 M875.4,214.12l-0.21-0.12 M872.15,212.25l-0.21-0.12 M868.91,210.38l-0.21-0.12
			 M865.68,208.51l-0.21-0.12 M862.43,206.64l-0.21-0.12 M859.2,204.77l-0.21-0.12"/>
		<path class="st0" d="M270.77,467.95c-0.67,0-1.35-0.06-2-0.19c-0.65-0.13-1.29-0.33-1.87-0.61c-0.15-0.07-0.29-0.15-0.43-0.23
			c-0.43-0.25-0.81-0.54-1.12-0.89c-0.41-0.47-0.67-1.01-0.67-1.6c-1.22-0.7-2.43-1.41-3.65-2.11
			c-52.43-30.27-104.86-60.54-157.3-90.81c37.99-21.93,75.97-43.86,113.96-65.79 M1019.03,567.12v30.65c0,4.83-0.78,9.99-2.29,15.24
			c-1.62,5.66-4.04,11.32-7.14,16.67c-3.09,5.35-6.78,10.28-10.87,14.52c-3.8,3.93-7.87,7.18-12.06,9.6
			c-18.26,10.54-36.52,21.08-54.77,31.62c-3.85,2.22-8.16,3.94-12.63,4.5c-4.49,0.56-9.03-0.07-13.03-2.38
			c-208.5-120.38-417-240.76-625.5-361.13c-1.92-1.11-3.61-2.54-5.06-4.27c-1.4-1.67-2.56-3.59-3.47-5.71
			c-1.66-3.89-2.47-8.41-2.47-13.3v-30.65 M334.82,238.1c-19.85,11.46-39.7,22.92-59.54,34.38
			c208.09,120.14,416.19,240.29,624.28,360.43c37.99-21.93,75.97-43.86,113.96-65.79c-61.94-35.76-123.89-71.53-185.83-107.29
			c-1.22-0.7-2.43-1.4-3.65-2.11v20.1v10.55c0,0.72-0.2,1.6-0.93,1.99 M477.49,288.3l72.69,41.97l3.65-2.11l4.34-2.51
			 M838.09,453.82c-2.25,1.3-4.5,2.6-6.75,3.9c61.94,35.76,123.89,71.53,185.83,107.29c0.2,0.12,0.41,0.23,0.61,0.35
			c0.43,0.25,0.85,0.6,1.09,1.06c0.12,0.23,0.17,0.45,0.17,0.7c0,0.8-0.65,1.4-1.26,1.76c-0.2,0.12-0.41,0.23-0.61,0.35
			c-37.98,21.93-75.97,43.86-113.96,65.79c-0.2,0.12-0.41,0.23-0.61,0.35c-1.68,0.97-4.41,0.97-6.09,0
			c-0.2-0.12-0.41-0.23-0.61-0.35C687.81,514.87,479.72,394.73,271.62,274.59c-0.2-0.12-0.41-0.23-0.61-0.35
			c-0.61-0.35-1.26-0.95-1.26-1.76c0-0.8,0.65-1.4,1.26-1.76c0.2-0.12,0.41-0.23,0.61-0.35c19.47-11.24,38.94-22.48,58.41-33.72
			 M832.87,452.61l-5.19,3l-3.65,2.11 M851.01,456.81v12.27 M331.41,304.89c9.41-5.43,18.82-10.87,28.23-16.3
			c8.71-5.03,16.02-13.59,20.92-22.09c1.86-3.22,3.56-6.75,4.94-10.43 M366.71,283.52l569,328.51 M902.6,635.37v30.65
			c0,4.32,0.7,8.93,2.71,12.87c2.34,4.6,6.21,7.73,11.43,8.5c4.95,0.73,10.03-0.8,14.29-2.97c0.6-0.31,1.19-0.63,1.77-0.96
			c18.26-10.54,36.52-21.08,54.77-31.62c8.89-5.13,16.35-13.87,21.35-22.54c5.01-8.67,8.85-19.5,8.85-29.76v-30.65 M896.51,635.37
			v30.65c0,4.75,0.77,9.83,2.98,14.16c1.54,3.03,3.76,5.63,6.76,7.36 M550.18,321.03v9.23c0,0.44,0.06,0.93,0.19,1.43
			c0.14,0.54,0.35,1.09,0.62,1.62c0.27,0.52,0.6,1,0.97,1.41c0.17,0.19,0.35,0.36,0.53,0.51c0.18,0.15,0.37,0.28,0.56,0.39
			c89.26,51.53,178.51,103.06,267.77,154.59c0.1,0.06,0.2,0.11,0.3,0.16c0.1,0.04,0.2,0.08,0.3,0.12c0.2,0.06,0.4,0.11,0.59,0.12
			c0.38,0.03,0.74-0.05,1.04-0.22 M254.61,466.04c-51.06-29.48-102.11-58.96-153.17-88.43c-0.84-0.49-1.54-1.16-2.07-1.97
			c-0.13-0.2-0.25-0.4-0.36-0.62c-0.08-0.16-0.15-0.32-0.22-0.48c-0.39-0.95-0.57-1.98-0.57-3.03 M790.65,441.85
			c11.13,6.42,22.25,12.85,33.38,19.27 M264.68,464.44c-1.22,0.7-2.43,1.4-3.65,2.11c-5.63,3.25-11.27,6.51-16.9,9.76
			c-0.61,0.35-1.26,0.95-1.26,1.76c0,0.8,0.65,1.4,1.26,1.76c89.26,51.53,178.51,103.06,267.77,154.59c1.68,0.97,4.4,0.97,6.09,0
			c5.63-3.25,11.27-6.51,16.9-9.76c1.22-0.7,2.43-1.4,3.65-2.11c1.22,0.7,2.43,1.41,3.65,2.11
			c61.94,35.76,123.89,71.53,185.83,107.29c37.99-21.93,75.97-43.86,113.96-65.79C633.88,546.01,425.79,425.87,217.69,305.72
			c0,1.94-1.36,4.3-3.04,5.27c-35.96,20.76-71.91,41.52-107.87,62.28 M538.54,626.77c-5.63,3.25-11.27,6.51-16.9,9.76
			c-3.7,2.13-9.69,2.13-13.39,0c-89.26-51.53-178.51-103.06-267.77-154.59c-1.34-0.77-2.77-2.09-2.77-3.87
			c0-1.77,1.43-3.09,2.77-3.87c4.71-2.72,9.42-5.44,14.13-8.16c0.92-0.53,1.85-1.07,2.77-1.6c-52.43-30.27-104.86-60.54-157.3-90.81
			c-0.2-0.12-0.41-0.23-0.61-0.35c-0.61-0.35-1.26-0.95-1.26-1.76c0-0.8,0.65-1.4,1.26-1.76c0.2-0.12,0.4-0.23,0.61-0.35
			c37.99-21.93,75.97-43.86,113.96-65.79c0.2-0.12,0.41-0.23,0.61-0.35c0.06-0.04,0.13-0.07,0.19-0.11
			c1.67-0.85,4.25-0.84,5.89,0.11c0.2,0.12,0.41,0.23,0.61,0.35C429.44,423.76,637.53,543.9,845.62,664.05
			c0.2,0.12,0.41,0.23,0.61,0.35c0.43,0.25,0.85,0.6,1.09,1.06c0.12,0.22,0.18,0.45,0.18,0.7c0,0.8-0.65,1.41-1.26,1.76
			c-0.2,0.12-0.41,0.23-0.61,0.35c-37.98,21.93-75.97,43.86-113.95,65.79c-0.2,0.12-0.41,0.23-0.61,0.35
			c-0.06,0.04-0.13,0.07-0.2,0.11 M731.06,734.41c-1.68,0.97-4.41,0.97-6.09,0c-0.2-0.12-0.41-0.23-0.61-0.35
			c-61.94-35.76-123.89-71.53-185.83-107.29v2.46v0.74c62.8,36.26,125.6,72.52,188.4,108.77c1.94,1.03,5.02,0.91,6.89-0.26
			c35.96-20.76,71.91-41.52,107.87-62.28c1.3-0.75,2.45-1.83,3.39-3.12c0.91-1.25,1.6-2.65,2.01-4.11c0.26-0.94,0.41-1.89,0.41-2.82
			 M538.54,629.97c-6.29,3.63-12.58,7.26-18.86,10.89c-2.62,1.51-6.85,1.51-9.47,0c-89.26-51.53-178.51-103.06-267.76-154.59
			c-1.11-0.64-2.08-1.5-2.84-2.52c-0.33-0.44-0.63-0.92-0.88-1.41c-0.67-1.32-1.02-2.79-1.02-4.27 M531.62,400.76v-1.4
			 M735.59,518.51v-1.39 M784.88,537.06l-7.38,4.26l-7.38,4.26 M925.23,618.09l-140.35-81.03 M770.12,545.58l140.35,81.03
			 M770.12,546.97l139.14,80.33 M562.86,425.91l165.35,95.46 M735.59,517.12l7.38-4.26 M728.21,521.38l7.38-4.26 M728.21,522.77
			l7.38-4.26 M728.21,522.77v-1.4"/>
	</g>
</g>
</svg>
