<?xml version="1.0" encoding="utf-8"?>
<!-- Generator: Adobe Illustrator 26.3.1, SVG Export Plug-In . SVG Version: 6.00 Build 0)  -->
<svg version="1.1" id="Livello_1" xmlns="http://www.w3.org/2000/svg" xmlns:xlink="http://www.w3.org/1999/xlink" x="0px" y="0px"
	 viewBox="0 0 1200 852" style="enable-background:new 0 0 1200 852;" xml:space="preserve">
<style type="text/css">
	.st0{fill:none;stroke:#000000;stroke-width:0.75;stroke-miterlimit:10;}
	.st1{fill:none;stroke:#000000;stroke-width:0.75;stroke-linejoin:round;stroke-miterlimit:10;}
	.st2{fill:none;stroke:#000000;stroke-width:0.75;stroke-linecap:round;stroke-linejoin:round;stroke-miterlimit:10;}
	.st3{enable-background:new    ;}
	.st4{clip-path:url(#SVGID_00000016765694583429334210000004535510468793111978_);}
</style>
<g>
	<path class="st2" d="M649.9,182.15c0,6.1,3.16,11.37,7.3,15.41 M501.62,121.5c0,4.49,1.72,8.59,4.36,12.09
		c2.62,3.48,6.11,6.33,9.77,8.59c7.33,4.53,16.17,7.22,24.56,8.54c8.54,1.34,17.51,1.4,26.07,0.21c8.43-1.18,17.28-3.71,24.74-8.02
		 M502.41,126.75c-1.39,4.55-0.93,9.12,1.12,13.38c2,4.16,5.3,7.59,8.91,10.31c7.22,5.44,16.54,8.69,25.22,10.33
		c8.92,1.69,18.38,1.96,27.39,0.84c8.86-1.1,18.23-3.66,26.07-8.19 M501.62,196.39c-12.55-3.82-27.22-4.07-39.93-0.96
		c-3.56,0.87-7,2.01-10.35,3.51c-2.84,1.27-5.5,2.75-8.01,4.59c-2.82,2.06-5.43,4.59-7.29,7.6c-1.7,2.74-2.73,5.79-2.73,9.06
		c0,3.27,1.02,6.33,2.72,9.07c1.87,3.01,4.48,5.54,7.3,7.61c2.51,1.84,5.18,3.32,8.01,4.59c3.35,1.5,6.79,2.63,10.35,3.51
		c12.7,3.11,27.37,2.86,39.93-0.96 M591.11,142.9c3.92-2.26,7.7-5.17,10.56-8.76c2.87-3.61,4.8-7.9,4.8-12.65 M591.11,153.42
		c4.64-2.68,9.16-6.3,12.11-10.93c3.05-4.77,4.14-10.2,2.44-15.74 M521.09,83.95c-4.37,2.52-8.65,6-11.26,10.52
		c-2.38,4.12-3.09,8.68-1.65,13.3c1.38,4.39,4.45,8.02,7.9,10.82c4.08,3.31,8.96,5.71,13.86,7.42c9.15,3.19,19.36,4.31,28.97,3.73
		c5.3-0.32,10.64-1.17,15.75-2.63c4.27-1.22,8.47-2.88,12.33-5.1c4.37-2.53,8.65-6.01,11.26-10.52c2.38-4.12,3.09-8.68,1.65-13.3
		c-1.38-4.4-4.45-8.02-7.9-10.82c-4.08-3.31-8.96-5.71-13.86-7.42c-9.15-3.19-19.36-4.31-28.97-3.73
		c-5.3,0.32-10.64,1.17-15.75,2.63C529.15,80.07,524.95,81.73,521.09,83.95z M673.31,154.75c4.14-4.04,7.3-9.3,7.3-15.4
		 M739.4,217.31c3.92-2.26,7.7-5.17,10.56-8.76c2.87-3.61,4.8-7.9,4.8-12.65 M739.4,227.83c4.63-2.68,9.16-6.3,12.11-10.93
		c3.05-4.77,4.14-10.2,2.44-15.74 M501.62,107.74c0,5.75,2.8,10.75,6.6,14.7c3.81,3.96,8.7,6.97,13.63,9.19
		c9.91,4.45,21.46,6.38,32.19,6.38c10.73,0,22.29-1.93,32.2-6.38c4.93-2.21,9.82-5.23,13.63-9.18c3.8-3.95,6.6-8.96,6.61-14.7
		 M501.62,282c-13.81-4.2-30.4-4.14-44.16,0.23c-6.78,2.15-14.12,5.78-19.03,11.31c-5.3,5.98-6.92,13.4-2.8,20.65 M450.89,283.17
		c4.14-4.04,7.3-9.3,7.3-15.41 M407.59,298.01c9.48-0.19,19.46-1.89,28.32-5.49 M680.56,223.45c9.65,2.54,20.12,3.27,30.03,2.35
		c9.74-0.9,20.2-3.51,28.81-8.49 M680.61,233.98c9.64,2.53,20.1,3.25,30,2.34c9.73-0.9,20.18-3.51,28.78-8.48 M672.18,206.91
		c14.58,5.92,32.47,6.88,47.68,3.76c7.71-1.58,15.76-4.42,22.38-8.9c3.31-2.24,6.41-5.01,8.72-8.32c2.32-3.33,3.79-7.15,3.79-11.3
		 M640.26,193.08c3.26-0.45,6.46-1.07,9.64-1.9 M426.97,309.2c0.19-0.05,0.37-0.1,0.56-0.14 M606.47,180.65
		c13.81,3.63,29.68,3.62,43.49-0.01 M606.47,158.39c12.55,3.82,27.22,4.07,39.93,0.96c3.57-0.87,7-2.01,10.35-3.51
		c2.84-1.27,5.5-2.75,8.01-4.59c2.82-2.06,5.43-4.59,7.29-7.6c1.7-2.74,2.73-5.79,2.73-9.06c0-3.27-1.02-6.33-2.72-9.07
		c-1.87-3.01-4.48-5.55-7.3-7.61c-2.52-1.84-5.18-3.32-8.02-4.59c-3.35-1.5-6.79-2.63-10.35-3.51c-12.7-3.11-27.37-2.86-39.93,0.96
		 M606.47,166.89c16.28,4.28,36.08,3.62,51.86-2.79 M458.13,266.25c13.81,3.64,29.67,3.64,43.49,0.01 M458.19,276.79
		c3.18,0.84,6.38,1.46,9.64,1.9 M491.98,278.69c3.26-0.45,6.46-1.07,9.64-1.91 M449.76,249.72c15.78,6.4,35.58,7.06,51.86,2.78
		 M391.23,288.57c8.1,1.53,16.7,1.74,24.86,0.67c4.53-0.59,8.9-1.56,13.23-3.02c3.62-1.23,7.03-2.74,10.3-4.73
		c3.69-2.25,7.22-5.19,9.65-8.86c2.19-3.31,3.4-7.09,3-11.13c-0.39-4-2.28-7.55-4.84-10.51c-2.87-3.32-6.62-5.94-10.45-7.94
		c-3.44-1.8-7-3.14-10.73-4.19c-4.34-1.23-8.7-2-13.19-2.41c-8.2-0.75-16.78-0.24-24.81,1.64c-4.41,1.03-8.77,2.5-12.84,4.51
		c-3.35,1.66-6.6,3.75-9.35,6.32c-3.08,2.89-5.65,6.53-6.56,10.8c-0.88,4.11-0.07,8.1,1.97,11.69 M606.47,266.27
		c9.64,2.53,20.1,3.25,30,2.34c9.73-0.9,20.18-3.52,28.78-8.48 M606.47,191.17c3.18,0.84,6.38,1.46,9.64,1.9 M606.47,276.79
		c9.64,2.53,20.1,3.25,30,2.34c9.73-0.9,20.18-3.52,28.78-8.48 M665.25,260.12c3.92-2.26,7.7-5.17,10.56-8.76
		c2.87-3.61,4.8-7.9,4.8-12.65 M501.11,352.01c0.17-0.04,0.34-0.09,0.51-0.13 M427.47,224.96c0,6.1,3.16,11.37,7.3,15.4
		 M465.38,331.38c11.7,2.22,24.8,1.72,36.24-1.76 M481.73,340.82c6.66-0.13,13.44-1.01,19.89-2.7 M665.25,270.64
		c4.64-2.68,9.16-6.3,12.12-10.93c3.05-4.77,4.14-10.2,2.44-15.74 M606.47,244c12.55,3.82,27.22,4.07,39.93,0.96
		c3.57-0.87,7-2,10.35-3.51c2.84-1.27,5.5-2.75,8.01-4.59c2.82-2.06,5.43-4.59,7.29-7.6c1.7-2.74,2.73-5.79,2.73-9.06
		c0-3.27-1.02-6.33-2.72-9.07c-1.87-3.01-4.48-5.54-7.3-7.61c-2.52-1.84-5.18-3.32-8.02-4.59c-3.35-1.5-6.79-2.63-10.35-3.51
		c-12.7-3.11-27.37-2.86-39.93,0.96 M669.37,158.37c-4.37,2.52-8.65,6-11.26,10.52c-2.38,4.12-3.09,8.68-1.65,13.3
		c1.38,4.39,4.45,8.02,7.9,10.82c4.08,3.31,8.96,5.71,13.86,7.42c9.15,3.19,19.36,4.31,28.97,3.73c5.3-0.32,10.64-1.17,15.75-2.63
		c4.26-1.22,8.47-2.88,12.33-5.1c4.37-2.52,8.65-6,11.26-10.52c2.38-4.12,3.09-8.68,1.65-13.29c-1.38-4.4-4.44-8.02-7.9-10.82
		c-4.08-3.31-8.96-5.71-13.86-7.42c-9.15-3.19-19.36-4.31-28.97-3.73c-5.3,0.32-10.64,1.17-15.75,2.63
		C677.44,154.48,673.23,156.14,669.37,158.37z M606.47,252.5c13.84,3.64,29.74,3.63,43.57-0.04c6.92-1.83,14.07-4.79,19.86-9.18
		c5.65-4.29,10.71-10.57,10.71-18.33 M416.06,264.19c2.06-1.19,4.27-3.22,4.27-5.95 M391.2,263c0,2.58,1.99,4.54,3.92,5.74
		c2.04,1.26,4.49,2.01,6.82,2.37c4.49,0.7,10.04,0.18,14.11-2.17 M416.06,268.95c2.06-1.19,4.27-3.22,4.27-5.95 M465.37,305.29
		c-0.02,0.17-0.03,0.35-0.03,0.53 M494.46,301.05c0-1.6-0.78-2.99-1.83-4.08c-1.06-1.1-2.42-1.94-3.79-2.55
		c-2.75-1.24-5.96-1.77-8.94-1.77c-2.98,0-6.19,0.53-8.94,1.77c-1.37,0.62-2.73,1.45-3.78,2.55c-1.06,1.1-1.84,2.49-1.84,4.08
		 M465.34,301.05c0,2.58,1.99,4.54,3.93,5.74c2.04,1.26,4.49,2.01,6.82,2.37c4.49,0.7,10.04,0.19,14.11-2.17 M465.34,305.81v-4.76
		 M490.2,307c2.06-1.19,4.27-3.22,4.27-5.95 M465.34,305.81c0,2.58,1.99,4.54,3.93,5.74c2.04,1.26,4.49,2.01,6.82,2.37
		c4.49,0.7,10.04,0.18,14.11-2.17 M490.2,311.76c2.06-1.19,4.27-3.22,4.27-5.94 M539.48,98.22c0,2.58,1.99,4.54,3.93,5.74
		c2.04,1.26,4.49,2.01,6.82,2.37c4.49,0.7,10.04,0.18,14.11-2.17 M539.48,102.98c0,2.58,1.99,4.54,3.93,5.74
		c2.04,1.26,4.49,2.01,6.82,2.37c4.49,0.7,10.04,0.18,14.11-2.17 M568.6,98.22v4.76 M564.34,104.17c2.06-1.19,4.26-3.22,4.26-5.95
		 M501.62,137.69v-5.68 M592.46,85.25c3.62,2.4,6.68,5.19,9.01,8.31c1.57,2.09,2.81,4.33,3.66,6.68c0.88,2.43,1.34,4.95,1.34,7.5
		 M860.24,202.53l3.46-2 M303.4,267.84l1.6-2.97 M305.01,264.87l0.2-0.37 M628.24,64.59l8.76-0.41 M869.12,207.66l4.09,5.38
		 M938.7,307.65l1.15,1.51 M939.85,309.16l-76.15,43.96 M863.7,200.53l5.42,7.13 M943.18,305.07l-3.33,4.09 M873.21,213.04
		l69.97,92.03 M869.88,208.1l-0.76-0.44 M969.12,195.65L733.66,59.7 M869.88,208.1l96.66-4.48 M969.12,195.65l-2.58,7.97 M637,64.18
		l96.66-4.48 M539.51,102.45c-0.02,0.17-0.03,0.35-0.03,0.52 M568.6,98.22c0-1.6-0.78-2.99-1.83-4.08c-1.06-1.1-2.41-1.94-3.79-2.55
		c-2.75-1.24-5.96-1.77-8.94-1.77s-6.19,0.54-8.94,1.77c-1.37,0.62-2.73,1.45-3.78,2.55c-1.06,1.1-1.84,2.49-1.84,4.09
		 M539.48,102.98v-4.76 M605.14,128.28v0.14 M606.47,121.49c0,1.79-0.26,3.57-0.78,5.32 M501.62,132.02c0-1.79,0.26-3.57,0.78-5.32
		 M501.62,107.73c0-2.55,0.46-5.07,1.34-7.5c0.85-2.35,2.09-4.59,3.66-6.68c2.87-3.83,6.83-7.15,11.56-9.89 M518.18,83.66
		c4.67-2.69,10.06-4.8,15.94-6.27c6.32-1.58,13.08-2.39,19.92-2.39c6.84,0,13.6,0.81,19.92,2.39c5.88,1.47,11.28,3.58,15.94,6.27
		c0.88,0.51,1.73,1.03,2.55,1.58 M606.47,107.73L606.47,107.73 M501.62,121.49v-13.76 M564.34,108.92c2.06-1.19,4.26-3.22,4.26-5.95
		 M680.61,224.95L680.61,224.95 M642.75,215.44v4.76 M494.46,215.44v4.76 M613.65,219.67c-0.02,0.17-0.03,0.35-0.03,0.53
		 M613.62,220.2v-4.76 M638.48,221.39c2.06-1.19,4.27-3.22,4.27-5.95 M679.28,245.5v0.14 M680.61,249.24v57 M680.61,238.72
		c0,1.79-0.26,3.57-0.78,5.32 M638.48,226.14c2.06-1.19,4.27-3.22,4.27-5.95 M465.37,219.67c-0.02,0.17-0.03,0.35-0.03,0.53
		 M494.46,215.44c0-1.6-0.78-2.99-1.83-4.08c-1.06-1.1-2.42-1.94-3.79-2.55c-2.75-1.24-5.96-1.77-8.94-1.77s-6.19,0.53-8.94,1.77
		c-1.37,0.62-2.73,1.45-3.78,2.55c-1.06,1.1-1.84,2.49-1.84,4.08 M465.34,215.44c0,2.58,1.99,4.55,3.93,5.74
		c2.04,1.26,4.49,2.01,6.82,2.37c4.49,0.7,10.04,0.18,14.11-2.17 M465.34,220.2v-4.76 M490.2,221.39c2.06-1.19,4.27-3.22,4.27-5.95
		 M465.34,220.2c0,2.58,1.99,4.55,3.93,5.74c2.04,1.26,4.49,2.01,6.82,2.37c4.49,0.7,10.04,0.18,14.11-2.17 M490.2,226.14
		c2.06-1.19,4.27-3.22,4.27-5.95 M716.89,172.64v4.76 M353.36,266.7c0.11-2.19,0.55-4.35,1.31-6.44c0.85-2.35,2.09-4.59,3.66-6.68
		c2.87-3.83,6.83-7.15,11.56-9.89 M369.89,243.69c4.67-2.69,10.06-4.8,15.94-6.27c6.32-1.58,13.08-2.39,19.92-2.39
		c6.84,0,13.6,0.81,19.92,2.39c5.88,1.47,11.28,3.58,15.94,6.27c4.74,2.73,8.7,6.06,11.56,9.89c1.57,2.09,2.81,4.33,3.66,6.68
		c0.88,2.43,1.34,4.95,1.34,7.5 M458.18,267.76v12.93 M427.5,309.51c0.11-2.19,0.55-4.34,1.31-6.44c0.85-2.35,2.09-4.59,3.66-6.68
		c2.87-3.83,6.83-7.15,11.56-9.89 M444.04,286.5c4.67-2.69,10.06-4.8,15.94-6.27c6.32-1.58,13.08-2.39,19.92-2.39
		c6.84,0,13.6,0.81,19.92,2.39c0.6,0.15,1.2,0.31,1.79,0.47 M551.22,380.94L315.76,245 M551.22,380.94l79.48,104.54 M863.7,353.12
		L627.37,489.57 M943.18,305.07L630.7,485.48 M863.7,200.53l105.42-4.89 M628.24,64.59L863.7,200.53 M606.47,132.02v217.03
		 M501.62,352.3V137.69 M606.47,107.74v13.76 M606.47,195.08c0.59-0.16,1.19-0.32,1.79-0.47c6.32-1.58,13.08-2.39,19.92-2.39
		c6.84,0,13.6,0.81,19.92,2.39c5.88,1.47,11.28,3.58,15.94,6.27c4.74,2.73,8.7,6.06,11.56,9.89c1.57,2.09,2.81,4.33,3.66,6.68
		c0.88,2.43,1.34,4.95,1.34,7.5 M680.61,224.96v13.76 M642.75,215.44c0-1.6-0.78-2.99-1.83-4.08c-1.06-1.1-2.42-1.94-3.79-2.55
		c-2.75-1.24-5.96-1.77-8.94-1.77c-2.98,0-6.19,0.53-8.94,1.77c-1.37,0.62-2.73,1.45-3.79,2.55c-1.06,1.1-1.84,2.49-1.84,4.08
		 M613.62,215.44c0,2.58,1.99,4.55,3.93,5.74c2.04,1.26,4.49,2.01,6.82,2.37c4.49,0.7,10.04,0.18,14.11-2.17 M613.62,220.2
		c0,2.58,1.99,4.55,3.93,5.74c2.04,1.26,4.49,2.01,6.82,2.37c4.49,0.7,10.04,0.18,14.11-2.17 M427.47,224.95
		c0-2.55,0.46-5.07,1.34-7.5c0.85-2.35,2.09-4.59,3.66-6.68c2.87-3.83,6.83-7.16,11.56-9.89 M444.04,200.89
		c4.67-2.69,10.06-4.8,15.94-6.27c6.32-1.58,13.08-2.39,19.92-2.39c6.84,0,13.6,0.81,19.92,2.39c0.6,0.15,1.2,0.31,1.79,0.47
		 M649.9,182.15c0-2.55,0.46-5.07,1.34-7.5c0.85-2.35,2.09-4.59,3.66-6.68c2.87-3.83,6.83-7.15,11.57-9.89 M666.46,158.08
		c4.19-2.42,8.96-4.37,14.15-5.8 M754.75,182.15v13.76 M606.47,109.47c0.59-0.16,1.19-0.32,1.79-0.47
		c6.32-1.58,13.08-2.39,19.92-2.39h0.05 M680.61,139.34v12.93 M642.75,129.83c0-1.6-0.78-2.99-1.83-4.08
		c-1.06-1.1-2.42-1.94-3.79-2.55c-2.75-1.24-5.96-1.77-8.94-1.77c-2.98,0-6.19,0.53-8.94,1.77c-1.37,0.62-2.73,1.45-3.79,2.55
		c-1.06,1.1-1.84,2.49-1.84,4.08 M613.62,129.83c0,2.58,1.99,4.55,3.93,5.74c2.04,1.26,4.49,2.01,6.82,2.37
		c4.49,0.7,10.04,0.18,14.11-2.17 M613.62,134.59c0,2.58,1.99,4.55,3.93,5.74c2.04,1.26,4.49,2.01,6.82,2.37
		c4.49,0.7,10.04,0.18,14.11-2.17 M427.47,309.49v-0.42 M427.47,237.89v-12.93 M606.38,109.5c0.03-0.01,0.06-0.02,0.09-0.03
		 M628.24,106.61c6.82,0,13.56,0.81,19.87,2.39c5.88,1.47,11.28,3.58,15.94,6.27c4.74,2.73,8.7,6.06,11.56,9.89
		c1.57,2.09,2.81,4.33,3.66,6.68c0.88,2.43,1.34,4.95,1.34,7.5 M420.32,258.25V263 M494.46,301.05v4.76 M391.22,262.48
		c-0.02,0.17-0.03,0.35-0.03,0.52 M420.32,258.25c0-1.6-0.78-2.99-1.83-4.08c-1.06-1.1-2.42-1.94-3.79-2.55
		c-2.75-1.24-5.96-1.77-8.94-1.77c-2.98,0-6.19,0.54-8.95,1.77c-1.37,0.62-2.73,1.45-3.79,2.55c-1.06,1.1-1.83,2.49-1.83,4.09
		 M391.2,258.25c0,2.58,1.99,4.54,3.92,5.74c2.04,1.26,4.49,2.01,6.82,2.37c4.49,0.7,10.04,0.18,14.11-2.17 M391.2,263v-4.76
		 M592.46,85.24l35.78-20.66 M645.78,478.94L645.78,478.94 M863.7,353.12v258.76L557.4,788.73l-6.18,3.57L303.4,649.22V443.79
		 M470.78,540.27L551.9,390.3 M551.9,390.3l75.47,99.27 M551.22,391.55V792.3 M649.9,195.08v-12.93 M642.75,129.83v4.76
		 M680.61,152.28c0.59-0.16,1.19-0.32,1.79-0.47c6.32-1.58,13.08-2.39,19.92-2.39c6.84,0,13.6,0.81,19.92,2.39
		c5.88,1.47,11.28,3.58,15.94,6.27c4.74,2.73,8.7,6.06,11.56,9.89c1.57,2.09,2.81,4.33,3.66,6.68c0.88,2.43,1.34,4.95,1.34,7.5
		 M687.79,176.87c-0.02,0.17-0.03,0.35-0.03,0.52 M716.89,172.64c0-1.6-0.78-2.99-1.83-4.08c-1.06-1.1-2.42-1.94-3.79-2.55
		c-2.75-1.24-5.96-1.77-8.94-1.77c-2.98,0-6.19,0.54-8.94,1.77c-1.37,0.62-2.73,1.45-3.79,2.55c-1.06,1.1-1.83,2.49-1.83,4.09
		 M687.76,172.64c0,2.58,1.99,4.54,3.93,5.74c2.04,1.26,4.49,2.01,6.82,2.37c4.49,0.7,10.04,0.18,14.11-2.17 M687.76,177.39v-4.76
		 M712.62,178.58c2.06-1.19,4.27-3.22,4.27-5.95 M753.42,202.69v0.14 M754.75,206.43v57 M754.75,195.91c0,1.79-0.26,3.57-0.78,5.32
		 M687.76,177.39c0,2.58,1.99,4.55,3.93,5.74c2.04,1.26,4.49,2.01,6.82,2.37c4.49,0.7,10.04,0.18,14.11-2.17 M712.62,183.34
		c2.06-1.19,4.27-3.22,4.27-5.95 M613.65,134.06c-0.02,0.17-0.03,0.35-0.03,0.53 M613.62,134.59v-4.76 M638.48,135.78
		c2.06-1.19,4.27-3.22,4.27-5.95 M638.48,140.53c2.06-1.19,4.27-3.22,4.27-5.94 M230.88,401.92L315.76,245 M230.88,401.92
		l235.46,135.94 M315.76,245l185.85-107.3 M630.7,485.48l-3.33,4.09 M628.24,64.59v42.03 M254.81,303.7l42.46-24.52 M466.34,537.87
		l4.44,2.4 M310.32,255.06l-55.51,48.64l-2.62-2.99L315.76,245 M551.22,380.94l309.02-178.41 M466.34,537.87l84.88-156.92"/>
</g>
</svg>
