<?xml version="1.0" encoding="utf-8"?>
<!-- Generator: Adobe Illustrator 23.0.0, SVG Export Plug-In . SVG Version: 6.00 Build 0)  -->
<svg version="1.1" id="Layer_1" xmlns="http://www.w3.org/2000/svg" xmlns:xlink="http://www.w3.org/1999/xlink" x="0px" y="0px"
	 viewBox="0 0 1083.8 2834.6" style="enable-background:new 0 0 1083.8 2834.6;" xml:space="preserve">
<style type="text/css">
	.st0{clip-path:url(#SVGID_2_);}
	.st1{fill:none;}
	.st2{font-family:'ArialMT';}
	.st3{font-size:12px;}
	.st4{fill:#FFFFFF;}
	.st5{font-family:'ARKESSolidBold';}
	.st6{font-size:661.8784px;}
	.st7{fill:#FFFFFF;stroke:#000000;stroke-miterlimit:10;}
</style>
<path d="M0,0h1083.8v2834.6H0V0z"/>
<g>
	<g>
		<defs>
			<rect id="SVGID_1_" y="0" width="1083.8" height="2834.6"/>
		</defs>
		<clipPath id="SVGID_2_">
			<use xlink:href="#SVGID_1_"  style="overflow:visible;"/>
		</clipPath>
		<g class="st0">
			<path class="st1" d="M0,2834.6"/>
		</g>
	</g>
</g>
<text transform="matrix(1 0 0 1 224.2231 2383.0793)" class="st2 st3">D</text>
<text transform="matrix(6.123234e-17 -1 1 6.123234e-17 797.3071 2452.7834)" class="st4 st5 st6">diyrrr</text>
<polygon class="st7" points="374.6,218.5 310,280.3 324.3,368.5 245.6,326.1 166.1,367 182,279 118.6,216 207.2,204 247.5,124.3 
	286.3,204.8 "/>
<polygon class="st7" points="796.1,2643.6 710.9,2674.7 688.3,2762.5 632.4,2691.2 541.9,2696.8 592.5,2621.6 559.2,2537.2 
	646.4,2562.1 716.3,2504.3 719.6,2594.9 "/>
<polygon class="st7" points="360,2537.3 308.8,2516.3 262.5,2546.5 266.7,2491.3 223.7,2456.5 277.4,2443.5 297.2,2391.9 
	326.2,2439 381.4,2441.8 345.6,2483.9 "/>
</svg>
