<?xml version="1.0" encoding="utf-8"?>
<!-- Generator: Adobe Illustrator 26.3.1, SVG Export Plug-In . SVG Version: 6.00 Build 0)  -->
<svg version="1.1" id="Livello_1" xmlns="http://www.w3.org/2000/svg" xmlns:xlink="http://www.w3.org/1999/xlink" x="0px" y="0px"
	 viewBox="0 0 1200 830" style="enable-background:new 0 0 1200 830;" xml:space="preserve">
<style type="text/css">
	.st0{fill:none;stroke:#000000;stroke-width:0.75;stroke-miterlimit:10;}
	.st1{fill:none;stroke:#000000;stroke-width:0.75;stroke-linejoin:round;stroke-miterlimit:10;}
	.st2{fill:none;stroke:#000000;stroke-width:0.75;stroke-linecap:round;stroke-linejoin:round;stroke-miterlimit:10;}
	.st3{enable-background:new    ;}
	.st4{clip-path:url(#SVGID_00000158027827083011765520000011420865837546945437_);}
</style>
<g>
	<g>
		<path class="st0" d="M225.38,332.43l-0.85-0.49 M213.27,325.44l0.75-0.43 M243.85,343.09l0.75-0.43 M242.24,342.16l0.75-0.43
			 M240.63,341.23l0.75-0.43 M239.02,340.3l0.75-0.43 M237.41,339.37l0.75-0.43 M235.8,338.44l0.75-0.43 M234.19,337.51l0.75-0.43
			 M232.59,336.59l0.75-0.43 M230.98,335.66l0.75-0.44 M229.37,334.73l0.75-0.43 M227.76,333.8l0.75-0.43 M226.15,332.87l0.75-0.43
			 M224.54,331.94l0.75-0.43 M222.93,331.01l0.75-0.43 M221.32,330.08l0.75-0.43 M219.71,329.15l0.75-0.43 M218.1,328.22l0.75-0.43
			 M216.49,327.29l0.75-0.43 M214.88,326.37l0.75-0.43 M245.41,343.12l-0.75,0.44 M243.84,342.21l-0.75,0.43 M242.23,341.28
			l-0.75,0.44 M240.62,340.36l-0.75,0.43 M239.01,339.43l-0.75,0.43 M237.4,338.5l-0.75,0.43 M235.79,337.57l-0.75,0.43
			 M234.18,336.64l-0.75,0.43 M232.57,335.71l-0.75,0.44 M230.96,334.78l-0.75,0.44 M229.36,333.85l-0.75,0.43 M227.75,332.92
			l-0.75,0.43 M226.14,331.99l-0.75,0.43 M224.53,331.06l-0.75,0.43 M222.92,330.14l-0.75,0.43 M221.31,329.21l-0.75,0.43
			 M219.7,328.28l-0.75,0.43 M218.09,327.35l-0.75,0.43 M216.48,326.42l-0.75,0.43 M245.41,349.91L245.41,349.91 M118.84,267.48
			v-4.41 M121.19,259c2.85-1.65,5.71-3.3,8.56-4.94 M92.87,166.6c1.91-1.1,4.04-1.94,6.26-2.22c2.23-0.28,4.47,0.04,6.45,1.19
			 M256.52,336.01l-132.98-76.78 M65.63,182.33c0.35-0.2,0.77-0.07,1.07,0.11 M253.2,341.77c1.84,1.06,4.81,1.06,6.65,0
			 M93.9,166.73l0.3,0.17l310.04,179l0.3,0.17 M93.9,166.73l-27.2,15.71 M421.06,357.35c0-1.83-0.25-3.74-0.93-5.47
			c-0.68-1.74-1.8-3.28-3.46-4.24c-1.66-0.96-3.56-1.15-5.4-0.88c-1.83,0.28-3.62,1.01-5.2,1.93 M123.54,259.23
			c-1.84,1.06-3.32,3.64-3.32,5.76 M259.85,341.77c0-2.12-1.49-4.7-3.32-5.76 M253.2,356.99c0,0.77,0.21,1.71,0.97,2.15
			 M265.26,330.97l-8.73,5.04 M259.85,356.99c0,0.77-0.21,1.71-0.97,2.15 M50.19,226.25c0,0.77,0.21,1.71,0.97,2.15 M365.67,406.65
			l53.57-30.93 M268.24,336.92l92.29,53.28l0.3,0.17 M66.7,182.43l0.3,0.17l310.04,179l0.3,0.18 M419.24,375.72
			c1-0.58,1.81-1.98,1.81-3.14 M365.67,406.65c-1,0.58-1.81,0.11-1.81-1.05 M50.19,211.03c0-2.84,0.55-5.74,1.38-8.43
			c0.85-2.72,2.03-5.37,3.45-7.84c1.42-2.46,3.13-4.82,5.06-6.91c1.91-2.07,4.16-4,6.61-5.41 M120.22,280.21v-15.22 M120.22,264.99
			l132.98,76.78 M421.06,357.35c0.3-0.17,0.63-0.47,0.63-0.87 M406.06,348.7c0-0.96-0.68-2.14-1.51-2.62 M404.55,346.08l-27.2,15.71
			 M406.06,348.7l-27.2,15.71 M363.86,390.38c-0.83,0.48-2.19,0.48-3.02,0 M92.84,166.62c0.35-0.2,0.77-0.07,1.07,0.11
			 M363.86,390.38c0-5.1,1.91-10.47,4.39-14.78c2.49-4.31,6.19-8.65,10.61-11.2 M378.86,364.4c0-0.96-0.68-2.14-1.51-2.62
			 M360.84,390.38c0-2.84,0.55-5.74,1.38-8.43c0.84-2.72,2.03-5.37,3.45-7.84c1.42-2.46,3.13-4.82,5.06-6.91
			c1.91-2.07,4.16-4,6.61-5.41 M50.19,211.03v15.22 M421.06,372.58v-15.22 M118.84,263.07c0,0.88,0.71,1.53,1.38,1.92
			 M121.19,282.37c-0.76-0.44-0.97-1.38-0.97-2.15 M361.81,407.75c-0.76-0.44-0.97-1.38-0.97-2.15 M418.8,376.7
			c0.35-0.2,0.44-0.63,0.44-0.98 M121.19,259c0.76-0.44,1.69-0.15,2.35,0.23 M127.23,255.51L50.49,211.2l-0.3-0.18 M105.58,165.57
			c-1.83-1.06-3.92-1.27-5.95-0.97c-2.02,0.3-3.98,1.11-5.73,2.12 M49.57,210.16c0,0.4,0.32,0.7,0.63,0.87 M416.22,344.92
			c-1.83-1.06-3.92-1.27-5.95-0.97c-2.02,0.3-3.98,1.11-5.73,2.12 M365.23,407.63c0.35-0.2,0.44-0.63,0.44-0.98 M360.84,405.6
			v-15.22 M259.85,356.99v-15.22 M253.2,356.99v-15.22 M363.86,405.6v-15.22 M123.54,259.23l8.73-5.04 M259.85,341.77l8.39-4.85"/>
	</g>
	<polyline class="st1" points="244.65,349.66 244.65,350.7 245.41,350.26 	"/>
	<g>
		<path class="st0" d="M120.22,280.21c-0.66-0.38-1.38-1.04-1.38-1.92 M132.28,254.19c-0.11-0.06-0.22-0.12-0.33-0.17
			c-0.11-0.05-0.22-0.09-0.33-0.13c-0.22-0.07-0.44-0.11-0.66-0.12c-0.43-0.02-0.84,0.08-1.2,0.28 M268.24,336.92
			c0-0.51-0.07-1.07-0.2-1.65c-0.14-0.58-0.34-1.17-0.6-1.73c-0.26-0.56-0.59-1.08-0.96-1.52c-0.18-0.22-0.38-0.42-0.59-0.6
			c-0.1-0.09-0.21-0.17-0.31-0.25c-0.11-0.08-0.21-0.15-0.32-0.21 M132.28,254.19l132.98,76.78 M360.53,405.43l0.3,0.17
			 M268.24,352.14l44.73,25.83 M322.05,383.21l38.49,22.22 M50.19,226.25l0.3,0.17 M50.19,226.25c-0.3-0.17-0.63-0.47-0.63-0.87
			 M363.86,405.6l0.3-0.17 M421.06,372.58c0.3-0.18,0.63-0.47,0.63-0.87 M360.84,405.6c0.83,0.48,2.19,0.48,3.02,0 M416.22,344.92
			c0.95,0.55,1.79,1.26,2.51,2.12c0.53,0.63,0.98,1.32,1.37,2.08 M49.57,225.38v-15.22 M49.57,210.16c0-2.4,0.39-4.96,1.14-7.57
			c0.8-2.81,2.01-5.62,3.54-8.28c1.53-2.66,3.37-5.11,5.4-7.21c1.89-1.95,3.91-3.57,5.99-4.77 M105.58,165.57l310.64,179.35
			 M421.68,356.48v15.22 M65.66,182.31l27.17-15.69 M420.11,349.12c0.12,0.25,0.24,0.5,0.35,0.75c0.83,1.93,1.22,4.18,1.22,6.61
			 M212.52,333.02l0.76-0.44 M421.06,372.58l-0.3,0.17 M254.17,359.14c-44.33-25.59-88.65-51.18-132.98-76.78 M268.24,353.73
			c-3.12,1.8-6.25,3.61-9.37,5.41 M361.81,407.75l-40.96-23.65 M311.85,378.91l-43.61-25.18 M121.19,282.37
			c-0.55-0.32-1.03-0.74-1.41-1.25c-0.16-0.22-0.31-0.45-0.43-0.7c-0.33-0.66-0.51-1.38-0.51-2.12 M51.16,228.4
			c-0.42-0.24-0.76-0.58-1.03-0.98c-0.11-0.17-0.21-0.35-0.29-0.55c-0.2-0.47-0.29-0.98-0.29-1.5 M421.68,371.71
			c0,0.46-0.07,0.94-0.2,1.4c-0.2,0.73-0.55,1.42-1,2.04c-0.47,0.64-1.04,1.18-1.68,1.55 M365.02,407.74
			c-0.25,0.13-0.52,0.23-0.79,0.31c-0.35,0.09-0.71,0.13-1.06,0.11c-0.16-0.01-0.32-0.03-0.48-0.06c-0.31-0.07-0.6-0.18-0.88-0.34
			 M268.24,352.14v1.22v0.37 M259.85,356.99l8.39-4.85 M258.87,359.14c-0.72,0.41-1.53,0.63-2.35,0.63c-0.82,0-1.64-0.22-2.35-0.63
			 M418.8,376.7l-53.57,30.93 M365.23,407.63c-0.07,0.04-0.14,0.08-0.2,0.11 M256.52,336.01c-1.84,1.06-3.32,3.64-3.32,5.76
			 M259.63,357.11c-1.82,0.93-4.64,0.92-6.44-0.12 M259.63,357.11c0.07-0.04,0.14-0.08,0.21-0.12 M118.84,267.48L51.16,228.4
			 M253.2,356.99l-132.98-76.78 M50.49,226.43l68.35,39.46 M363.72,390.49l57.34-33.11 M364.16,405.43l56.59-32.67 M118.84,263.07
			c0-0.74,0.17-1.46,0.51-2.12c0.12-0.25,0.27-0.48,0.43-0.7c0.38-0.51,0.86-0.93,1.41-1.25 M213.27,331.55v1.03"/>
	</g>
	<polygon class="st1" points="212.52,324.13 245.41,343.12 245.41,352.01 212.52,333.02 	"/>
	<path class="st0" d="M214.87,325.49l-0.75,0.43 M243.85,348.32l-0.76,0.44 M242.24,347.39l-0.76,0.44 M240.63,346.46l-0.76,0.44
		 M239.02,345.53l-0.76,0.44 M237.41,344.6l-0.76,0.44 M235.8,343.67l-0.76,0.44 M234.19,342.74l-0.76,0.44 M232.59,341.82
		l-0.76,0.44 M230.98,340.89l-0.76,0.44 M229.37,339.96l-0.76,0.44 M227.76,339.03l-0.76,0.44 M226.15,338.1l-0.76,0.44
		 M224.54,337.17l-0.76,0.44 M222.93,336.24l-0.76,0.44 M221.32,335.31l-0.76,0.44 M219.71,334.38l-0.76,0.44 M218.1,333.45
		l-0.76,0.44 M216.49,332.52l-0.76,0.44 M214.88,331.6l-0.76,0.44 M118.84,278.29v-10.82 M268.24,336.92v15.22"/>
	<polyline class="st1" points="244.65,349.66 244.65,343.55 243.85,343.09 243.85,349.2 243.09,348.76 243.09,342.65 242.24,342.16 
		242.24,348.27 241.48,347.83 241.48,341.72 240.63,341.23 240.63,347.34 239.87,346.9 239.87,340.79 239.02,340.3 239.02,346.41 
		238.26,345.97 238.26,339.86 237.41,339.37 237.41,345.48 236.65,345.04 236.65,338.93 235.8,338.44 235.8,344.56 235.04,344.11 
		235.04,338 234.19,337.51 234.19,343.63 233.43,343.19 233.43,337.07 232.59,336.59 232.59,342.7 231.82,342.26 231.82,336.14 
		230.98,335.66 230.98,341.77 230.21,341.33 230.21,335.22 229.37,334.73 229.37,340.84 228.6,340.4 228.6,334.29 227.76,333.8 
		227.76,339.91 226.99,339.47 226.99,333.36 226.15,332.87 226.15,338.98 225.38,338.54 225.38,332.43 224.54,331.94 224.54,338.05 
		223.78,337.61 223.78,331.5 222.93,331.01 222.93,337.12 222.17,336.68 222.17,330.57 221.32,330.08 221.32,336.19 220.56,335.75 
		220.56,329.64 219.71,329.15 219.71,335.26 218.95,334.82 218.95,328.71 218.1,328.22 218.1,334.34 217.34,333.89 217.34,327.78 
		216.49,327.29 216.49,333.41 215.73,332.97 215.73,326.85 214.88,326.37 214.88,332.48 214.12,332.04 214.12,325.92 213.27,325.44 
		213.27,331.55 213.27,332.58 214.12,333.07 214.88,333.51 215.73,334 216.49,334.44 217.34,334.93 218.1,335.37 218.95,335.85 
		219.71,336.29 220.56,336.78 221.32,337.22 222.17,337.71 222.93,338.15 223.78,338.64 224.54,339.08 225.38,339.57 226.15,340.01 
		226.99,340.5 227.76,340.94 228.6,341.43 229.37,341.87 230.21,342.36 230.98,342.8 231.82,343.29 232.59,343.73 233.43,344.22 
		234.19,344.66 235.04,345.14 235.8,345.59 236.65,346.07 237.41,346.52 238.26,347 239.02,347.44 239.87,347.93 240.63,348.37 
		241.48,348.86 242.24,349.3 243.09,349.79 243.25,349.89 243.85,350.23 244.65,350.7 	"/>
	<path class="st0" d="M304.96,358.12l18.5,11.78 M316.36,375.08c-4.91,4.17,1.44,6.69,6.69,3.85l8.11-5.75 M137.31,501.42
		c0.14-0.01,0.29-0.02,0.43-0.02 M154.31,510.6c0.33-0.12,0.65-0.28,0.96-0.47c0.25-0.16,0.5-0.34,0.73-0.54 M166.71,530.4
		c0.12-0.42,0.25-0.88,0.39-1.35c0.14-0.47,0.29-0.97,0.46-1.48c0.16-0.51,0.34-1.03,0.52-1.57c0.19-0.53,0.38-1.08,0.58-1.63
		c0.21-0.55,0.42-1.12,0.64-1.69c0.22-0.57,0.45-1.16,0.67-1.74c0.11-0.3,0.23-0.61,0.34-0.91c0.11-0.3,0.22-0.62,0.31-0.94
		c0.1-0.32,0.19-0.67,0.25-1c0.06-0.34,0.08-0.73-0.04-1.02c-0.13-0.29-0.37-0.4-0.6-0.45c-0.22-0.04-0.47-0.04-0.69-0.01
		c-0.22,0.03-0.45,0.07-0.66,0.13c-0.22,0.06-0.44,0.12-0.65,0.2c-0.41,0.14-0.82,0.32-1.2,0.5c-0.39,0.19-0.76,0.39-1.11,0.6
		c-0.35,0.21-0.68,0.44-1,0.68c-0.1,0.08-0.2,0.16-0.29,0.24 M166.45,538.45c-12.24,10.26-24.47,20.52-36.71,30.78
		c-6.12,5.13-12.24,10.26-18.35,15.39c-3.06,2.57-6.12,5.13-9.18,7.69c-1.52,1.28-3.05,2.55-4.57,3.83
		c-0.19,0.16-0.38,0.32-0.57,0.47c-0.19,0.16-0.39,0.31-0.59,0.45c-0.4,0.3-0.81,0.57-1.24,0.84c-0.86,0.54-1.75,1-2.67,1.42
		 M58.47,588.76c1.03,2.36,2.43,4.55,4.15,6.47c0.86,0.97,1.79,1.85,2.79,2.66c1,0.82,2.05,1.54,3.17,2.19
		c2.23,1.29,4.65,2.22,7.18,2.74s5.11,0.65,7.68,0.37 M59.48,567.31c-1.8,3.26-2.83,6.89-3,10.61c-0.04,0.93-0.03,1.85,0.03,2.78
		c0.06,0.93,0.18,1.84,0.35,2.76c0.34,1.84,0.87,3.59,1.62,5.31 M83.43,603.19c1.62-0.18,3.33-0.69,4.82-1.33
		c1.54-0.66,2.99-1.52,4.31-2.54 M59.48,567.31c-0.58,1.05-1.1,2.23-1.42,3.4c-0.15,0.56-0.29,1.22-0.31,1.81
		c-0.01,0.17,0,0.34,0.02,0.51c0.02,0.14,0.04,0.27,0.1,0.39c0.18,0.38,0.48,0.28,0.75,0.05 M181.14,475.92l-2.74-1.23
		 M200.54,501.08l-0.73-2.91 M181.14,475.92c2.64,1.18,5.2,3.08,7.33,4.99 M200.54,501.08c0.37,1.49,0.62,3.13,0.51,4.68
		c-0.11,1.53-0.6,3.14-1.86,4.21 M199.8,498.17c0.11,0.45,0.21,0.9,0.28,1.36 M169.42,474.47l-7.25,6.08 M191.93,516.04l7.25-6.08
		 M169.42,474.47c1.27-1.06,2.93-1.26,4.46-1.1c1.55,0.16,3.12,0.69,4.52,1.31 M191.93,516.04c-0.85,0.71-1.89,1.04-2.96,1.12
		 M167.14,536.47c0.15-0.79,0.38-1.68,0.69-2.62c0.3-0.88,0.67-1.8,1.12-2.72c0.19-0.4,0.4-0.79,0.63-1.19
		c0.43-0.77,0.92-1.54,1.45-2.28c1.08-1.51,2.34-2.92,3.77-4.2c2.14-1.92,4.56-3.44,7.09-4.51c1.24-0.52,2.48-0.93,3.68-1.23
		c0.4-0.1,0.79-0.18,1.18-0.25c0.77-0.15,1.52-0.24,2.21-0.3 M160.55,483.27c0.27-1.04,0.78-2.01,1.62-2.72 M138.69,501.37
		c0.11-0.01,0.22-0.02,0.33-0.02c0.55-0.04,1.09-0.1,1.61-0.18s1.02-0.17,1.51-0.27c0.48-0.11,0.95-0.23,1.41-0.36
		c0.46-0.13,0.9-0.28,1.33-0.44c0.42-0.16,0.84-0.32,1.22-0.49c0.19-0.09,0.39-0.17,0.57-0.26c0.18-0.09,0.35-0.17,0.51-0.25
		c0.15-0.08,0.31-0.16,0.41-0.21c0.05-0.02,0.08-0.05,0.1-0.05 M167.14,536.47c-0.13,0.69-0.35,1.36-0.69,1.98 M58.63,573.48
		c0.13-0.11,0.25-0.24,0.36-0.38c0.14-0.17,0.26-0.35,0.38-0.53c0.28-0.43,0.53-0.88,0.78-1.33c0.53-0.99,1.03-2,1.54-3
		c0.51-0.99,1.03-1.96,1.6-2.91c0.55-0.92,1.14-1.81,1.79-2.66c0.65-0.85,1.35-1.65,2.11-2.39c0.38-0.37,0.77-0.72,1.17-1.05
		c0.4-0.34,0.8-0.67,1.2-1.01c1.6-1.34,3.21-2.69,4.81-4.03c6.44-5.4,12.89-10.81,19.34-16.21c12.89-10.81,25.78-21.62,38.67-32.43
		 M156,509.6c0.05-0.04,0.1-0.09,0.15-0.13c0.28-0.25,0.56-0.53,0.82-0.83c0.27-0.3,0.52-0.62,0.77-0.96
		c0.25-0.34,0.5-0.71,0.73-1.09c0.23-0.38,0.46-0.79,0.65-1.2c0.1-0.21,0.2-0.43,0.29-0.66c0.09-0.22,0.17-0.46,0.22-0.69
		c0.06-0.23,0.11-0.5,0.09-0.75c-0.01-0.25-0.08-0.55-0.35-0.75c-0.27-0.21-0.65-0.27-1-0.3c-0.34-0.02-0.7,0-1.02,0.02
		c-0.32,0.03-0.65,0.07-0.96,0.11c-0.31,0.04-0.63,0.09-0.94,0.15c-0.6,0.1-1.21,0.21-1.79,0.32c-0.58,0.11-1.16,0.21-1.72,0.32
		c-0.56,0.1-1.11,0.2-1.64,0.29c-0.53,0.09-1.05,0.18-1.55,0.26c-0.5,0.08-0.99,0.16-1.44,0.23c-0.46,0.07-0.89,0.14-1.29,0.21
		 M164.63,518.97c-0.2,0.17-0.4,0.35-0.58,0.53c-0.27,0.27-0.51,0.56-0.73,0.87c-0.21,0.31-0.4,0.64-0.55,0.99 M81.23,602.76
		c-0.09,0.07-0.16,0.18-0.06,0.28c0.08,0.07,0.2,0.11,0.3,0.14c0.22,0.05,0.43,0.07,0.65,0.08c0.44,0.02,0.88-0.01,1.32-0.06
		 M137.96,501.4c0.25-0.01,0.49-0.02,0.73-0.04 M92.57,599.32c-1.82,0.81-3.7,1.38-5.64,1.85c-0.96,0.24-1.93,0.45-2.89,0.67
		c-0.48,0.11-0.96,0.23-1.44,0.36c-0.29,0.08-0.58,0.17-0.86,0.28c-0.1,0.04-0.21,0.09-0.31,0.14c-0.07,0.04-0.14,0.08-0.21,0.13
		 M147.67,498.82L147.67,498.82 M132.39,505.55c1.64-1.38,3.28-2.75,4.92-4.13 M146.04,504.13c-15.02,12.59-30.03,25.18-45.05,37.77
		c-7.51,6.3-15.02,12.59-22.52,18.89c-0.44,0.37-0.89,0.74-1.33,1.11c-0.45,0.38-0.89,0.76-1.32,1.16c-0.9,0.82-1.75,1.69-2.56,2.6
		c-0.83,0.95-1.59,1.93-2.26,3c-0.66,1.06-1.24,2.22-1.6,3.43c-0.33,1.13-0.51,2.48-0.13,3.66c0.38,1.2,1.27,1.98,2.55,2.09
		c1.21,0.1,2.48-0.41,3.48-0.97c1.08-0.6,2.14-1.41,3.09-2.2 M154.31,510.6c3.21,3.16,6.16,6.88,8.47,10.76 M162.77,521.36
		c-12.92,10.84-25.85,21.67-38.77,32.51c-6.46,5.42-12.92,10.84-19.38,16.25c-3.23,2.71-6.46,5.42-9.69,8.13
		c-0.76,0.64-1.52,1.29-2.31,1.9c-0.82,0.64-1.66,1.26-2.51,1.86c-0.88,0.63-1.77,1.24-2.65,1.87c-0.89,0.64-1.78,1.29-2.62,1.99
		 M166.71,530.4c0.48,1.88,0.8,4.1,0.42,6.07 M78.39,574.67c1.53-1.28,3.28-2.98,4.76-4.32c0.75-0.68,1.51-1.35,2.28-2
		c0.76-0.63,1.51-1.27,2.27-1.9c3.17-2.66,6.34-5.32,9.52-7.98c6.34-5.32,12.69-10.64,19.03-15.96
		c12.69-10.64,25.37-21.28,38.06-31.92 M84.84,585.87c-0.92,0.77-1.9,1.71-2.57,2.74c-0.59,0.91-1.06,2.13-0.53,3.25
		c0.52,1.11,1.78,1.59,2.86,1.75c1.21,0.19,2.51,0.04,3.68-0.24c2.37-0.56,4.71-1.76,6.7-3.08c0.99-0.65,1.92-1.36,2.83-2.12
		c0.88-0.74,1.77-1.48,2.65-2.22c7.36-6.17,14.72-12.35,22.08-18.52c14.72-12.34,29.45-24.69,44.17-37.03 M316.46,374.99
		c0.43-0.37,0.88-0.75,1.34-1.12 M322.27,370.43L322.27,370.43 M316.46,374.99c-0.55,0.48-1.09,0.94-1.61,1.39
		c-1.14,0.98-2.28,1.94-3.39,2.86c-0.99,0.82-1.96,1.61-2.95,2.4c-1.09,0.87-2.09,1.64-3.19,2.47c-0.59,0.45-1.17,0.88-1.74,1.3
		c-2.49,1.84-5.69,4.12-8.37,6.01 M179.86,475.4c0.44,0.15,0.86,0.33,1.29,0.52 M160.55,483.27c-0.33,1.28-0.84,2.69-1.54,4.12
		c-0.79,1.62-1.82,3.23-3.06,4.75c-1.19,1.46-2.55,2.79-4.05,3.97c-0.37,0.29-0.76,0.58-1.15,0.85c-0.39,0.27-0.79,0.53-1.19,0.78
		c-0.4,0.25-0.81,0.49-1.22,0.71c-0.22,0.12-0.45,0.24-0.67,0.36 M302.81,400.66c0.02-0.02,0.04-0.04,0.07-0.06 M326.7,379.26
		L326.7,379.26 M302.88,400.6c2.14-2.08,4.47-4.32,6.68-6.4c1.33-1.25,2.62-2.45,3.97-3.68c1.23-1.12,2.44-2.2,3.69-3.3
		c1.11-0.97,2.21-1.92,3.33-2.87c0.1-0.08,0.19-0.17,0.29-0.25 M320.85,384.1c1.28-1.08,2.56-2.15,3.84-3.2
		c0.66-0.54,1.32-1.08,2-1.63 M295.12,391.48l-106.64,89.42 M323.74,369.57l0.68-0.4 M331.22,375.22c-0.34,0.32-0.67,0.64-1.01,0.96
		c-0.85,0.79-1.74,1.6-2.61,2.34c-0.22,0.19-0.46,0.39-0.71,0.6 M326.7,379.26c-0.01,0.01-0.01,0.01-0.02,0.02 M326.88,379.12
		c-0.06,0.05-0.12,0.1-0.18,0.14 M196.17,490.08c1.51,2.42,2.93,5.28,3.64,8.09 M317.8,373.87c0.56-0.46,1.13-0.91,1.67-1.34
		c0.93-0.72,1.86-1.42,2.8-2.1 M196.17,490.08l106.64-89.42 M295.19,391.42c-0.03,0.02-0.05,0.04-0.08,0.06 M332.02,374.35
		L332.02,374.35 M188.47,480.9c2.92,2.63,5.61,5.84,7.69,9.18 M178.4,474.69c2.64,1.18,5.2,2.96,7.4,4.79
		c2.24,1.88,4.35,4.02,6.23,6.26c1.88,2.24,3.62,4.69,5.07,7.23c1.42,2.48,2.73,5.32,3.43,8.12 M162.17,480.55
		c0.76-0.64,1.67-0.97,2.64-1.09c1.29-0.16,2.62,0.04,3.84,0.39c1.02,0.29,1.99,0.67,2.95,1.12c1.1,0.52,2.14,1.12,3.16,1.78
		c3.72,2.4,7.2,5.7,10.03,9.07c2.82,3.37,5.46,7.37,7.18,11.45c0.47,1.12,0.88,2.25,1.2,3.42c0.28,1.02,0.49,2.04,0.59,3.1
		c0.12,1.27,0.09,2.61-0.29,3.85c-0.29,0.93-0.77,1.77-1.53,2.41 M138.69,501.37c-0.33,0.02-0.65,0.03-0.96,0.04 M137.74,501.4
		c2.85-0.04,5.98,1.37,8.3,2.72 M323.17,369.9c0.19-0.11,0.38-0.22,0.57-0.33 M332.33,373.98c-0.25,0.3-0.51,0.6-0.76,0.9
		l18.41,9.22 M322.27,370.43c0.3-0.18,0.6-0.35,0.9-0.53 M331.56,374.89c-0.11,0.11-0.23,0.22-0.34,0.33 M132.98,503.99
		c-12.41,10.41-24.82,20.81-37.23,31.22c-6.2,5.2-12.41,10.41-18.61,15.61l-9.31,7.8c-0.78,0.65-1.56,1.31-2.34,1.96
		c-0.39,0.33-0.78,0.65-1.17,0.98c-0.46,0.38-0.71,0.6-1.15,1c-1.46,1.37-2.73,2.99-3.7,4.75"/>
	<path class="st0" d="M1150.18,530.91c0.15,0.05,0.26,0.16,0.25,0.33 M1150.43,531.24c-0.01,0.19-0.17,0.37-0.31,0.48
		c-0.15,0.12-0.33,0.22-0.51,0.28c-0.18,0.06-0.38,0.1-0.57,0.07c-0.09-0.01-0.19-0.04-0.27-0.1c-0.08-0.06-0.12-0.15-0.11-0.26
		 M1148.67,531.7c0.01-0.16,0.12-0.3,0.22-0.4c0.11-0.11,0.24-0.2,0.38-0.26c0.25-0.12,0.62-0.22,0.91-0.13"/>
	<path class="st0" d="M944.72,369.42c5.27-0.03,6.97,4.43,6.97,12.91 M888.85,400.79c0.29,0.35,0.29,0.84,0.19,1.24
		c-0.1,0.42-0.33,0.81-0.6,1.14c-0.28,0.32-0.64,0.6-1.04,0.76c-0.39,0.15-0.87,0.2-1.24-0.08 M915.63,379.27
		c-0.4,0.03-0.79,0.06-1.19,0.09 M895.28,368.71c0.06-0.04,0.11-0.07,0.17-0.11c21.22-14.25,27.23-28.53,30.1-34.79 M941.42,351.41
		c-8.59,9.29-17.19,18.58-25.79,27.86 M914.89,378.75c0.26,0.17,0.45,0.31,0.58,0.4c0.11,0.08,0.16,0.12,0.16,0.12 M904.2,379.12
		c1.66-0.77,3.48-1.33,5.33-1.46c1.84-0.13,3.72,0.16,5.36,1.09 M903.74,379.4c1.58-0.73,3.3-1.26,5.06-1.39
		c1.75-0.13,3.53,0.15,5.09,1.03 M895.46,372.57l8.28,6.83 M896.65,369.04c-0.06-0.05-0.11-0.09-0.17-0.13
		c-0.06-0.04-0.11-0.08-0.17-0.11c-0.06-0.03-0.11-0.06-0.17-0.09c-0.06-0.03-0.11-0.05-0.17-0.07c-0.06-0.02-0.11-0.03-0.17-0.04
		c-0.05-0.01-0.11-0.01-0.16-0.01c-0.05,0-0.1,0.01-0.15,0.02c-0.05,0.01-0.1,0.03-0.14,0.05c-0.03,0.01-0.05,0.03-0.07,0.04
		 M896.65,369.04l5.28,4.35 M1045.45,187.51c-0.17,0.04-0.32,0.09-0.47,0.18 M946.29,393.7c-1.14-0.2-2.31-0.32-3.53-0.36
		c-2.82-0.09-5.85,0.26-8.99,1.03c-3.32,0.82-6.75,2.11-10.16,3.74c-3.77,1.8-7.52,4.01-11.19,6.48c-0.06,0.04-0.11,0.07-0.17,0.11
		 M917.43,390.78C917.43,390.78,917.43,390.78,917.43,390.78 M911.91,403.71c0.04,0.06,0.07,0.11,0.1,0.17
		c0.03,0.06,0.06,0.11,0.09,0.16c0.03,0.05,0.05,0.1,0.08,0.15c0.02,0.05,0.04,0.09,0.06,0.14c0.02,0.04,0.03,0.08,0.04,0.12
		c0.01,0.04,0.02,0.07,0.02,0.1c0,0.03,0,0.06,0,0.08c0,0.02-0.01,0.04-0.03,0.05c-0.01,0.01-0.01,0.01-0.02,0.02 M909.53,402.76
		c3.04-2.37,5.57-5.68,6.99-9.28 M916.53,393.48c0.83-2.1,1.33-4.46,1.16-6.76s-1.06-4.54-2.97-6.01c-1.9-1.46-4.31-1.76-6.57-1.41
		c-2.27,0.35-4.46,1.35-6.34,2.62 M917.43,390.78c0.46-1.82,0.66-3.78,0.37-5.66c-0.29-1.88-1.06-3.68-2.48-5.02 M916.67,393.11
		l-0.15,0.37 M914.95,379.77c-0.33-0.27-0.68-0.52-1.06-0.73 M901.8,381.92c-2.77,1.86-5.15,4.46-6.82,7.34
		c-1.63,2.8-2.79,6.28-2.51,9.63c0.14,1.67,0.65,3.32,1.7,4.68c1.06,1.37,2.52,2.24,4.2,2.61c1.66,0.36,3.39,0.21,5-0.22
		c1.62-0.44,3.18-1.17,4.59-2.07 M901.11,380.89c-3.84,2.58-7.06,6.57-8.72,10.9c-0.83,2.16-1.33,4.58-1.15,6.93
		c0.18,2.35,1.05,4.66,2.95,6.22 M951.69,382.33c-0.27,5.14-0.24,14.35-3.94,13.5c-0.69-0.16-1.39-0.7-1.46-2.13 M1045.45,187.51
		c1.03-0.53,2.13-0.9,3.27-1.11c1.38-0.25,2.79-0.26,4.17-0.02c0.17,0.03,0.34,0.06,0.5,0.1c0.18,0.04,0.36,0.08,0.53,0.13
		c0.18,0.05,0.36,0.1,0.54,0.16c1.45,0.46,2.79,1.19,3.97,2.16c0.66,0.55,1.27,1.17,1.8,1.84c0.74,0.94,1.33,1.99,1.76,3.11
		c0.27,0.72,0.48,1.46,0.61,2.22c0.25,1.46,0.23,2.95-0.07,4.4c-0.14,0.68-0.34,1.34-0.59,1.98c-0.13,0.32-0.27,0.64-0.43,0.95
		c-0.09,0.17-0.18,0.34-0.27,0.51c-0.96,1.71-2.33,3.15-3.98,4.21c-0.04,0.03-0.09,0.05-0.13,0.08 M886.77,393.34
		c-0.01-0.01-0.02-0.02-0.03-0.02c-0.1-0.06-0.24-0.1-0.42-0.09c-0.18,0.01-0.39,0.06-0.62,0.14c-0.23,0.09-0.47,0.21-0.71,0.35
		c-0.24,0.15-0.47,0.31-0.67,0.49c-0.28,0.24-0.51,0.49-0.67,0.73 M895.18,373.18l5.39,4.45 M900.57,377.63
		c-0.01,1.08-0.03,2.15-0.04,3.23 M879.39,396.78l4.08-1.52 M851.59,407.13c3.33-3.51,6.89-6.7,10.7-9.66
		c1.9-1.48,3.85-2.88,5.85-4.22c1.01-0.67,2.02-1.33,3.05-1.97c1.01-0.63,2.04-1.25,3.07-1.86c8.31-4.85,17.22-8.7,26.3-11.79
		 M506.79,523.89c0.13-0.07,0.29-0.02,0.41,0.05 M506.79,523.89l0.2-0.12 M884.64,402.6L574.98,581.38 M884.66,401.42L575.09,580.15
		 M511.28,513.2l309.66-178.78 M574.91,580.14c0.05,0.03,0.11,0.05,0.17,0.02 M511.63,513.02c-1.78,0.91-3.03,2.42-3.83,4.2
		c-0.79,1.76-1.14,3.73-1.2,5.63 M886.13,403.81c-0.04-0.04-0.09-0.08-0.12-0.12 M886.19,403.87c-0.07-0.05-0.13-0.11-0.19-0.17
		 M888.85,400.79c0.09,0.16,0.05,0.46-0.13,0.84c-0.09,0.19-0.22,0.4-0.38,0.62c-0.16,0.22-0.34,0.43-0.54,0.63
		c-0.2,0.2-0.4,0.38-0.6,0.53c-0.2,0.15-0.38,0.26-0.55,0.33c-0.33,0.14-0.56,0.12-0.65-0.04 M910.25,409.71
		c-0.88-1.87-1.77-3.74-2.65-5.61 M915.32,380.1c7.68-2.56,15.36-5.11,23.05-7.65 M938.37,372.45c0.68-0.22,1.35-0.45,2.03-0.67
		 M947.2,393.87c-0.3-0.06-0.6-0.12-0.91-0.18 M887.07,393.92c-0.07,2.32,0.45,4.77,2,6.64 M913.94,379.07
		c0.17,0.1,0.3,0.17,0.38,0.22c0.07,0.04,0.11,0.06,0.11,0.06 M910.55,401.91l0.79,0.89 M916.6,393.29
		c0.02-0.06,0.05-0.12,0.07-0.18 M916.67,393.11c0.3-0.76,0.55-1.53,0.76-2.32 M909.53,402.76l1.67,1.38 M903.74,379.4
		c-0.92,0.43-1.79,0.93-2.63,1.49 M915.32,380.1c-0.12-0.11-0.24-0.22-0.37-0.33 M895.46,372.57c-0.21,0.1-0.43,0.2-0.64,0.31
		 M914.44,379.36l0.5,0.42 M938.37,372.45c0.07-0.16,0.15-0.33,0.25-0.48c0.27-0.46,0.61-0.87,1.05-1.23
		c0.44-0.36,0.95-0.64,1.51-0.86c0.55-0.21,1.1-0.35,1.71-0.43c0.6-0.07,1.22-0.08,1.84-0.03c1.22,0.09,2.46,0.37,3.61,0.71
		c1.42,0.41,2.86,0.97,4.24,1.56 M904.12,377.88c0-0.08-0.01-0.16-0.02-0.24c-0.01-0.09-0.02-0.17-0.04-0.26
		c-0.02-0.09-0.03-0.19-0.05-0.28c-0.02-0.1-0.04-0.19-0.07-0.29c-0.03-0.1-0.06-0.2-0.09-0.3c-0.03-0.1-0.07-0.21-0.11-0.31
		c-0.04-0.11-0.08-0.21-0.12-0.32c-0.04-0.11-0.09-0.21-0.14-0.31c-0.05-0.1-0.1-0.21-0.15-0.31c-0.05-0.1-0.11-0.2-0.16-0.3
		c-0.06-0.1-0.11-0.19-0.17-0.28c-0.06-0.09-0.12-0.18-0.18-0.27c-0.06-0.08-0.12-0.17-0.18-0.25c-0.06-0.08-0.12-0.15-0.18-0.22
		c-0.06-0.07-0.12-0.14-0.18-0.2c-0.06-0.06-0.12-0.12-0.18-0.17c-0.06-0.05-0.11-0.1-0.17-0.15 M1056.73,208.55
		c-5.79,3.26-11.53,6.87-17.18,10.8c-5.8,4.03-11.5,8.4-17.05,13.06c-5.65,4.75-11.14,9.81-16.43,15.13
		c-5.33,5.37-10.46,11.01-15.33,16.86c-4.87,5.86-9.48,11.93-13.78,18.16c-4.27,6.18-8.24,12.51-11.89,18.95
		c-3.58,6.32-6.84,12.74-9.76,19.2c-4.41,9.76-8.02,19.6-10.77,29.33 M899.6,375.98c-0.21,0.1-0.43,0.2-0.64,0.31 M924.49,333.81
		c0.04-0.13,0.1-0.26,0.17-0.38c4.17-7.16,8.56,11.24,17.03,18.22 M895.28,368.71c-0.02,0.01-0.04,0.02-0.05,0.04
		c-0.04,0.03-0.08,0.07-0.11,0.11c-0.03,0.04-0.06,0.09-0.09,0.14c-0.03,0.05-0.05,0.1-0.08,0.16c-0.02,0.06-0.04,0.12-0.06,0.18
		c-0.02,0.06-0.03,0.13-0.04,0.2c-0.01,0.07-0.02,0.14-0.02,0.22c0,0.07-0.01,0.15-0.01,0.23c0,0.08,0,0.15,0.01,0.23 M903.74,379.4
		l0.46-0.28 M894.91,371.46l0.55,1.11 M894.83,370.22l0.08,1.24 M904.12,377.88c0.03,0.41,0.05,0.83,0.08,1.24 M941.65,351.61
		l-0.24-0.2 M924.49,333.81c-0.04,0.11-0.06,0.23-0.08,0.35c-0.06,0.47,0.02,1.01,0.24,1.61 M944.54,350.05
		c-0.01,0.03-0.02,0.06-0.03,0.09c-0.16,0.55-0.35,0.97-0.59,1.31c-0.19,0.26-0.4,0.47-0.63,0.59c-0.23,0.12-0.47,0.15-0.71,0.1
		c-0.3-0.06-0.59-0.25-0.89-0.49 M1056.73,208.55c0.15-0.08,0.28-0.18,0.39-0.31 M924.49,333.81c2.56-7.68,5.56-15.35,9-22.95
		c3.22-7.13,6.81-14.19,10.75-21.14c4-7.06,8.35-14,13.03-20.76c4.71-6.82,9.75-13.45,15.07-19.85c5.32-6.4,10.92-12.56,16.76-18.44
		c5.79-5.83,11.81-11.37,18.01-16.58c6.1-5.13,12.38-9.94,18.79-14.4c6.26-4.35,12.64-8.36,19.1-12 M911.91,403.71
		c-0.19-0.3-0.38-0.61-0.57-0.91 M912.24,404.7c-0.01,0.01-0.02,0.01-0.03,0.01c-0.02,0.01-0.04,0.01-0.07,0s-0.06-0.01-0.09-0.02
		c-0.03-0.01-0.07-0.03-0.11-0.04c-0.04-0.02-0.08-0.04-0.13-0.07c-0.04-0.03-0.09-0.05-0.14-0.09c-0.05-0.03-0.1-0.07-0.15-0.11
		c-0.05-0.04-0.1-0.08-0.16-0.12c-0.05-0.04-0.11-0.09-0.16-0.13 M918.62,391.11c0.08-0.4,0.11-0.84,0.07-1.29
		c-0.04-0.47-0.15-0.95-0.31-1.4c-0.12-0.35-0.28-0.68-0.46-0.97 M911.34,402.8c3.37-3.04,6.14-7.23,7.28-11.69 M1088.52,338.12
		L1088.52,338.12c1.22-0.96,2.62-1.67,4.11-2.1c1.64-0.47,3.36-0.58,5.05-0.33c0.94,0.14,1.86,0.39,2.74,0.75
		c0.82,0.33,1.6,0.75,2.32,1.26c0.66,0.46,1.27,0.98,1.83,1.56c0.53,0.55,1,1.15,1.41,1.79c0.45,0.69,0.82,1.43,1.11,2.19
		c0.29,0.74,0.5,1.52,0.63,2.3c0.17,1.02,0.21,2.06,0.12,3.08c-0.16,1.7-0.67,3.34-1.52,4.83c-0.56,0.98-1.25,1.88-2.06,2.66
		c-0.3,0.29-0.62,0.57-0.95,0.83 M851.59,407.13c0.76-3.47,1.8-6.79,3.23-10.05c1.42-3.24,3.18-6.28,5.3-9.11
		c4.29-5.73,9.76-10.17,15.98-13.58 M851.59,407.13l27.79-10.35 M884.75,401.37l-0.09,0.05 M876.11,374.39
		c4.33-2.38,8.96-4.22,13.68-5.66 M907.6,404.11c0,0,0.01-0.01,0.01-0.01 M888.98,400.65l-3.08-2.54 M879.39,396.78
		c0.31,0.28,0.64,0.53,1.01,0.75 M888.98,400.65l0.09-0.09 M883.64,394.95c0.49,1.23,1.24,2.32,2.27,3.16 M883.64,394.95
		c-0.07,0.11-0.13,0.21-0.18,0.31 M894.82,372.88l-5.03-4.15 M907.95,403.88c0.55-0.35,1.07-0.72,1.58-1.12 M907.95,403.88
		l-0.34,0.22 M894.19,404.94c1.92,1.59,4.4,1.99,6.76,1.7c2.37-0.29,4.67-1.28,6.65-2.54 M894.19,404.94l-3.63-2.99 M1103.32,356.95
		c-6.07,4.77-12.3,9.23-18.63,13.33c-6.5,4.21-13.12,8.06-19.8,11.5c-6.81,3.51-13.68,6.6-20.57,9.25
		c-6.96,2.68-13.94,4.9-20.87,6.64c-6.95,1.75-13.86,3.02-20.68,3.79c-6.78,0.77-13.46,1.04-19.99,0.81
		c-6.44-0.23-12.74-0.94-18.83-2.15c-10.15-2.01-13.01-3.78-16.21-4.28 M952.72,371.75c0.95,0.41,1.92,0.8,2.89,1.17
		c4.12,1.56,8.46,2.8,13,3.71c4.79,0.95,9.8,1.53,15,1.71c5.31,0.19,10.81-0.04,16.46-0.67c5.71-0.65,11.57-1.72,17.53-3.22
		c5.97-1.5,12.03-3.43,18.12-5.77c6.05-2.33,12.13-5.06,18.19-8.18c5.96-3.07,11.9-6.52,17.75-10.31
		c5.71-3.7,11.35-7.74,16.86-12.06 M1088.52,338.12C1088.52,338.12,1088.52,338.11,1088.52,338.12 M895.18,373.18l-0.36-0.3
		 M886.81,394.02c-0.06-0.29-0.17-0.55-0.32-0.78 M886.81,394.02l0.27-0.1 M886.81,394.02c0.13-0.3,0.12-0.54-0.04-0.68
		 M900.53,380.85c-2.72,1.52-5.39,3.46-7.68,5.59c-2.15,1.99-4.56,4.72-5.78,7.48 M886.81,394.02c0.01-0.26-0.04-0.54-0.2-0.76
		 M884.66,401.42c0.09,0.09,0.16,0.23,0.16,0.36 M551,530.71l-28.37-16.38 M567.04,558.49c0-2.76-0.53-5.58-1.34-8.19
		c-0.82-2.64-1.97-5.22-3.35-7.61c-1.38-2.39-3.04-4.68-4.92-6.71c-1.86-2.01-4.04-3.88-6.42-5.26 M575.16,579.57
		c0-0.39-0.28-0.87-0.62-1.07 M575.08,580.16C575.09,580.15,575.09,580.15,575.08,580.16 M538.43,497.53
		c1.8-1.04,3.84-1.24,5.83-0.93c1.11,0.17,2.16,0.49,3.19,0.91c0.54,0.22,1.06,0.46,1.57,0.73c0.55,0.29,1.08,0.6,1.61,0.91
		c3.73,2.15,7.46,4.31,11.2,6.46c3.73,2.15,7.46,4.31,11.2,6.46c0.92,0.53,1.83,1.06,2.75,1.59c0.46,0.26,0.92,0.53,1.37,0.79
		c0.45,0.26,0.9,0.51,1.34,0.78c1.89,1.13,3.61,2.55,5.16,4.1c3.02,3.02,5.54,6.72,7.35,10.57c0.99,2.1,1.8,4.32,2.36,6.57
		c0.47,1.91,0.78,3.89,0.82,5.86c0.01,0.53,0,1.05,0,1.58v1.62v3.24v3.24v1.62c0,0.64-0.02,0.97,0.1,1.61
		c0.16,0.88,0.5,1.76,0.95,2.55 M595.23,557.82c0.15,0.26,0.31,0.52,0.48,0.76c0.34,0.49,0.73,0.93,1.17,1.33
		c0.19,0.17,0.39,0.33,0.6,0.48c0.19,0.14,0.4,0.25,0.6,0.37c0.85,0.49,1.71,0.99,2.56,1.48c0.21,0.12,0.43,0.25,0.64,0.37
		c0.11,0.06,0.21,0.12,0.32,0.19c0.13,0.07,0.2,0.12,0.3,0.23c0.2,0.21,0.35,0.5,0.38,0.79c0.01,0.07,0,0.3,0,0.36v0.09
		c0,0.03,0,0.06,0,0.09c-0.01,0.05-0.02,0.1-0.07,0.12 M602.14,564.53c0.07,0.07,0.13,0.18,0.15,0.28c0.01,0.05,0.01,0.11,0.01,0.16
		v0.16c0,0.11,0.01,0.21-0.01,0.32c-0.02,0.1-0.07,0.21-0.17,0.26 M506.79,523.89c0,0-0.01,0-0.01,0.01 M506.99,523.77
		c0.06,0.06,0.12,0.11,0.19,0.15 M575.09,580.15c0.05-0.03,0.07-0.1,0.07-0.16 M522.03,514c-1.58-0.84-3.32-1.5-5.11-1.75
		c-1.8-0.25-3.63-0.07-5.29,0.77 M574.98,581.38c0.14-0.08,0.18-0.26,0.18-0.4 M820.94,334.42c1.78-1.03,3.8-1.23,5.78-0.94
		c1.96,0.29,3.87,1.08,5.56,2.06 M506.6,522.85c0,0.02,0,0.04,0,0.05 M506.6,524.29c0-0.14,0.04-0.31,0.18-0.39 M574.54,581.34
		c0.12,0.07,0.29,0.12,0.44,0.04 M884.82,402.2c0,0.14-0.04,0.32-0.18,0.4 M884.82,401.78v0.42 M884.82,401.21
		c0,0.06-0.02,0.13-0.07,0.16 M884.82,400.79v0.42 M884.2,399.72c0.34,0.2,0.62,0.68,0.62,1.07 M880.4,397.53l3.8,2.2
		 M860.66,351.93c3.98,2.3,7.41,5.96,9.92,9.7c2.56,3.8,4.57,8.26,5.53,12.76 M832.28,335.55l28.37,16.38 M506.6,524.34
		c0.18,5.33,2.22,10.88,4.87,15.38c1.37,2.33,3.01,4.55,4.85,6.52c1.83,1.96,3.96,3.78,6.3,5.12 M506.6,524.29c0,0.02,0,0.04,0,0.05
		 M506.6,522.9c0,0.31,0.18,0.66,0.39,0.87 M522.63,514.33c-0.2-0.11-0.4-0.23-0.6-0.33 M567.04,569.9v-11.41 M570.74,576.31
		c-2.04-1.18-3.7-4.05-3.7-6.41 M574.54,578.5l-3.8-2.2 M575.16,579.99v-0.42 M575.16,580.56c0-0.16-0.11-0.34-0.24-0.42
		 M575.16,580.98v-0.42 M522.63,551.37l51.92,29.98 M888.85,400.79l0.14-0.14 M888.85,400.79c0.35,0.37,0.56,0.87,0.57,1.42
		c0,0.27-0.04,0.55-0.15,0.81c-0.1,0.26-0.26,0.5-0.45,0.7c-0.2,0.2-0.43,0.36-0.68,0.46c-0.25,0.1-0.52,0.15-0.78,0.14
		c-0.43-0.02-0.84-0.18-1.16-0.44 M858.91,431.41l27.09-27.72 M858.91,431.41c9.97,2.74,19.51,1.38,28.62-3.18
		c8.73-4.37,16.38-11.35,22.71-18.52 M595.26,557.87l269.75-155.74 M589.48,527.01L872,363.9"/>
</g>
</svg>
