<?xml version="1.0" encoding="utf-8"?>
<!-- Generator: Adobe Illustrator 26.3.1, SVG Export Plug-In . SVG Version: 6.00 Build 0)  -->
<svg version="1.1" id="Livello_1" xmlns="http://www.w3.org/2000/svg" xmlns:xlink="http://www.w3.org/1999/xlink" x="0px" y="0px"
	 viewBox="0 0 1199.83 607" style="enable-background:new 0 0 1199.83 607;" xml:space="preserve">
<style type="text/css">
	.st0{fill:none;stroke:#000000;stroke-width:0.75;stroke-miterlimit:10;}
	.st1{fill:none;stroke:#000000;stroke-width:0.75;stroke-linejoin:round;stroke-miterlimit:10;}
	.st2{fill:none;stroke:#000000;stroke-width:0.75;stroke-linecap:round;stroke-linejoin:round;stroke-miterlimit:10;}
	.st3{enable-background:new    ;}
	.st4{clip-path:url(#SVGID_00000088118125696335909630000011915959297425834918_);}
	.st5{fill:none;stroke:#2D0000;stroke-width:0.75;stroke-miterlimit:10;}
	.st6{fill:none;}
</style>
<g>
	<path class="st5" d="M260.78,481.07c0.01-0.02,0-0.05,0-0.07c0-0.07,0-0.14,0-0.22c0-0.3,0-0.6,0-0.9c0-1.26,0-2.53,0-3.79
		c0-5.3,0-10.59,0-15.89c0-6.96,0-13.91,0-20.87c0-13.92,0-27.83,0-41.75c0-13.92,0-27.83,0-41.75c0-6.96,0-13.91,0-20.87
		c0-5.3,0-10.59,0-15.89c0-1.26,0-2.53,0-3.79c0-0.3,0-0.6,0-0.9c0-0.07,0-0.14,0-0.22c0-0.02,0-0.12,0-0.07"/>
	<path class="st5" d="M301.41,303.68c0.52,0,1.02,0.19,1.4,0.54c0.19,0.17,0.33,0.39,0.49,0.58c0.17,0.2,0.36,0.37,0.57,0.53
		c0.39,0.29,0.81,0.49,1.28,0.62c0.55,0.15,1.09,0.13,1.64,0.13c2.05,0,4.1,0,6.15,0c2.05,0,4.1,0,6.16,0c0.4,0,0.8,0.02,1.21-0.04
		c0.65-0.09,1.19-0.32,1.71-0.71c0.21-0.16,0.4-0.33,0.57-0.53c0.17-0.19,0.3-0.4,0.49-0.58c0.38-0.35,0.88-0.54,1.4-0.54"/>
	<line class="st5" x1="324.49" y1="303.68" x2="939.06" y2="303.68"/>
	<line class="st5" x1="939.06" y1="491.51" x2="324.49" y2="491.51"/>
	<path class="st5" d="M260.78,371.5h-10.43c-0.02,0.03,0,0.06,0,0.09c0,0.09,0,0.19,0,0.28c0,0.39,0,0.79,0,1.18
		c0,1.65,0,3.31,0,4.96c0,2.17,0,4.35,0,6.52c0,4.35,0,8.7,0,13.05c0,4.35,0,8.7,0,13.05c0,2.17,0,4.35,0,6.52c0,1.66,0,3.31,0,4.97
		c0,0.39,0,0.79,0,1.18c0,0.09,0,0.19,0,0.28c0,0.03,0.01,0.06,0,0.09h10.43"/>
	<line class="st5" x1="271.22" y1="303.68" x2="301.41" y2="303.68"/>
	<line class="st5" x1="301.41" y1="491.51" x2="271.22" y2="491.51"/>
	<path class="st5" d="M939.06,303.68c5.76,0,10.44,4.67,10.44,10.44"/>
	<path class="st5" d="M939.06,491.51c5.76,0,10.44-4.67,10.44-10.44"/>
	<path class="st5" d="M949.49,481.07c0.01-0.03,0-0.05,0-0.07c0-0.07,0-0.14,0-0.22c0-0.3,0-0.6,0-0.9c0-1.26,0-2.53,0-3.79
		c0-5.3,0-10.59,0-15.89c0-6.96,0-13.91,0-20.87c0-13.92,0-27.83,0-41.75c0-13.92,0-27.83,0-41.75c0-6.96,0-13.91,0-20.87
		c0-5.3,0-10.59,0-15.89c0-1.26,0-2.53,0-3.79c0-0.3,0-0.6,0-0.9c0-0.07,0-0.14,0-0.22c0-0.02,0-0.04,0-0.05c0,0,0.01-0.01,0-0.02"
		/>
	<path class="st5" d="M271.22,303.68c-5.76,0-10.44,4.67-10.44,10.44"/>
	<path class="st5" d="M271.22,491.51c-5.76,0-10.44-4.67-10.44-10.44"/>
	<path class="st5" d="M324.49,491.51c-0.52,0-1.02-0.19-1.4-0.54c-0.19-0.17-0.33-0.39-0.49-0.58c-0.17-0.2-0.36-0.37-0.57-0.53
		c-0.52-0.39-1.06-0.61-1.71-0.7c-0.4-0.06-0.8-0.04-1.21-0.04c-2.05,0-4.1,0-6.15,0c-2.05,0-4.1,0-6.15,0
		c-0.55,0-1.09-0.02-1.64,0.13c-0.47,0.13-0.89,0.33-1.28,0.62c-0.21,0.16-0.4,0.33-0.57,0.53c-0.17,0.19-0.3,0.4-0.49,0.58
		c-0.38,0.35-0.88,0.54-1.4,0.54"/>
	<path class="st5" d="M324.49,491.51c-0.02-0.01,0-0.07,0-0.07c0-0.09,0-0.18,0-0.26c0-0.34,0-0.67,0-1.01c0-1.42,0-2.84,0-4.26
		c0-5.96,0-11.92,0-17.88c0-7.83,0-15.65,0-23.48c0-15.66,0-31.31,0-46.97s0-31.31,0-46.97c0-7.83,0-15.65,0-23.48
		c0-5.96,0-11.91,0-17.87c0-1.42,0-2.84,0-4.26c0-0.34,0-0.67,0-1.01c0-0.08,0-0.16,0-0.24c0-0.02,0-0.04,0-0.06
		c0-0.01,0.01-0.03,0.01-0.03"/>
	<path class="st5" d="M301.41,491.51c0-31.31,0-62.61,0-93.91c0-15.66,0-31.31,0-46.97c0-7.83,0-15.65,0-23.48
		c0-5.96,0-11.91,0-17.87c0-1.42,0-2.84,0-4.26c0-0.34,0-0.67,0-1.01c0-0.08,0-0.16,0-0.24c0-0.02,0-0.04,0-0.06
		c0-0.01,0.01-0.03,0-0.02"/>
	<path class="st5" d="M271.22,491.51c0.01-0.11,0-0.22,0-0.32c0-0.34,0-0.67,0-1.01c0-1.42,0-2.84,0-4.26c0-5.96,0-11.92,0-17.88
		c0-7.82,0-15.65,0-23.48c0-15.66,0-31.31,0-46.97s0-31.31,0-46.97c0-7.83,0-15.65,0-23.48c0-5.96,0-11.91,0-17.87
		c0-1.42,0-2.84,0-4.26c0-0.34,0-0.67,0-1.01c0-0.08,0-0.16,0-0.24c0-0.02,0-0.04,0-0.06c0-0.01,0.01-0.03,0-0.02"/>
	<path class="st5" d="M939.06,491.51c0.01,0,0-0.01,0-0.01c0-0.03,0-0.05,0-0.07c0-0.08,0-0.16,0-0.24c0-0.34,0-0.67,0-1.01
		c0-1.42,0-2.84,0-4.26c0-5.96,0-11.92,0-17.88c0-7.83,0-15.65,0-23.48c0-15.66,0-31.31,0-46.97c0-15.66,0-31.31,0-46.97
		c0-7.83,0-15.65,0-23.48c0-5.96,0-11.91,0-17.87c0-1.42,0-2.84,0-4.26c0-0.34,0-0.67,0-1.01c0-0.08,0-0.16,0-0.24
		c0-0.01,0.02-0.07,0-0.08"/>
</g>
<g>
	<rect x="317.44" y="376.79" class="st6" width="564.96" height="41.61"/>
	<path d="M368.86,416.81v-4.98h7.5v-25.02h-2.52v2.52h-2.52v2.46h-2.46v-7.5h2.46v-2.46h2.52v-2.52h2.52v-2.52h4.98v35.04h7.5v4.98
		H368.86z"/>
	<path d="M413.8,391.79v10.02h2.52v4.98h-4.98v10.02h-5.04v-10.02h-2.46v10.02h-5.04v-10.02h-2.46v-4.98h4.98v-10.02h-2.52v-4.98
		h5.04v-10.02h4.98v10.02h2.52v-10.02h4.98v10.02h2.52v4.98H413.8z M408.82,391.79h-2.52v10.02h2.52V391.79z"/>
	<path d="M496.24,411.83v2.46h-2.46v2.52h-10.02v-2.52h-2.52v-2.46h-2.46v-5.04h4.98v2.52h2.52v2.52h4.98v-2.52h2.52v-7.5h-2.52
		v-2.52h-4.98v-4.98h4.98v-2.52h2.52v-7.5h-2.52v-2.46h-4.98v2.46h-2.52v2.52h-4.98v-4.98h2.46v-2.52h2.52v-2.52h10.02v2.52h2.46
		v2.52h2.52v12.48h-2.52v4.98h2.52v12.54H496.24z"/>
	<path d="M511.24,416.81v-7.5h7.5v7.5H511.24z"/>
	<path d="M551.2,411.83v2.46h-2.46v2.52h-10.02v-2.52h-2.52v-2.46h-2.46v-5.04h4.98v2.52h2.52v2.52h4.98v-2.52h2.52v-7.5h-2.52
		v-2.52h-4.98v-4.98h4.98v-2.52h2.52v-7.5h-2.52v-2.46h-4.98v2.46h-2.52v2.52h-4.98v-4.98h2.46v-2.52h2.52v-2.52h10.02v2.52h2.46
		v2.52h2.52v12.48h-2.52v4.98h2.52v12.54H551.2z"/>
	<path d="M578.68,401.81v4.98h-2.46v5.04h-2.52v4.98h-4.98v-4.98h-2.52v-5.04h-2.52v-4.98h-2.46v-25.02h4.98v22.5h2.52v7.5h4.98
		v-7.5h2.52v-22.5h4.98v25.02H578.68z"/>
	<path d="M643.66,416.81v-12.48h2.46v-2.52h2.52v-2.52h2.52v-2.46h2.46v-2.52h2.52v-2.52h2.52v-7.5h-2.52v-2.46h-4.98v2.46h-2.52
		v5.04h-4.98v-7.5h2.46v-2.52h2.52v-2.52h10.02v2.52h2.46v2.52h2.52v12.48h-2.52v2.52h-2.46v2.46h-2.52v2.52h-2.52v2.52h-2.46v2.46
		h-2.52v5.04h15v4.98H643.66z"/>
	<path d="M688.59,411.83v2.46h-2.46v2.52h-10.02v-2.52h-2.52v-2.46h-2.46v-5.04h4.98v2.52h2.52v2.52h4.98v-2.52h2.52v-10.02h-2.52
		v-2.46h-10.02v-20.04h15v5.04h-9.96v9.96h7.5v2.52h2.46v2.52h2.52v15H688.59z"/>
	<path d="M716.07,409.31v2.52h-2.46v2.46h-2.52v2.52h-4.98v-2.52h-2.52v-2.46h-2.52v-2.52h-2.46v-25.02h2.46v-2.46h2.52v-2.52h2.52
		v-2.52h4.98v2.52h2.52v2.52h2.46v2.46h2.52v25.02H716.07z M713.61,386.81h-2.52v-2.52h-4.98v2.52h-2.52v19.98h2.52v2.52h4.98v-2.52
		h2.52V386.81z"/>
	<path d="M743.55,409.31v2.52h-2.46v2.46h-2.52v2.52h-4.98v-2.52h-2.52v-2.46h-2.52v-2.52h-2.46v-25.02h2.46v-2.46h2.52v-2.52h2.52
		v-2.52h4.98v2.52h2.52v2.52h2.46v2.46h2.52v25.02H743.55z M741.09,386.81h-2.52v-2.52h-4.98v2.52h-2.52v19.98h2.52v2.52h4.98v-2.52
		h2.52V386.81z"/>
	<path d="M768.57,416.81v-25.02h-2.52v5.04h-4.98v-5.04h-2.52v25.02h-4.98v-40.02h4.98v5.04h2.52v4.98h4.98v-4.98h2.52v-5.04h4.98
		v40.02H768.57z"/>
	<path d="M796.05,416.81v-15h-10.02v15h-4.98v-34.98h2.46v-2.52h2.52v-2.52h10.02v2.52h2.46v2.52h2.52v34.98H796.05z M796.05,384.29
		h-2.52v-2.46h-4.98v2.46h-2.52v12.54h10.02V384.29z"/>
	<path d="M823.53,416.81v-17.52h-10.02v17.52h-4.98v-40.02h4.98v17.52h10.02v-17.52h4.98v40.02H823.53z"/>
</g>
<g>
	<rect x="716.04" y="41.16" class="st6" width="233.45" height="233.45"/>
	<path d="M918.17,93.65L918.17,93.65c-2.77-4.06-6.09-7.93-9.78-11.62c-3.32-3.14-8.12-6.83-11.44-9.04
		c-5.53-3.87-13.1-3.14-17.71,1.48L761.74,191.79c-0.37,0.37-0.74,0.92-0.92,1.48l-15.31,43.53c-0.74,2.4-0.18,4.98,1.48,6.64
		c1.29,1.29,2.77,1.85,4.43,1.85c0.74,0,1.48-0.18,2.21-0.37l43.35-15.31c0.55-0.18,1.11-0.55,1.48-0.92l117.69-117.69
		C920.93,106.38,921.67,99,918.17,93.65z M778.19,191.06L886.93,82.31c1.32-1.32,3.45-1.32,4.77,0c1.32,1.32,1.32,3.45,0,4.77
		L782.96,195.83c-0.66,0.66-1.52,0.99-2.38,0.99c-0.86,0-1.73-0.33-2.38-0.99C776.87,194.51,776.87,192.38,778.19,191.06z
		 M768.01,231.27c-0.92-1.85-2.03-3.69-3.69-5.35c-1.66-1.66-3.51-2.77-5.35-3.69l9.04-25.09c9.96,6.82,18.45,15.31,25.27,25.27
		L768.01,231.27z M907.58,103.79L798.83,212.54c-0.66,0.66-1.52,0.99-2.38,0.99c-0.86,0-1.73-0.33-2.38-0.99
		c-1.32-1.32-1.32-3.45,0-4.77L902.81,99.02c1.32-1.32,3.45-1.32,4.77,0C908.9,100.34,908.9,102.47,907.58,103.79z"/>
</g>
</svg>
