<?xml version="1.0" encoding="utf-8"?>
<!-- Generator: Adobe Illustrator 26.3.1, SVG Export Plug-In . SVG Version: 6.00 Build 0)  -->
<svg version="1.1" id="Livello_1" xmlns="http://www.w3.org/2000/svg" xmlns:xlink="http://www.w3.org/1999/xlink" x="0px" y="0px"
	 viewBox="0 0 1200 829.33" style="enable-background:new 0 0 1200 829.33;" xml:space="preserve">
<style type="text/css">
	.st0{fill:none;stroke:#000000;stroke-width:0.75;stroke-miterlimit:10;}
	.st1{fill:none;stroke:#000000;stroke-width:0.75;stroke-linejoin:round;stroke-miterlimit:10;}
	.st2{fill:none;stroke:#000000;stroke-width:0.75;stroke-linecap:round;stroke-linejoin:round;stroke-miterlimit:10;}
	.st3{enable-background:new    ;}
	.st4{clip-path:url(#SVGID_00000039107002962111321660000009055296633259592099_);}
</style>
<g>
	<path class="st0" d="M855.95,202.9l-0.21-0.12 M852.71,201.02l-0.21-0.12 M849.47,199.16l-0.21-0.12 M846.23,197.28L674.16,97.94
		 M849.26,199.28v-0.24 M891.39,223.6v-0.24 M344.86,107.45l10.65,3.73 M898.29,240.19l-1.62-0.93l-1.54-0.89l-1.7-0.98l-1.54-0.89
		l-1.7-0.98l-1.54-0.89l-1.7-0.98l-1.54-0.89l-1.7-0.98l-1.54-0.89l-1.7-0.98l-1.54-0.89l-1.7-0.98l-1.54-0.89l-1.7-0.98l-1.54-0.89
		l-1.7-0.98l-1.54-0.89l-1.7-0.98l-1.54-0.89l-1.7-0.98l-1.54-0.89l-1.7-0.98l-1.54-0.89l-1.7-0.98l-1.54-0.89l-1.7-0.98l-1.54-0.89
		l-1.7-0.98l-1.54-0.89l-1.7-0.98l-1.54-0.89l-1.7-0.98l-1.54-0.89l-1.7-0.98l-1.54-0.89l-1.7-0.98l-1.54-0.89l-1.7-0.98
		 M845.08,207.4l1.54,0.89 M846.62,208.28l1.7,0.98 M848.32,209.27l1.54,0.89 M851.57,211.14l1.54,0.89 M854.81,213.01l1.54,0.89
		 M858.05,214.88l1.54,0.89 M861.29,216.75l1.54,0.89 M864.53,218.62l1.54,0.89 M867.77,220.49l1.54,0.89 M871.01,222.36l1.54,0.89
		 M874.25,224.23l1.54,0.89 M877.49,226.1l1.54,0.89 M880.73,227.97l1.54,0.89 M883.97,229.85l1.54,0.89 M887.21,231.72l1.54,0.89
		 M890.45,233.59l1.54,0.89 M893.69,235.46l1.54,0.89 M896.93,237.33l1.54,0.89 M898.29,254.01v-13.82 M900.09,239.15l-1.8,1.04
		 M852.5,201.15v-0.24 M858.98,204.89v-0.24 M862.22,206.76v-0.24 M865.46,208.63v-0.24 M868.7,210.5v-0.24 M871.94,212.37v-0.24
		 M875.18,214.24V214 M878.42,216.11v-0.24 M881.67,217.98v-0.24 M884.91,219.86v-0.24 M888.15,221.73v-0.24 M894.63,225.47v-0.24
		 M897.87,227.34v-0.24 M901.11,229.21v-0.24 M904.35,231.08v-0.24 M907.59,232.95v-0.25 M838.6,203.65l1.54,0.89 M840.14,204.54
		l1.7,0.98 M841.84,205.52l1.54,0.89 M843.38,206.41l1.7,0.98 M849.86,210.15l1.7,0.98 M853.1,212.03l1.7,0.98 M856.34,213.9
		l1.7,0.98 M859.58,215.77l1.7,0.98 M862.82,217.64l1.7,0.98 M866.06,219.51l1.7,0.98 M869.3,221.38l1.7,0.98 M872.54,223.25
		l1.7,0.98 M875.78,225.12l1.7,0.98 M879.03,226.99l1.7,0.98 M882.27,228.86l1.7,0.98 M885.51,230.73l1.7,0.98 M888.75,232.6
		l1.7,0.98 M891.99,234.47l1.7,0.98 M895.23,236.34l1.7,0.98 M898.47,238.22l1.62,0.93 M847.56,196.52l-1.33,0.76 M849.26,197.5
		l-1.7-0.98 M850.8,198.39l-1.32,0.76 M852.5,199.37l-1.7-0.98 M854.04,200.26l-1.33,0.77 M855.74,201.24l-1.7-0.98 M857.28,202.13
		l-1.33,0.77 M858.98,203.11l-1.7-0.98 M860.52,204l-1.33,0.77 M862.22,204.98l-1.7-0.98 M863.76,205.87l-1.32,0.76 M865.46,206.85
		l-1.7-0.98 M867,207.74l-1.33,0.77 M868.7,208.73l-1.7-0.98 M870.24,209.61l-1.32,0.77 M871.94,210.6l-1.7-0.98 M873.48,211.48
		l-1.33,0.77 M875.18,212.47l-1.7-0.98 M876.72,213.35l-1.32,0.77 M878.42,214.34l-1.7-0.98 M879.96,215.23l-1.33,0.77
		 M881.67,216.21l-1.7-0.98 M883.2,217.1l-1.32,0.76 M884.91,218.08l-1.7-0.98 M886.44,218.97l-1.33,0.77 M888.15,219.95l-1.7-0.98
		 M889.68,220.84l-1.33,0.77 M891.39,221.82l-1.7-0.98 M892.92,222.71l-1.33,0.77 M894.63,223.69l-1.7-0.98 M896.16,224.58
		l-1.33,0.77 M897.87,225.56l-1.7-0.98 M899.4,226.45l-1.33,0.77 M901.11,227.43l-1.7-0.98 M902.64,228.32l-1.33,0.76 M904.35,229.3
		l-1.7-0.98 M905.88,230.19l-1.33,0.77 M907.59,231.18l-1.7-0.98 M909.13,232.06l-1.33,0.77 M910.74,233l-1.62-0.93 M910.74,246.82
		v-12.29 M836.9,202.67l1.7,0.98 M836.9,202.67l-1.8,1.04 M835.1,203.71v13.82 M769.95,393.64c0.2-0.29,0.4-0.57,0.59-0.86
		 M579.8,224.13v-17.57 M632.84,216.06l162.24,93.67 M617.31,207.09l3.26,1.88 M363.65,114.03l216.69,75.9 M548.32,235.55
		c1.57-9.58,5.13-19.74,9.9-28.21c2.38-4.22,5.4-8.62,8.88-12.06c1.74-1.72,3.78-3.37,5.99-4.48c2.19-1.09,4.77-1.75,7.25-0.88
		 M579.8,206.56c-0.24-0.09-0.49-0.17-0.74-0.26 M769.15,393.46c0.27,0.06,0.53,0.12,0.8,0.18 M342.71,116.11
		c1.69-1.61,3.69-3.17,5.83-4.19c2.13-1.01,4.61-1.57,6.98-0.74 M555.74,228.5c1.44-5.29,3.48-10.63,5.99-15.51
		c2.43-4.7,5.73-9.8,9.65-13.48c1.92-1.8,4.37-3.62,7.03-4.31c2.95-0.76,5.52,0.08,7.4,2.49c0.81,1.04,1.36,2.16,1.81,3.38
		c0.52,1.42,0.85,2.86,1.07,4.34c0.41,2.72,0.45,5.58,0.28,8.31 M355.51,111.18c0.54,0.19,1.05,0.44,1.54,0.74
		c0.63,0.39,1.22,0.88,1.76,1.46 M294.56,223.18c-0.85-0.9-1.58-2.02-2.19-3.32c-0.68-1.45-1.2-3.13-1.56-5.01 M289.72,222.53
		c-1.39-0.49-2.53-1.38-3.45-2.5c-1.09-1.33-1.85-2.93-2.39-4.54c-0.99-2.95-1.36-6.26-1.43-9.33c-0.14-6.18,0.93-12.8,2.49-18.72
		c1.59-6.03,3.88-12.12,6.7-17.68c2.73-5.37,6.45-11.19,10.89-15.4 M803.82,366.4c0.63,0.15,1.21,0.43,1.75,0.83
		c0.3,0.22,0.57,0.48,0.84,0.78 M792.25,363.73l4.12,0.95 M786.38,441.88l-11.56-2.67 M821.02,322.21l11.56,2.67 M909.51,262.71
		L649.14,112.38 M934.53,248.26l-25.02,14.45 M563.67,239.37c3.66-2.11,7.32-4.22,10.97-6.34 M519.21,301.83
		c-0.33,0.03-0.67,0.05-1,0.05c-1.25,0.01-2.48-0.18-3.65-0.6 M792.56,343.32c4.1-2.37,8.21-4.74,12.32-7.11 M805.31,335.31
		c-0.16,0.05-0.3,0.12-0.44,0.2 M762.84,388.59c2.32-1.34,4.63-2.67,6.95-4.01 M794.59,200.23c-0.48,0.24-0.96,0.48-1.44,0.71
		c-3.38,1.67-6.89,3.33-10.49,4.92c-3.24,1.44-6.56,2.83-9.88,4.11c-3.14,1.22-6.28,2.34-9.37,3.34c-3.05,0.99-6.04,1.87-8.96,2.63
		c-2.95,0.77-5.82,1.42-8.63,1.95c-2.86,0.55-5.65,0.99-8.4,1.33c-2.79,0.35-5.54,0.6-8.27,0.76c-2.74,0.16-5.47,0.24-8.23,0.23
		c-1.37,0-2.74-0.02-4.12-0.06c-1.37-0.04-2.76-0.1-4.15-0.18c-2.75-0.15-5.54-0.38-8.36-0.66c-2.77-0.27-5.57-0.61-8.41-0.98
		c-2.76-0.37-5.56-0.78-8.39-1.23c-2.74-0.43-5.51-0.89-8.32-1.38c-2.7-0.46-5.43-0.95-8.2-1.44c-2.64-0.47-5.31-0.95-8.02-1.42
		c-2.56-0.45-5.16-0.89-7.78-1.32c-2.47-0.4-4.97-0.78-7.49-1.12c-2.36-0.32-4.75-0.61-7.15-0.84c-2.24-0.22-4.5-0.39-6.75-0.47
		c-2.12-0.08-4.22-0.1-6.29-0.03c-1.97,0.06-3.91,0.2-5.78,0.39c-0.07,0.01-0.14,0.02-0.21,0.02 M649.14,115.63
		c-0.03,0-0.07,0.01-0.11,0.01c-9.94,1.07-19.85,1.91-29.74,2.48c-8.68,0.5-17.34,0.77-25.97,0.78c-7.59,0.01-15.15-0.19-22.68-0.64
		c-6.65-0.4-13.28-0.99-19.88-1.8c-5.88-0.72-11.73-1.62-17.56-2.68c-5.25-0.96-10.49-2.07-15.73-3.3
		c-4.78-1.12-9.57-2.35-14.38-3.64c-4.47-1.2-8.97-2.46-13.51-3.71c-4.32-1.19-8.69-2.39-13.13-3.51c-2.17-0.55-4.37-1.09-6.58-1.6
		c-2.2-0.51-4.42-0.99-6.66-1.45c-4.47-0.91-9.01-1.71-13.59-2.41c-4.56-0.7-9.17-1.29-13.81-1.78c-4.59-0.49-9.2-0.88-13.84-1.17
		c-4.55-0.29-9.13-0.48-13.7-0.57c-4.46-0.09-8.92-0.09-13.38,0.01c-4.31,0.1-8.61,0.28-12.89,0.57c-4.1,0.28-8.18,0.64-12.22,1.12
		c-3.83,0.45-7.63,0.99-11.38,1.65c-3.51,0.62-6.98,1.33-10.35,2.16c-3.14,0.77-6.21,1.65-9.15,2.66c-2.73,0.93-5.34,1.97-7.79,3.13
		c-2.28,1.07-4.41,2.24-6.36,3.47c-1.82,1.15-3.47,2.37-4.93,3.62c-1.36,1.17-2.54,2.37-3.5,3.57c-0.9,1.12-1.6,2.24-2.06,3.31
		c-0.44,1.01-0.65,1.98-0.63,2.84c0.03,0.73,0.23,1.38,0.61,1.92c0.05,0.07,0.11,0.15,0.17,0.22c0.47,0.56,1.17,1,2.1,1.28
		c0.96,0.29,2.17,0.4,3.56,0.33c0.47-0.03,0.95-0.07,1.46-0.14 M574.42,246.23c0.01,0.01,0.02,0.02,0.03,0.03 M1054.05,461.97
		c-0.47,2.19-1,4.37-1.59,6.53c-1.29,4.69-2.82,9.12-4.53,13.08c-1.6,3.7-3.3,6.89-5.12,9.51 M796.38,364.68L796.38,364.68
		 M762.84,388.59c-1.11,2.79-2.44,5.55-3.98,8.21c-2.53,4.37-5.54,8.4-8.89,11.86c-3.11,3.22-6.46,5.89-9.9,7.88 M1060.78,422.8
		c0.91-5.04,2.21-10.19,3.83-15.06c1.56-4.7,3.69-9.93,6.29-14.18c0.74-1.21,1.53-2.37,2.43-3.47c0.75-0.92,1.55-1.76,2.5-2.49
		c2.47-1.88,4.86-1.86,6.59,0.93c0.6,0.97,1.02,2.1,1.32,3.19c0.39,1.39,0.63,2.8,0.79,4.23c0.3,2.59,0.34,5.17,0.25,7.77
		 M1085.01,404.53c-0.14,2.64-0.42,5.41-0.83,8.27c-0.67,4.68-1.67,9.49-2.96,14.17c-1.29,4.69-2.82,9.12-4.53,13.08
		c-1.6,3.7-3.3,6.89-5.12,9.51 M793.89,199.82l0.7,0.41 M794.59,200.23l71.44,41.25 M649.14,114.98v0.65 M649.14,115.63v0.62
		 M934.19,248.07l-23.45-13.54 M934.53,248.74v-0.48 M305.08,145.83c3.17-3.01,6.34-6.03,9.51-9.05 M293.68,222.87
		c-0.15,0.02-0.31,0.04-0.46,0.05c-0.08,0.01-0.16,0.01-0.24,0.02c-1.14,0.08-2.23-0.06-3.26-0.42 M1078.84,401.81v-3.73
		 M730.92,407.01V378.9 M730.32,378.55c0.2,0.12,0.41,0.23,0.61,0.35 M730.32,406.66c0.2,0.12,0.41,0.23,0.61,0.35 M804.87,335.51
		c-4.08,2.36-8.16,4.71-12.25,7.07 M730.32,406.66v-28.11 M315.33,149.42c0.54,0.19,1.05,0.43,1.54,0.74
		c0.63,0.4,1.22,0.89,1.76,1.46 M319.51,151.93c0.15-0.02,0.31-0.04,0.46-0.05c0.08-0.01,0.16-0.01,0.24-0.02
		c1.14-0.08,2.23,0.06,3.26,0.42 M290.81,214.85c0.36,1.79,0.85,3.35,1.47,4.65c0.34,0.72,0.71,1.34,1.1,1.88 M514.56,301.28
		l-216.69-75.9 M540.16,228.17c0.22,0.08,0.43,0.16,0.64,0.25c0.22,0.09,0.43,0.19,0.64,0.3c0.22,0.11,0.43,0.23,0.65,0.36
		c0.05,0.03,0.11,0.07,0.16,0.1c1.43,0.89,2.62,2.09,3.59,3.5c0.72,1.05,1.32,2.23,1.82,3.49 M289.72,222.53l-10.65-3.73
		 M313.59,120.81c-0.45-0.65-0.67-1.41-0.69-2.22c-0.02-0.93,0.22-1.94,0.66-2.97c0.48-1.11,1.19-2.25,2.09-3.39
		c0.97-1.22,2.16-2.44,3.53-3.63c1.47-1.27,3.14-2.5,4.96-3.67c1.96-1.25,4.11-2.43,6.4-3.52c2.46-1.17,5.09-2.23,7.84-3.17
		c2.96-1.02,6.04-1.91,9.2-2.69c3.39-0.84,6.87-1.57,10.4-2.19c3.76-0.66,7.57-1.21,11.42-1.67c4.06-0.48,8.15-0.85,12.26-1.14
		c4.3-0.29,8.61-0.49,12.93-0.58c4.47-0.1,8.95-0.11,13.43-0.02c4.59,0.09,9.18,0.28,13.75,0.56c4.65,0.29,9.28,0.68,13.89,1.16
		c4.66,0.49,9.28,1.08,13.86,1.78c4.6,0.7,9.16,1.5,13.65,2.41c2.25,0.45,4.48,0.94,6.69,1.45c2.22,0.51,4.42,1.05,6.6,1.6
		c4.45,1.13,8.83,2.32,13.17,3.52c4.55,1.26,9.05,2.51,13.52,3.71c4.81,1.29,9.58,2.52,14.36,3.64c5.23,1.23,10.45,2.34,15.69,3.3
		c5.82,1.07,11.65,1.97,17.51,2.69c6.58,0.81,13.19,1.41,19.82,1.81c7.51,0.45,15.05,0.66,22.62,0.66c8.61,0,17.25-0.28,25.91-0.77
		c9.87-0.56,19.77-1.4,29.69-2.46c0.13-0.01,0.25-0.03,0.38-0.04 M1030.55,498.27l-235.33-54.35 M795.1,372.52
		c1.03-1.48,2.28-3.04,3.65-4.23c1.28-1.11,3.16-2.32,5.06-1.88 M1053.75,462.4c-1.05,4.84-2.46,9.79-4.19,14.43
		c-0.99,2.67-2.1,5.28-3.4,7.82c-0.99,1.94-2.07,3.81-3.37,5.57c-0.89,1.21-1.94,2.45-3.13,3.4c-0.86,0.69-1.93,1.33-3.09,1.44
		c-1.05,0.1-1.95-0.28-2.7-0.99c-0.96-0.9-1.57-2.2-1.99-3.4c-0.73-2.09-1.07-4.47-1.25-6.66c-0.22-2.76-0.19-5.49-0.03-8.25
		c0.56-9.56,2.94-20.37,6.23-29.33c0.98-2.67,2.07-5.27,3.34-7.81c0.98-1.96,2.05-3.84,3.33-5.63c0.89-1.25,1.94-2.52,3.12-3.52
		c0.86-0.73,1.93-1.43,3.1-1.61c1.03-0.16,1.95,0.12,2.74,0.78c0.98,0.82,1.62,2.06,2.05,3.2 M1030.55,498.27
		c-1.47-0.34-2.46-1.53-3.14-2.72c-0.48-0.85-0.83-1.74-1.13-2.66c-0.35-1.1-0.6-2.22-0.79-3.36c-0.58-3.42-0.68-7.15-0.57-10.6
		c0.22-6.91,1.35-14.31,2.9-21.03c1.55-6.72,3.78-13.87,6.62-20.18c0.8-1.79,1.66-3.53,2.62-5.24c0.78-1.39,1.61-2.74,2.54-4.04
		c1.16-1.62,2.6-3.34,4.27-4.51c1.15-0.81,2.6-1.48,4.11-1.14 M718.56,418.25L539.34,314.77 M523.8,305.8
		c-1.63-0.94-3.07-2.16-4.3-3.63c-0.1-0.12-0.19-0.23-0.29-0.35 M1059.32,456.74l-1.42-0.33 M841.42,326.92l235.33,54.35
		 M809.12,261.9c0.32-0.16,0.64-0.31,0.98-0.44c0.95-0.38,1.97-0.67,3.09-0.94c0.51-0.12,1.05-0.25,1.61-0.38
		c0.57-0.13,1.16-0.27,1.8-0.44c0.56-0.14,1.16-0.3,1.79-0.47c0.63-0.17,1.3-0.36,2.01-0.56c1.25-0.36,2.62-0.77,4.16-1.25
		c0.68-0.21,1.39-0.44,2.13-0.68c0.75-0.24,1.53-0.5,2.36-0.78c0.73-0.25,1.49-0.51,2.28-0.78c0.8-0.28,1.63-0.57,2.5-0.88
		c1.55-0.55,3.23-1.16,5.04-1.84c1.65-0.61,3.41-1.28,5.26-2c1.75-0.68,3.57-1.39,5.45-2.14c1.84-0.73,3.71-1.5,5.6-2.27
		c1.91-0.79,3.82-1.58,5.71-2.38c1.74-0.74,3.46-1.47,5.15-2.2 M866.03,241.48l0.82,0.47 M819.68,370.06
		c1.04-6.4,2.65-13.02,4.7-19.18c1.93-5.81,4.78-12.74,8.33-17.86 M1054.36,428.94c1.08-8.88,3.36-18.44,6.45-26.84
		c1.54-4.19,3.5-8.68,5.81-12.52c1.16-1.93,2.54-3.92,4.12-5.54c0.88-0.9,1.93-1.8,3.1-2.35c0.9-0.43,1.9-0.66,2.92-0.43
		 M806.16,367.95c0.08,0.02,0.16,0.04,0.24,0.06 M792.88,442.37c-0.08-0.02-0.16-0.04-0.24-0.06 M789.41,441.57
		c-0.08-0.02-0.16-0.04-0.24-0.06 M812.65,368.44L812.65,368.44 M774.82,439.21c-1.08-0.25-2.06-0.73-2.92-1.38
		c-1.14-0.86-2.02-1.99-2.71-3.22c-0.98-1.76-1.63-3.85-2.06-6.18c-0.47-2.51-0.69-5.35-0.69-8.51c0-3.77,0.32-7.91,0.94-12.25
		c0.44-3.12,1.04-6.29,1.76-9.44 M1042.8,491.09c-0.89,1.29-1.81,2.43-2.77,3.43c-0.77,0.79-1.57,1.5-2.42,2.09
		c-0.1,0.07-0.2,0.14-0.31,0.21c-0.2,0.13-0.41,0.26-0.61,0.38c-0.87,0.5-1.8,0.88-2.8,1.09c-1.09,0.23-2.23,0.24-3.35-0.02
		 M536.22,312.31c-1.31-1.38-2.39-3.05-3.21-4.98c-0.72-1.68-1.24-3.54-1.56-5.55 M757.29,351.16c1.63,0.94,3.07,2.16,4.3,3.63
		c1.05,1.25,1.93,2.65,2.64,4.18 M740.07,416.54c-3.5,2.02-7.09,3.32-10.6,3.75c-1.92,0.23-3.81,0.2-5.63-0.13
		c-1.88-0.33-3.66-0.97-5.29-1.91 M532.61,310.89l-8.8-5.08 M823.87,330.99c1.03-1.48,2.28-3.04,3.65-4.24
		c1.28-1.11,3.16-2.32,5.06-1.88 M1084.75,404.49c-0.42,9.46-2.68,20.17-5.79,29.08c-1.56,4.46-3.68,9.45-6.25,13.46
		c-0.73,1.14-1.52,2.24-2.41,3.26c-0.75,0.86-1.54,1.63-2.49,2.27c-2.52,1.7-4.71,1.22-6.25-1.41 M834.93,326.43
		c0.08,0.02,0.16,0.04,0.25,0.06 M835.17,326.48c1.09,0.25,2.17,0.5,3.22,0.74 M1059.32,456.74c-0.46-0.11-0.87-0.29-1.26-0.56
		 M832.58,324.88c0.63,0.15,1.21,0.43,1.75,0.83c0.3,0.22,0.57,0.48,0.84,0.78 M1076.75,381.26c1.08,0.25,2.06,0.73,2.92,1.38
		c1.14,0.86,2.02,1.99,2.71,3.22c0.98,1.76,1.63,3.85,2.06,6.18c0.47,2.51,0.69,5.35,0.69,8.51c0,1.05-0.02,2.12-0.07,3.22
		 M1071.57,449.56c-0.89,1.29-1.81,2.43-2.77,3.43c-0.77,0.79-1.57,1.5-2.42,2.09c-0.1,0.07-0.2,0.14-0.31,0.21
		c-0.2,0.13-0.41,0.26-0.61,0.38c-0.87,0.5-1.8,0.88-2.8,1.09c-1.09,0.23-2.23,0.24-3.35-0.02 M866.85,241.95
		c-1.85,0.8-3.75,1.61-5.67,2.42c-1.89,0.8-3.8,1.6-5.72,2.38c-1.88,0.77-3.76,1.54-5.6,2.27c-1.88,0.75-3.71,1.47-5.45,2.14
		c-1.85,0.72-3.62,1.38-5.27,2c-1.81,0.68-3.49,1.29-5.05,1.84c-0.87,0.31-1.71,0.6-2.5,0.88c-0.8,0.28-1.56,0.54-2.29,0.78
		c-0.83,0.28-1.61,0.54-2.36,0.78c-0.75,0.24-1.46,0.47-2.14,0.69c-1.55,0.49-2.93,0.9-4.18,1.26c-0.71,0.2-1.38,0.39-2.02,0.56
		c-0.63,0.17-1.23,0.33-1.8,0.47c-0.64,0.16-1.24,0.31-1.81,0.44c-0.57,0.13-1.1,0.25-1.61,0.38c-1.11,0.27-2.09,0.55-2.99,0.91
		c-0.31,0.13-0.62,0.26-0.92,0.41c-0.6,0.3-1.17,0.66-1.71,1.09c-0.84,0.67-1.63,1.52-2.38,2.64c-0.77,1.14-1.5,2.56-2.22,4.35
		c-0.72,1.81-1.41,3.99-2.08,6.61c-0.69,2.67-1.35,5.8-1.99,9.39c-0.68,3.76-1.33,8.03-1.95,12.69c-0.46,3.41-0.9,7.02-1.33,10.78
		 M866.85,241.95l42.66,24.63 M649.14,116.25l144.75,83.57 M649.14,112.38v2.6 M674.16,97.94l-25.02,14.45 M934.53,248.26l-0.34-0.2
		 M934.53,252.13l-25.02,14.45 M909.51,266.58v-3.87 M835.1,217.53l63.18,36.48l12.45-7.19"/>
	<path class="st0" d="M562.86,427.31l165.35,95.46 M577.61,417.39l-7.38,4.26l-7.38,4.26 M562.86,427.31v-1.4 M742.96,512.86
		l-165.35-95.46 M742.96,514.25v-1.4 M735.59,518.51l7.38-4.26 M358.89,308.15l165.35,95.46 M531.62,399.36l7.38-4.26
		 M524.24,403.62l7.38-4.26 M524.24,405.01l7.38-4.26 M524.24,405.01v-1.4 M358.89,309.55l165.35,95.47 M373.65,299.64l-7.38,4.26
		l-7.38,4.26 M358.89,309.55v-1.39 M539,395.1l-165.35-95.47 M539,396.5v-1.4 M531.62,400.75l7.38-4.26 M770.12,546.97v-1.4
		 M1039.68,454.6v28.11l-0.8-0.18v-28.11L1039.68,454.6z M934.53,252.14v-3.39 M1038.88,454.41l39.16-56.52l0.8,0.18l-1.94,2.81
		l-0.03,0.05l-37.18,53.66 M1078.84,402.64v23.55l-20.94,30.23l-3.85,5.55l-14.37,20.74 M934.19,248.07
		c0.9-0.45,1.81-0.89,2.73-1.32c1.35-0.63,2.73-1.23,4.16-1.79c1.25-0.49,2.53-0.96,3.86-1.38c1.16-0.37,2.36-0.7,3.59-0.98
		c1.09-0.25,2.22-0.46,3.36-0.61c1.04-0.14,2.1-0.23,3.17-0.26c1.01-0.03,2.02-0.01,3.02,0.06c0.98,0.07,1.95,0.2,2.9,0.37
		c0.97,0.17,1.91,0.39,2.82,0.65c0.96,0.27,1.88,0.57,2.77,0.9c0.95,0.35,1.87,0.73,2.77,1.13c1.99,0.88,3.84,1.85,5.66,2.84
		c2.07,1.13,4.08,2.29,6.09,3.45c4.72,2.73,9.44,5.46,14.16,8.19c5.38,3.11,10.74,6.23,16.09,9.36c5.66,3.31,11.3,6.63,16.91,9.96
		c5.57,3.31,11.12,6.63,16.62,9.98c2.64,1.61,5.27,3.22,7.88,4.87c2.53,1.61,5.04,3.25,7.49,4.95c2.41,1.68,4.78,3.42,7.06,5.26
		c2.28,1.83,4.49,3.75,6.59,5.78c2.13,2.06,4.16,4.23,6.07,6.52c1.97,2.37,3.81,4.87,5.5,7.48c1.79,2.76,3.42,5.65,4.89,8.65
		c1.58,3.23,2.99,6.59,4.23,10.04c1.34,3.73,2.5,7.56,3.49,11.45c1.01,4,1.85,8.06,2.48,12.14c0.61,3.96,1.02,7.94,1.16,11.91
		c0.07,1.87,0.07,3.73-0.01,5.59c-0.07,1.75-0.22,3.48-0.45,5.19c-0.07,0.48-0.14,0.95-0.22,1.42c-0.19,1.1-0.43,2.19-0.72,3.26
		c-0.38,1.4-0.86,2.77-1.48,4.06c-0.56,1.19-1.24,2.31-2.06,3.32c-0.77,0.94-1.66,1.78-2.7,2.46c-1,0.65-2.14,1.15-3.37,1.45
		c-1.27,0.31-2.65,0.4-4.04,0.31c-0.55-0.04-1.11-0.1-1.67-0.19c-1.02-0.17-2.04-0.42-3.06-0.73c-1.6-0.5-3.18-1.15-4.73-1.9
		c-0.03-0.01-0.02-0.07-0.02-0.1c0-0.03,0.01-0.07,0.02-0.1c0.02-0.07,0.04-0.13,0.07-0.19c0.03-0.06,0.06-0.12,0.1-0.18
		c0.02-0.03,0.04-0.05,0.06-0.08c0.02-0.02,0.06-0.06,0.09-0.04c1.51,0.73,3.06,1.37,4.62,1.86c0.95,0.3,1.92,0.53,2.87,0.7
		c0.56,0.1,1.12,0.16,1.68,0.2c1.32,0.09,2.61,0,3.81-0.29c1.15-0.28,2.2-0.74,3.13-1.35c0.97-0.63,1.81-1.42,2.53-2.3
		c0.78-0.96,1.43-2.03,1.97-3.17c0.59-1.25,1.06-2.57,1.43-3.93c0.29-1.04,0.52-2.11,0.71-3.19c0.08-0.46,0.15-0.93,0.22-1.4
		c0.23-1.68,0.38-3.39,0.45-5.11c0.08-1.83,0.07-3.68,0.01-5.53c-0.14-3.93-0.55-7.89-1.16-11.82c-0.62-4.06-1.46-8.09-2.47-12.07
		c-0.98-3.87-2.13-7.68-3.47-11.38c-1.24-3.43-2.63-6.76-4.2-9.96c-1.46-2.98-3.07-5.84-4.85-8.58c-1.68-2.59-3.5-5.06-5.45-7.41
		c-1.89-2.27-3.9-4.42-6.01-6.46c-2.09-2.01-4.28-3.92-6.54-5.74c-2.27-1.82-4.62-3.56-7.02-5.23c-2.44-1.7-4.94-3.34-7.47-4.94
		c-2.6-1.65-5.23-3.26-7.86-4.86c-5.5-3.35-11.04-6.67-16.61-9.98c-5.61-3.33-11.25-6.65-16.9-9.96
		c-5.35-3.13-10.71-6.25-16.09-9.36c-4.71-2.73-9.44-5.46-14.16-8.19c-2.01-1.16-4.02-2.32-6.08-3.45c-1.8-0.98-3.65-1.94-5.61-2.81
		c-0.88-0.39-1.78-0.76-2.72-1.11c-0.88-0.32-1.78-0.62-2.72-0.88c-0.89-0.25-1.81-0.46-2.75-0.63c-0.92-0.17-1.87-0.29-2.82-0.36
		c-0.97-0.07-1.96-0.09-2.94-0.06c-1.04,0.03-2.08,0.12-3.1,0.25c-1.12,0.15-2.22,0.35-3.3,0.6c-1.21,0.28-2.39,0.6-3.53,0.97
		c-1.31,0.41-2.58,0.87-3.81,1.36c-1.41,0.56-2.78,1.16-4.12,1.77c-0.92,0.43-1.82,0.87-2.71,1.31 M849.26,197.5l-10.66,6.15
		 M849.47,199.15l-9.33,5.39 M852.5,199.37l-10.66,6.15 M852.71,201.03l-9.33,5.39 M855.74,201.24l-10.66,6.15 M855.95,202.9
		l-9.33,5.39 M858.98,203.11l-10.66,6.15 M859.2,204.77l-9.33,5.39 M862.22,204.98l-10.66,6.15 M862.44,206.64l-9.33,5.39
		 M865.46,206.85l-10.66,6.15 M865.68,208.51l-9.33,5.39 M868.7,208.73l-10.66,6.15 M868.92,210.38l-9.33,5.39 M871.94,210.6
		l-10.66,6.15 M872.15,212.25l-9.33,5.39 M875.18,212.47l-10.66,6.15 M875.4,214.12l-9.33,5.39 M878.42,214.34l-10.66,6.15
		 M878.64,215.99l-9.33,5.39 M881.66,216.21l-10.66,6.15 M881.88,217.86l-9.33,5.39 M884.9,218.08l-10.66,6.15 M885.12,219.73
		l-9.33,5.39 M888.15,219.95l-10.66,6.15 M888.36,221.6l-9.33,5.39 M891.39,221.82l-10.66,6.15 M891.6,223.47l-9.33,5.39
		 M894.63,223.69l-10.66,6.15 M894.84,225.34l-9.33,5.39 M897.87,225.56l-10.66,6.15 M898.08,227.22l-9.33,5.39 M901.11,227.43
		l-10.66,6.15 M901.32,229.09l-9.33,5.39 M904.35,229.3l-10.66,6.15 M904.56,230.96l-9.33,5.39 M907.59,231.17l-10.66,6.15
		 M907.8,232.83l-9.33,5.39 M910.74,233l-10.66,6.15 M626.11,212.18c1.17,0.68,2.18,1.48,3.11,2.46 M629.16,214.6
		c1.31,0.32,2.54,0.8,3.69,1.46 M589.57,213.22c2.02-1.71,4.1-3.2,6.22-4.42c3.5-2.02,7.09-3.32,10.6-3.75
		c1.92-0.23,3.81-0.2,5.63,0.13c1.88,0.33,3.66,0.97,5.29,1.91 M570.81,243.51c0.12-0.44,0.24-0.89,0.36-1.34
		c1.32-4.63,3.31-9.25,5.83-13.63c2.53-4.37,5.54-8.4,8.89-11.86c1.19-1.24,2.42-2.39,3.68-3.46 M812.06,319.53
		c1.47,0.85,2.78,1.92,3.92,3.19 M581.1,249.44c1.94-7.11,5.34-14.07,9.59-20.06c4.17-5.89,9.7-11.61,16.06-15.28 M587.83,253.32
		c1.94-7.11,5.35-14.07,9.59-20.06c4.17-5.89,9.7-11.61,16.06-15.28 M606.75,214.09c3.42-1.98,7.41-3.53,11.46-3.71
		c4.18-0.19,8.05,1.12,10.97,4.25 M613.48,217.98c2.9-1.67,6.15-3.02,9.5-3.52c3.37-0.51,6.83-0.15,9.86,1.6 M572.28,244.4
		c2.78-10.21,8.66-20.39,16.11-27.89c3.73-3.75,8.26-7.24,13.21-9.33c4.83-2.04,10.73-2.95,15.7-0.09 M579.06,206.3
		c-11.2,10.65-22.39,21.31-33.59,31.96 M547.09,237.69c10.9-10.38,21.81-20.75,32.71-31.13 M790.63,362.46
		c-0.26,0.37-0.51,0.74-0.77,1.11 M359.69,113.69c0.15-0.02,0.31-0.04,0.46-0.05c0.08-0.01,0.16-0.01,0.24-0.02
		c1.14-0.08,2.23,0.06,3.26,0.42 M358.65,113.33c0.4,0.14,0.81,0.28,1.2,0.42 M311.36,148.03c0.9-4.25,2.18-8.56,3.79-12.73
		 M580.34,189.94c0.22,0.08,0.43,0.16,0.64,0.25c0.22,0.09,0.43,0.19,0.64,0.3c0.22,0.11,0.43,0.23,0.65,0.36
		c0.05,0.03,0.11,0.06,0.16,0.1c1.43,0.89,2.62,2.09,3.59,3.51c0.85,1.23,1.53,2.63,2.06,4.14c1.1,3.13,1.61,6.81,1.61,10.9
		c0,1.21-0.04,2.46-0.13,3.73 M324.3,152.56c1.46-6.64,3.8-13.38,6.75-19.5c2.84-5.88,6.83-12.37,11.65-16.95 M350.85,118.96
		c1.69-1.61,3.69-3.17,5.83-4.18c2.13-1.01,4.6-1.58,6.98-0.75 M313.66,148.83c1.94-8.82,5.49-18.08,10.17-25.84
		c2.32-3.85,5.24-7.85,8.58-10.94c1.67-1.54,3.6-3.01,5.7-3.96c2.09-0.95,4.47-1.45,6.77-0.64 M730.92,378.9
		c20.28-11.71,40.56-23.42,60.84-35.12 M769.79,384.58c1.47-0.85,2.95-1.7,4.42-2.55 M730.92,407.02
		c10.64-6.14,21.28-12.29,31.92-18.43 M791.82,343.04c-20.5,11.84-41.01,23.68-61.51,35.51 M318.47,151.56
		c0.4,0.14,0.81,0.28,1.2,0.42 M294.72,223.23c-0.4-0.14-0.8-0.28-1.2-0.42 M297.86,225.38c-0.54-0.19-1.05-0.44-1.54-0.74
		c-0.63-0.39-1.22-0.88-1.76-1.46 M279.08,218.8c-0.22-0.08-0.43-0.16-0.64-0.25c-0.22-0.09-0.43-0.19-0.64-0.3
		c-0.22-0.11-0.43-0.23-0.65-0.36c-0.05-0.03-0.11-0.06-0.16-0.1c-1.43-0.89-2.62-2.09-3.59-3.5c-0.85-1.23-1.53-2.63-2.06-4.14
		c-1.1-3.13-1.61-6.81-1.61-10.9c0-3.87,0.46-8.05,1.34-12.4c0.95-4.68,2.37-9.45,4.19-14.04c1.82-4.6,4-8.92,6.42-12.74
		c2.26-3.56,4.69-6.61,7.24-9.04c1.4-1.34,2.84-2.48,4.31-3.4c1.26-0.79,2.56-1.42,3.88-1.86c1.28-0.42,2.6-0.66,3.92-0.67
		c1.25-0.01,2.48,0.18,3.66,0.6 M323.47,152.27l216.69,75.9 M304.69,145.69l10.64,3.73 M297.86,225.38
		c-1.39-0.49-2.53-1.38-3.45-2.5c-1.09-1.33-1.85-2.93-2.39-4.54c-0.99-2.95-1.36-6.26-1.43-9.33c-0.14-6.18,0.93-12.8,2.49-18.72
		c1.59-6.03,3.88-12.12,6.71-17.68c2.73-5.37,6.45-11.18,10.89-15.4 M302.53,154.35c1.69-1.61,3.69-3.17,5.83-4.19
		c2.13-1.01,4.61-1.57,6.98-0.74 M310.67,157.2c1.69-1.61,3.69-3.17,5.83-4.19c2.13-1.01,4.61-1.57,6.98-0.74 M279.08,218.8
		c-1.64-0.57-2.91-1.7-3.9-3.08c-1.2-1.68-1.96-3.72-2.45-5.69c-0.89-3.58-1.05-7.55-0.88-11.2c0.35-7.34,2.13-15.11,4.55-22.01
		c2.42-6.9,5.87-14.08,10.18-20.04c1.2-1.66,2.48-3.25,3.89-4.74c1.18-1.25,2.42-2.41,3.79-3.46c1.59-1.22,3.43-2.32,5.39-2.89
		c1.65-0.48,3.38-0.58,5.04,0 M515.74,295.07c-0.8-1.33-1.34-2.84-1.71-4.33c-0.44-1.76-0.67-3.53-0.77-5.33
		c-0.2-3.33,0.04-6.75,0.51-10.04c0.93-6.53,2.92-13.26,5.52-19.31c2.52-5.87,6.14-12.29,10.6-17c1.25-1.31,2.56-2.51,4.06-3.55
		c1.26-0.87,2.67-1.64,4.17-2.05c3.73-1.02,6.6,0.55,8.41,3.79 M514.56,301.28c-1.64-0.57-2.91-1.7-3.9-3.08
		c-1.2-1.68-1.96-3.72-2.45-5.69c-0.89-3.58-1.05-7.55-0.88-11.2c0.35-7.34,2.13-15.11,4.55-22.01c2.42-6.9,5.87-14.08,10.18-20.04
		c1.2-1.66,2.48-3.25,3.89-4.74c1.18-1.25,2.42-2.41,3.79-3.46c1.59-1.22,3.43-2.32,5.39-2.89c1.65-0.48,3.38-0.58,5.04,0
		 M812.66,368.44l235.33,54.35 M809.62,368.75c1.03-0.41,2.05-0.54,3.03-0.31 M806.4,368.01c1.09,0.25,2.17,0.5,3.22,0.74
		 M789.42,441.57c-1.03,0.41-2.05,0.54-3.03,0.31 M792.64,442.31c-1.06-0.24-2.13-0.49-3.22-0.74 M772.63,386.18
		c0.71-2.01,1.46-3.94,2.25-5.77c1.6-3.7,3.3-6.89,5.12-9.51c0.89-1.29,1.81-2.43,2.77-3.43c0.77-0.79,1.57-1.5,2.42-2.09
		c0.1-0.07,0.2-0.14,0.31-0.21c0.2-0.13,0.41-0.26,0.61-0.38c0.87-0.5,1.8-0.88,2.8-1.09c1.09-0.23,2.23-0.24,3.35,0.02
		 M771.23,390.47c0.44-1.46,0.91-2.89,1.4-4.28 M769.16,398.24c0.36-1.59,0.76-3.17,1.19-4.73c0.28-1.02,0.58-2.04,0.88-3.04
		 M1047.98,422.79c1.08,0.25,2.06,0.73,2.92,1.38c1.14,0.86,2.02,1.99,2.71,3.21c0.61,1.1,1.09,2.32,1.47,3.65 M796.38,364.68
		l7.44,1.72 M786.38,441.88c-1.29-0.3-2.22-1.26-2.89-2.3c-0.96-1.5-1.53-3.37-1.9-5.07c-0.65-2.94-0.86-6.18-0.88-9.18
		c-0.04-6,0.71-12.47,1.8-18.35c1.1-5.97,2.69-12.1,4.68-17.84c1.88-5.44,4.59-11.83,7.91-16.62 M795.22,443.92
		c-1.29-0.3-2.22-1.26-2.89-2.3c-0.96-1.5-1.53-3.37-1.9-5.07c-0.64-2.94-0.86-6.18-0.88-9.18c-0.04-6,0.71-12.47,1.8-18.35
		c1.1-5.97,2.69-12.1,4.68-17.84c1.88-5.44,4.59-11.83,7.91-16.62 M803.94,374.56c1.03-1.48,2.28-3.04,3.65-4.23
		c1.28-1.11,3.15-2.32,5.06-1.88 M774.82,439.21c-1.47-0.34-2.46-1.53-3.14-2.72c-0.48-0.85-0.83-1.74-1.12-2.67
		c-0.35-1.1-0.6-2.22-0.79-3.36c-0.58-3.42-0.68-7.15-0.57-10.6c0.22-6.91,1.35-14.31,2.9-21.03c1.55-6.72,3.78-13.87,6.62-20.18
		c0.8-1.79,1.66-3.53,2.62-5.24c0.78-1.39,1.61-2.74,2.54-4.04c1.16-1.62,2.6-3.34,4.27-4.51c1.15-0.81,2.6-1.48,4.11-1.14
		 M571.34,243.8c1.16,0.67,2.16,1.47,3.08,2.43 M539.34,314.77c-1.15-0.66-2.19-1.49-3.11-2.46 M574.38,246.22
		c1.31,0.31,2.54,0.8,3.69,1.46 M519.21,301.83c-1.06-1.33-1.94-2.83-2.64-4.46c-1.39-3.25-2.06-7.01-2.06-11.05
		c0-3.98,0.64-8.21,1.88-12.52c1.32-4.63,3.31-9.25,5.83-13.63c2.53-4.37,5.54-8.4,8.89-11.86c3.11-3.22,6.46-5.89,9.9-7.88
		c3.5-2.02,7.09-3.32,10.6-3.75c1.92-0.23,3.81-0.2,5.63,0.13c1.88,0.33,3.66,0.97,5.29,1.91 M578.07,247.69l179.22,103.47
		 M562.53,238.72l8.8,5.08 M536.27,312.32c-3.43-0.79-6.18-2.78-8.14-5.66c-1.92-2.82-2.9-6.2-3.3-9.51
		c-0.81-6.63,0.55-13.79,2.7-19.95c2.21-6.34,5.54-12.48,9.58-17.83c3.97-5.26,9.08-10.31,14.87-13.65 M539.34,314.77
		c-2.88-1.66-4.86-4.28-6.12-7.26c-1.26-2.96-1.79-6.25-1.88-9.42c-0.19-6.36,1.35-13.01,3.61-18.87c2.3-5.96,5.57-11.72,9.5-16.75
		c3.87-4.96,8.75-9.68,14.27-12.87 M558.7,249.6c2.9-1.67,6.15-3.02,9.5-3.52c3.37-0.51,6.83-0.15,9.86,1.6 M523.8,305.8
		c-3.68-2.12-5.84-5.76-6.97-9.65c-1.12-3.9-1.25-8.14-0.84-12.12c0.81-7.98,3.84-16.09,7.81-22.95
		c3.96-6.87,9.46-13.55,15.98-18.25c3.24-2.34,6.97-4.35,10.91-5.33c3.93-0.97,8.17-0.92,11.85,1.21 M761.69,389.25
		c-2.24,5.49-5.41,10.78-9.21,15.33c-2.11,2.53-4.4,4.82-6.98,6.88c-2.14,1.7-4.37,3.16-6.86,4.32c-2.8,1.31-5.96,2.21-9.12,2.09
		c-2.89-0.11-5.56-1.08-7.73-3.04c-2.14-1.93-3.47-4.51-4.24-7.2c-0.86-3.02-1.05-6.28-0.84-9.38c0.19-2.8,0.67-5.51,1.4-8.21
		c0.83-3.11,1.94-6.09,3.3-9c2.51-5.36,5.91-10.51,9.95-14.85c2.22-2.38,4.68-4.58,7.38-6.42c2.22-1.52,4.66-2.83,7.22-3.69
		c2.9-0.97,6.09-1.41,9.15-0.65c2.9,0.71,5.24,2.4,6.95,4.82 M718.56,418.24c-3.68-2.12-5.84-5.76-6.97-9.65
		c-1.12-3.9-1.25-8.14-0.84-12.12c0.81-7.98,3.85-16.09,7.81-22.95c3.96-6.87,9.47-13.55,15.98-18.24
		c3.24-2.34,6.97-4.35,10.91-5.33c3.93-0.97,8.17-0.92,11.85,1.21 M838.39,327.23c1.03-0.41,2.05-0.54,3.03-0.31 M796.38,364.68
		c0.66-4.22,1.59-8.52,2.74-12.71c1.29-4.69,2.82-9.12,4.53-13.09c1.6-3.7,3.3-6.89,5.12-9.51c0.89-1.29,1.81-2.43,2.77-3.43
		c0.77-0.79,1.57-1.5,2.42-2.09c0.1-0.07,0.2-0.14,0.31-0.21c0.2-0.13,0.41-0.26,0.61-0.38c0.36-0.21,0.73-0.39,1.11-0.56
		 M810.78,368.41c1.03-6.47,2.64-13.16,4.7-19.38c1.94-5.87,4.81-12.88,8.39-18.04 M832.71,333.03c1.03-1.48,2.28-3.04,3.65-4.23
		c1.28-1.11,3.16-2.32,5.06-1.88 M799.28,365.35c1.32-8.12,3.59-16.78,6.61-24.45c1.5-3.8,3.39-7.9,5.61-11.36
		c1.11-1.73,2.42-3.53,3.92-4.96c0.83-0.8,1.81-1.57,2.89-2.04c0.85-0.37,1.78-0.55,2.72-0.34 M790.99,362.52
		c0-0.01-0.06-0.02-0.07-0.02c-0.03,0-0.05-0.01-0.07-0.01c-0.05-0.01-0.1-0.01-0.15-0.02c-0.1-0.01-0.2-0.02-0.3-0.02
		 M790.23,362.46c0,0.02,0.08,0.03,0.09,0.03c0.03,0.01,0.06,0.01,0.1,0.01c0.06,0.01,0.13,0.01,0.19,0.02
		c0.06,0,0.13,0.01,0.19,0.01c0.03,0,0.06,0,0.1,0c0.02,0,0.04,0,0.07,0c0,0,0.02,0,0.03-0.01 M795.79,310.14
		c-0.21,1.88-0.42,3.79-0.63,5.74c-0.71,6.68-1.39,13.71-2.03,20.88c-0.76,8.44-1.47,17.09-2.15,25.76 M790.23,362.46
		c0.68-8.68,1.39-17.33,2.15-25.77c0.64-7.17,1.32-14.21,2.03-20.89c0.22-2.06,0.44-4.09,0.67-6.07 M790.39,362.45
		c-0.03,0-0.05,0-0.08,0c-0.01,0-0.03,0-0.04,0c-0.01,0-0.04,0-0.04,0.01 M849.26,199.03v-1.53 M855.74,203.02v-0.24 M855.74,202.77
		v-1.53 M891.39,223.35v-1.53 M771.23,390.47c-0.69,1-1.38,2-2.07,2.99 M800,348.94c-2.99,4.31-5.97,8.62-8.96,12.93 M359.86,113.75
		L359.86,113.75 M332.44,155.41c1.46-6.64,3.8-13.38,6.75-19.5c2.84-5.88,6.83-12.37,11.65-16.95 M852.5,200.9v-1.53 M858.98,204.64
		v-1.53 M862.22,206.52v-1.53 M865.46,208.39v-1.53 M868.7,210.26v-1.53 M871.94,212.13v-1.53 M875.18,214v-1.53 M878.42,215.87
		v-1.53 M881.66,217.74v-1.53 M884.9,219.61v-1.53 M888.15,221.48v-1.53 M894.63,225.22v-1.53 M897.87,227.09v-1.53 M901.11,228.97
		v-1.53 M904.35,230.84v-1.53 M907.59,232.71v-1.53 M846.23,197.28l-9.33,5.39 M910.74,234.53V233 M811.69,368.33
		c-0.01,0.01-0.01,0.01-0.02,0.02 M790.81,363.54c2.84-4.09,5.67-8.19,8.51-12.28 M774.66,352.95c1.87-4.81,4.44-9.46,7.5-13.61
		c3.04-4.11,6.77-8,10.98-10.96 M793.96,327.83c2.72-1.8,5.82-3.32,9.04-4.02c3.23-0.7,6.66-0.58,9.68,1.05 M772.63,386.19
		c-0.84-0.56-1.59-1.2-2.29-1.93 M766.88,357.44c1.94-7.45,5.5-14.76,9.96-20.99c4.37-6.1,10.27-12.08,17.05-15.66 M794.69,320.39
		c2.67-1.32,5.62-2.31,8.63-2.59c3.02-0.28,6.05,0.19,8.74,1.74 M772.62,386.21l-2.83-1.64 M795.79,310.14l16.27,9.39
		 M620.56,208.97l0.93,0.54 M621.5,209.51l4.62,2.66 M769.95,394.98v-1.33 M769.16,398.24v-4.78 M315.15,135.29
		c0.09-0.24,0.19-0.49,0.29-0.73c1.65-4.17,3.59-8.1,5.74-11.64 M321.17,122.92c0.12-0.2,0.24-0.4,0.37-0.6 M321.54,122.33
		c0.11-0.17,0.21-0.34,0.32-0.51c2.26-3.56,4.69-6.61,7.24-9.04c1.4-1.34,2.84-2.48,4.31-3.4c1.26-0.79,2.56-1.42,3.88-1.86
		c1.28-0.42,2.6-0.66,3.92-0.67c1.25-0.01,2.48,0.19,3.66,0.6 M562.53,238.72C562.53,238.72,562.53,238.72,562.53,238.72
		 M321.17,122.92c-0.45,0.05-0.9,0.08-1.32,0.1c-1.43,0.05-2.72-0.1-3.78-0.46c-1.02-0.35-1.82-0.89-2.35-1.58
		c-0.04-0.06-0.09-0.11-0.13-0.17 M815.99,322.72c0.54-0.23,1.1-0.41,1.69-0.54c1.09-0.23,2.23-0.24,3.35,0.02 M795.08,309.73
		c0.42-3.65,0.85-7.16,1.3-10.47c0.63-4.67,1.28-8.95,1.96-12.72c0.65-3.6,1.31-6.75,2.01-9.44c0.68-2.64,1.38-4.86,2.11-6.7
		c0.73-1.83,1.49-3.3,2.29-4.5c0.79-1.18,1.64-2.09,2.54-2.81c0.59-0.47,1.2-0.85,1.84-1.18 M907.8,232.83l-0.21-0.12
		 M904.56,230.96l-0.21-0.12 M901.32,229.09l-0.21-0.12 M315.15,135.29c-3.6,3.43-7.2,6.86-10.81,10.28 M575.12,232.06
		c-4.02,2.32-8.04,4.64-12.06,6.96 M620.57,208.97c0.25-0.03,0.51-0.06,0.76-0.09c1.88-0.21,3.82-0.35,5.8-0.42
		c2.07-0.08,4.19-0.07,6.32,0c2.25,0.08,4.52,0.24,6.77,0.45c2.4,0.23,4.79,0.51,7.16,0.83c2.53,0.34,5.03,0.72,7.51,1.11
		c2.63,0.42,5.23,0.86,7.79,1.31c2.71,0.47,5.38,0.95,8.02,1.42c2.77,0.49,5.5,0.98,8.2,1.45c2.81,0.49,5.58,0.95,8.32,1.38
		c2.83,0.45,5.62,0.86,8.38,1.23c2.83,0.38,5.63,0.71,8.39,0.99c2.82,0.28,5.6,0.51,8.34,0.67c1.39,0.08,2.77,0.14,4.14,0.19
		c1.38,0.04,2.75,0.07,4.11,0.07c2.74,0.01,5.46-0.06,8.19-0.21c2.72-0.16,5.45-0.4,8.23-0.74c2.74-0.34,5.52-0.77,8.37-1.31
		c2.8-0.53,5.66-1.17,8.6-1.93c2.91-0.75,5.89-1.62,8.93-2.6c3.08-1,6.22-2.11,9.36-3.32c3.32-1.28,6.63-2.66,9.88-4.1
		c3.6-1.59,7.12-3.25,10.5-4.92c0.42-0.21,0.84-0.42,1.26-0.62 M898.08,227.22l-0.21-0.12 M894.84,225.35l-0.21-0.12 M891.6,223.47
		l-0.21-0.12 M888.36,221.6l-0.21-0.12 M885.12,219.73l-0.21-0.12 M881.88,217.86l-0.21-0.12 M878.64,215.99l-0.21-0.12
		 M875.4,214.12l-0.21-0.12 M872.15,212.25l-0.21-0.12 M868.91,210.38l-0.21-0.12 M865.68,208.51l-0.21-0.12 M862.43,206.64
		l-0.21-0.12 M859.2,204.77l-0.21-0.12"/>
	<path class="st0" d="M270.77,467.95c-0.67,0-1.35-0.06-2-0.19c-0.65-0.13-1.29-0.33-1.87-0.61c-0.15-0.07-0.29-0.15-0.43-0.23
		c-0.43-0.25-0.81-0.54-1.12-0.89c-0.41-0.47-0.67-1.01-0.67-1.6c-1.22-0.7-2.43-1.41-3.65-2.11
		c-52.43-30.27-104.86-60.54-157.3-90.81c37.99-21.93,75.97-43.86,113.96-65.79 M1019.03,567.12v30.65c0,4.83-0.78,9.99-2.29,15.24
		c-1.62,5.66-4.04,11.32-7.14,16.67c-3.09,5.35-6.78,10.28-10.87,14.52c-3.8,3.93-7.87,7.18-12.06,9.6
		c-18.26,10.54-36.52,21.08-54.77,31.62c-3.85,2.22-8.16,3.94-12.63,4.5c-4.49,0.56-9.03-0.07-13.03-2.38
		c-208.5-120.38-417-240.76-625.5-361.13c-1.92-1.11-3.61-2.54-5.06-4.27c-1.4-1.67-2.56-3.59-3.47-5.71
		c-1.66-3.89-2.47-8.41-2.47-13.3v-30.65 M334.82,238.1c-19.85,11.46-39.7,22.92-59.54,34.38
		c208.09,120.14,416.19,240.29,624.28,360.43c37.99-21.93,75.97-43.86,113.96-65.79c-61.94-35.76-123.89-71.53-185.83-107.29
		c-1.22-0.7-2.43-1.4-3.65-2.11v20.1v10.55c0,0.72-0.2,1.6-0.93,1.99 M477.49,288.3l72.69,41.97l3.65-2.11l4.34-2.51 M838.09,453.82
		c-2.25,1.3-4.5,2.6-6.75,3.9c61.94,35.76,123.89,71.53,185.83,107.29c0.2,0.12,0.41,0.23,0.61,0.35c0.43,0.25,0.85,0.6,1.09,1.06
		c0.12,0.23,0.17,0.45,0.17,0.7c0,0.8-0.65,1.4-1.26,1.76c-0.2,0.12-0.41,0.23-0.61,0.35c-37.98,21.93-75.97,43.86-113.96,65.79
		c-0.2,0.12-0.41,0.23-0.61,0.35c-1.68,0.97-4.41,0.97-6.09,0c-0.2-0.12-0.41-0.23-0.61-0.35
		C687.81,514.87,479.72,394.73,271.62,274.59c-0.2-0.12-0.41-0.23-0.61-0.35c-0.61-0.35-1.26-0.95-1.26-1.76
		c0-0.8,0.65-1.4,1.26-1.76c0.2-0.12,0.41-0.23,0.61-0.35c19.47-11.24,38.94-22.48,58.41-33.72 M832.87,452.61l-5.19,3l-3.65,2.11
		 M851.01,456.81v12.27 M331.41,304.89c9.41-5.43,18.82-10.87,28.23-16.3c8.71-5.03,16.02-13.59,20.92-22.09
		c1.86-3.22,3.56-6.75,4.94-10.43 M366.71,283.52l569,328.51 M902.6,635.37v30.65c0,4.32,0.7,8.93,2.71,12.87
		c2.34,4.6,6.21,7.73,11.43,8.5c4.95,0.73,10.03-0.8,14.29-2.97c0.6-0.31,1.19-0.63,1.77-0.96c18.26-10.54,36.52-21.08,54.77-31.62
		c8.89-5.13,16.35-13.87,21.35-22.54c5.01-8.67,8.85-19.5,8.85-29.76v-30.65 M896.51,635.37v30.65c0,4.75,0.77,9.83,2.98,14.16
		c1.54,3.03,3.76,5.63,6.76,7.36 M550.18,321.03v9.23c0,0.44,0.06,0.93,0.19,1.43c0.14,0.54,0.35,1.09,0.62,1.62
		c0.27,0.52,0.6,1,0.97,1.41c0.17,0.19,0.35,0.36,0.53,0.51c0.18,0.15,0.37,0.28,0.56,0.39c89.26,51.53,178.51,103.06,267.77,154.59
		c0.1,0.06,0.2,0.11,0.3,0.16c0.1,0.04,0.2,0.08,0.3,0.12c0.2,0.06,0.4,0.11,0.59,0.12c0.38,0.03,0.74-0.05,1.04-0.22
		 M254.61,466.04c-51.06-29.48-102.11-58.96-153.17-88.43c-0.84-0.49-1.54-1.16-2.07-1.97c-0.13-0.2-0.25-0.4-0.36-0.62
		c-0.08-0.16-0.15-0.32-0.22-0.48c-0.39-0.95-0.57-1.98-0.57-3.03 M790.65,441.85c11.13,6.42,22.25,12.85,33.38,19.27
		 M264.68,464.44c-1.22,0.7-2.43,1.4-3.65,2.11c-5.63,3.25-11.27,6.51-16.9,9.76c-0.61,0.35-1.26,0.95-1.26,1.76
		c0,0.8,0.65,1.4,1.26,1.76c89.26,51.53,178.51,103.06,267.77,154.59c1.68,0.97,4.4,0.97,6.09,0c5.63-3.25,11.27-6.51,16.9-9.76
		c1.22-0.7,2.43-1.4,3.65-2.11c1.22,0.7,2.43,1.41,3.65,2.11c61.94,35.76,123.89,71.53,185.83,107.29
		c37.99-21.93,75.97-43.86,113.96-65.79C633.88,546.01,425.79,425.87,217.69,305.72c0,1.94-1.36,4.3-3.04,5.27
		c-35.96,20.76-71.91,41.52-107.87,62.28 M538.54,626.77c-5.63,3.25-11.27,6.51-16.9,9.76c-3.7,2.13-9.69,2.13-13.39,0
		c-89.26-51.53-178.51-103.06-267.77-154.59c-1.34-0.77-2.77-2.09-2.77-3.87c0-1.77,1.43-3.09,2.77-3.87
		c4.71-2.72,9.42-5.44,14.13-8.16c0.92-0.53,1.85-1.07,2.77-1.6c-52.43-30.27-104.86-60.54-157.3-90.81
		c-0.2-0.12-0.41-0.23-0.61-0.35c-0.61-0.35-1.26-0.95-1.26-1.76c0-0.8,0.65-1.4,1.26-1.76c0.2-0.12,0.4-0.23,0.61-0.35
		c37.99-21.93,75.97-43.86,113.96-65.79c0.2-0.12,0.41-0.23,0.61-0.35c0.06-0.04,0.13-0.07,0.19-0.11c1.67-0.85,4.25-0.84,5.89,0.11
		c0.2,0.12,0.41,0.23,0.61,0.35C429.44,423.76,637.53,543.9,845.62,664.05c0.2,0.12,0.41,0.23,0.61,0.35
		c0.43,0.25,0.85,0.6,1.09,1.06c0.12,0.22,0.18,0.45,0.18,0.7c0,0.8-0.65,1.41-1.26,1.76c-0.2,0.12-0.41,0.23-0.61,0.35
		c-37.98,21.93-75.97,43.86-113.95,65.79c-0.2,0.12-0.41,0.23-0.61,0.35c-0.06,0.04-0.13,0.07-0.2,0.11 M731.06,734.41
		c-1.68,0.97-4.41,0.97-6.09,0c-0.2-0.12-0.41-0.23-0.61-0.35c-61.94-35.76-123.89-71.53-185.83-107.29v2.46v0.74
		c62.8,36.26,125.6,72.52,188.4,108.77c1.94,1.03,5.02,0.91,6.89-0.26c35.96-20.76,71.91-41.52,107.87-62.28
		c1.3-0.75,2.45-1.83,3.39-3.12c0.91-1.25,1.6-2.65,2.01-4.11c0.26-0.94,0.41-1.89,0.41-2.82 M538.54,629.97
		c-6.29,3.63-12.58,7.26-18.86,10.89c-2.62,1.51-6.85,1.51-9.47,0c-89.26-51.53-178.51-103.06-267.76-154.59
		c-1.11-0.64-2.08-1.5-2.84-2.52c-0.33-0.44-0.63-0.92-0.88-1.41c-0.67-1.32-1.02-2.79-1.02-4.27 M531.62,400.76v-1.4
		 M735.59,518.51v-1.39 M784.88,537.06l-7.38,4.26l-7.38,4.26 M925.23,618.09l-140.35-81.03 M770.12,545.58l140.35,81.03
		 M770.12,546.97l139.14,80.33 M562.86,425.91l165.35,95.46 M735.59,517.12l7.38-4.26 M728.21,521.38l7.38-4.26 M728.21,522.77
		l7.38-4.26 M728.21,522.77v-1.4"/>
</g>
</svg>
