<?xml version="1.0" encoding="utf-8"?>
<!-- Generator: Adobe Illustrator 26.3.1, SVG Export Plug-In . SVG Version: 6.00 Build 0)  -->
<svg version="1.1" xmlns="http://www.w3.org/2000/svg" xmlns:xlink="http://www.w3.org/1999/xlink" x="0px" y="0px"
	 viewBox="0 0 1200 948" style="enable-background:new 0 0 1200 948;" xml:space="preserve">
<style type="text/css">
	.st0{fill:none;stroke:#000000;stroke-width:0.75;stroke-miterlimit:10;}
	.st1{fill:none;stroke:#000000;stroke-width:0.75;stroke-linejoin:round;stroke-miterlimit:10;}
	.st2{fill:none;stroke:#000000;stroke-width:0.75;stroke-linecap:round;stroke-linejoin:round;stroke-miterlimit:10;}
	.st3{enable-background:new    ;}
	.st4{clip-path:url(#SVGID_00000161592134586842790020000015161936029427337646_);}
	.st5{fill:none;stroke:#2D0000;stroke-width:0.75;stroke-miterlimit:10;}
	.st6{fill:none;}
</style>
<g id="Livello_2">
</g>
<g id="Livello_1">
	<path class="st0" d="M539.77,523.28c0.19,0.7,0.48,1.3,0.92,1.87c0.46,0.61,0.93,0.98,1.57,1.38c-0.02-0.02,0.02,0.01,0.03,0.02
		c0.04,0.02,0.07,0.04,0.11,0.06c0.15,0.08,0.29,0.17,0.44,0.25c0.19,0.11,0.39,0.22,0.58,0.33c0.39,0.22,0.77,0.45,1.16,0.67
		c0.77,0.45,1.54,0.89,2.32,1.34l0,0c2.07,0.56,4.03,1.63,5.74,2.87c0.68,0.49,1.34,1.02,1.99,1.59v0
		c14.96,8.64,29.92,17.28,44.88,25.91c0,0,1.86-1.07,4.8-2.77l-64.25-37.1C539.55,520.83,539.45,522.09,539.77,523.28"/>
	<path class="st0" d="M697.78,246.46l-157.2,272.27l64.83,37.43c11.84-6.84,37.35-21.57,37.35-21.57l138.52-239.93l-7.66-4.42
		L697.78,246.46z"/>
	
		<rect x="742.41" y="204.9" transform="matrix(0.5 -0.866 0.866 0.5 155.6011 775.7405)" class="st0" width="14.39" height="96.43"/>
	<path class="st0" d="M703.84,236.28c0,0.07,0.01,0.14,0.02,0.21c0.03,0.13,0.09,0.24,0.13,0.37c0.04,0.13,0.07,0.26,0.09,0.39
		c0.03,0.25,0.01,0.49-0.06,0.73c-0.08,0.28-0.22,0.51-0.36,0.76c-0.53,0.91-1.05,1.82-1.58,2.74c-0.53,0.91-1.05,1.82-1.58,2.74
		c-0.1,0.18-0.19,0.35-0.32,0.52c-0.21,0.27-0.45,0.45-0.76,0.59c-0.12,0.05-0.25,0.09-0.38,0.12c-0.13,0.03-0.26,0.03-0.38,0.07
		c-0.07,0.02-0.13,0.05-0.19,0.08l83.24,48.06c0-0.07-0.01-0.14-0.02-0.2c-0.03-0.13-0.09-0.24-0.13-0.37
		c-0.04-0.13-0.07-0.26-0.09-0.39c-0.04-0.34,0-0.64,0.13-0.95c0.08-0.19,0.19-0.36,0.29-0.53c0.53-0.91,1.05-1.82,1.58-2.74
		c0.53-0.91,1.05-1.82,1.58-2.74c0.14-0.24,0.27-0.49,0.47-0.69c0.18-0.18,0.37-0.31,0.61-0.41c0.12-0.05,0.25-0.09,0.38-0.12
		c0.13-0.03,0.26-0.03,0.38-0.07c0.07-0.02,0.13-0.05,0.19-0.08l-7.53-4.35L703.84,236.28z"/>
	<path class="st0" d="M795.78,266.45c-0.19-0.7-0.48-1.3-0.92-1.87c-0.47-0.61-0.93-0.98-1.57-1.38c0.02,0.01-0.02-0.01-0.03-0.02
		c-0.03-0.02-0.06-0.04-0.1-0.06c-0.13-0.08-0.27-0.15-0.4-0.23c-0.56-0.32-1.12-0.65-1.68-0.97c-2.35-1.36-4.71-2.72-7.06-4.08
		c-3.09-1.79-6.19-3.57-9.28-5.36c-2.32-1.34-4.64-2.68-6.96-4.02l0,0l2.68-4.64l-23.2-13.39l-2.68,4.64v0
		c-2.32-1.34-4.64-2.68-6.96-4.02c-3.09-1.79-6.19-3.57-9.28-5.36c-2.35-1.36-4.71-2.72-7.06-4.08c-0.56-0.32-1.12-0.65-1.68-0.97
		c-0.13-0.08-0.27-0.15-0.4-0.23c-0.03-0.02-0.06-0.04-0.1-0.06c-0.01-0.01-0.02-0.02-0.03-0.02c-0.67-0.36-1.22-0.57-1.98-0.67
		c-0.72-0.09-1.39-0.05-2.09,0.14c-1.19,0.32-2.23,1.04-2.95,2.03l83.46,48.18C795.99,268.9,796.1,267.64,795.78,266.45"/>
	<path class="st0" d="M546.05,612.31l220.63-127.38 M527.11,601.38L747.74,474 M439.98,551.08l122.89-70.95 M352.86,500.78
		L573.48,373.4 M1001.54,379.96c2.27-1.31,4.71-3.55,4.71-6.56 M603.33,645.39c-6.47-3.73-12.93-7.47-19.4-11.2 M251.04,441.99
		l332.89,192.2 M600,638.03c74.5-43.01,149-86.02,223.5-129.04 M611.36,644.59c74.5-43.01,149-86.02,223.5-129.04 M401.5,466.8
		l4.99,3 M488.63,517.11l4.99,3 M516.66,673.02l-352.29-203.4 M516.66,673.02V778 M1035.63,373.4v104.98 M1035.63,478.37
		L562.12,751.76 M482.57,312.16c-74.5,43.01-149,86.02-223.5,129.04 M766.68,484.94c-6.31-3.65-12.63-7.29-18.94-10.94
		 M592.42,384.33c-6.31-3.65-12.63-7.29-18.94-10.94 M505.3,334.03v-29.56 M671.97,194.06c-45.46,26.24-90.91,52.49-136.37,78.73
		 M535.6,272.79c-1.72,0.99-3.44,2.45-4.25,4.37 M1001.54,371.21c-102.28-59.05-204.56-118.1-306.83-177.15 M671.97,189.68
		c-45.46,26.24-90.91,52.49-136.37,78.73 M535.6,268.42c-2.27,1.31-4.71,3.55-4.71,6.56 M842.44,458.69
		c6.28,3.62,16.45,3.62,22.73,0 M1001.54,366.83c-102.28-59.05-204.56-118.1-306.83-177.15 M490.61,303.68
		c6.47-11.2,12.93-22.4,19.4-33.6 M862.3,473.47c-6.47,11.2-12.93,22.4-19.4,33.6 M501.97,310.24c-1.88,3.26-4.69,6.55-8.04,8.48
		 M493.93,318.72c-74.5,43.01-149,86.02-223.5,129.04 M591.96,638.82c2.6,1.5,5.76,0.52,8.04-0.8 M231.64,430.79l19.4,11.2
		 M823.5,508.99c3.35-1.93,6.15-5.22,8.04-8.48 M270.44,447.76c-2.27,1.31-5.43,2.3-8.04,0.8 M834.86,494.74
		c-1.11,1.92-2.22,3.84-3.33,5.77 M501.97,310.24c1.11-1.92,2.22-3.84,3.33-5.77 M490.61,303.68c-1.88,3.26-4.69,6.55-8.04,8.48
		 M251.04,441.99c2.6,1.5,5.76,0.52,8.04-0.8 M834.86,515.55c3.35-1.93,6.15-5.22,8.04-8.48 M510.01,270.07L683.34,170
		 M583.93,634.19l-21.81,12.59 M401.5,466.8l-53.74,31.03 M403.02,459.89l-60.49,34.92 M535.6,662.09l26.52-15.31 M530.9,274.98
		c0,3.01,2.43,5.25,4.71,6.56 M342.29,544.81l35.64-20.58 M319.8,490.67l-35.64,20.58 M255.16,494.51l35.64-20.58 M232.68,440.37
		l-35.64,20.58 M403.02,467.71v-28.86 M416.88,426.82c-1.01-2.32-2.59-4.6-4.54-6.25c-0.97-0.82-2.11-1.56-3.33-1.97
		c-1.21-0.4-2.59-0.49-3.77,0.19 M415.95,437.35c1.76-1.02,2.23-3.22,2.22-4.99c-0.02-1.88-0.55-3.84-1.29-5.54 M677.33,588.26
		c1.02-0.59,1.62-1.59,1.93-2.67c0.31-1.08,0.35-2.25,0.23-3.35c-0.22-2.21-1.06-4.45-2.16-6.35c-1.1-1.9-2.62-3.75-4.42-5.05
		c-0.9-0.65-1.93-1.2-3.02-1.47c-1.09-0.27-2.26-0.25-3.28,0.33 M490.15,518.01v-28.86 M504.01,477.12
		c-1.01-2.32-2.59-4.6-4.54-6.25c-0.97-0.82-2.11-1.56-3.33-1.97c-1.21-0.4-2.59-0.49-3.77,0.19 M503.08,487.65
		c1.76-1.02,2.23-3.22,2.22-4.99c-0.02-1.88-0.55-3.84-1.29-5.54 M554.54,570.07v15.47 M558.33,568.73v14.62 M539.39,588.4v-27.08
		 M553.25,549.3c-1.01-2.32-2.59-4.6-4.54-6.25c-0.97-0.82-2.11-1.56-3.33-1.97c-1.21-0.4-2.59-0.49-3.77,0.19 M558.33,568.73
		l-0.65,0.38 M540.04,529.8c2.04-1.18,4.38-1.21,6.56-0.67s4.24,1.65,6.03,2.95c3.6,2.6,6.64,6.29,8.84,10.09
		c2.19,3.8,3.87,8.28,4.32,12.7c0.22,2.2,0.16,4.54-0.47,6.7c-0.62,2.16-1.82,4.16-3.86,5.34 M552.32,559.83
		c1.76-1.02,2.23-3.22,2.22-4.99c-0.02-1.88-0.55-3.84-1.29-5.54 M516.54,645.41l35.64-20.58 M494.06,591.28l-35.64,20.58
		 M791.62,497.53c1.64-0.95,3.63-0.41,5.1,0.39c1.55,0.84,2.93,2.12,4.02,3.47c2.1,2.6,3.81,6.33,3.81,9.79 M429.41,595.11
		l35.64-20.58 M406.93,540.97l-35.64,20.58 M683.34,170l352.29,203.4"/>
	<path class="st0" d="M290.81,479.6v-5.67 M465.06,580.2v-5.67"/>
	<line class="st0" x1="371.29" y1="567.22" x2="371.29" y2="561.55"/>
	<line class="st0" x1="377.93" y1="529.9" x2="377.93" y2="524.23"/>
	<g>
		<path class="st0" d="M458.41,617.52l58.13,33.56l35.64-20.58 M371.29,567.22l58.13,33.56l35.64-20.58 M284.16,516.92l58.13,33.56
			l35.64-20.58 M197.03,466.61l58.13,33.56l35.64-20.58 M255.16,500.17v-5.67 M702.28,484.94l13.32,7.69 M528.03,384.33l13.32,7.69
			 M717.43,460.88l7.58-4.37 M284.67,461.41L505.3,334.03 M804.56,511.18l7.58-4.37 M543.18,360.27l7.58-4.37 M488.63,517.11
			l-53.74,31.03 M490.15,510.19l-60.49,34.92 M584.85,562.16l4.99,3 M584.85,562.16l-26.51,15.31 M584.85,556.12
			c2.83,2.53,5.8,4.77,9.09,6.67 M584.85,556.12l-26.51,15.31 M584.85,556.12v6.04 M209.83,443.38l21.81-12.59 M164.37,469.63V574.6
			 M516.66,778L164.37,574.6 M164.37,469.63l18.94-10.94 M535.6,767.06L516.66,778 M183.31,458.69l26.52-15.31 M535.6,767.06
			l26.52-15.31 M1006.24,373.4c0-3.01-2.43-5.25-4.71-6.56 M458.92,562.01l85.01-49.08 M371.8,511.71l220.63-127.38 M785.46,530.95
			c-5.47-6.33-10.04-13.75-13.3-21.45c-3.21-7.57-5.48-16.23-5.48-24.57 M1005.79,375.58c-0.81-1.93-2.54-3.38-4.25-4.37
			 M1035.63,373.4L862.3,473.47 M611.36,644.59c-2.27,1.31-5.43,2.3-8.04,0.8 M694.7,194.06c-6.28-3.62-16.45-3.62-22.73,0
			 M694.7,189.68c-6.28-3.62-16.45-3.62-22.73,0 M535.6,281.54c35.48,20.48,70.96,40.97,106.44,61.45 M865.17,458.69
			c45.46-26.24,90.91-52.49,136.37-78.73 M862.3,473.47l-138.18-79.78 M505.3,304.47l119.24,68.84 M535.6,662.09l-18.94,10.94
			 M377.93,524.23l-58.13-33.56 M197.03,460.95l58.13,33.56 M290.81,473.93l-58.13-33.56 M284.16,511.25l58.13,33.56 M717.43,460.88
			v30.62 M702.28,452.13c0-1.75,0.48-3.9,2.22-4.9 M704.66,447.13l7.41-4.28 M403.02,438.85c-3.32-4.13-5.93-9.33-7.03-14.55
			c-0.55-2.59-0.76-5.44-0.28-8.09c0.48-2.61,1.7-5.27,4.17-6.7 M418.17,447.6v15.47 M399.88,409.51l3.79-2.19 M403.67,407.33
			c2.04-1.18,4.38-1.21,6.55-0.67c2.18,0.54,4.24,1.65,6.03,2.95c3.6,2.6,6.65,6.29,8.84,10.09c2.19,3.8,3.87,8.28,4.32,12.7
			c0.22,2.2,0.16,4.54-0.47,6.7c-0.62,2.16-1.82,4.16-3.86,5.34 M421.31,446.63c-0.99,0.57-2,0.87-3.14,0.97 M405.24,418.79
			c-1.02,0.59-1.62,1.59-1.93,2.67c-0.31,1.08-0.35,2.25-0.23,3.35c0.22,2.21,1.06,4.45,2.16,6.35c1.1,1.9,2.62,3.75,4.42,5.05
			c0.9,0.65,1.92,1.2,3.02,1.47c1.09,0.27,2.26,0.26,3.28-0.33 M399.88,409.51c2.04-1.18,4.38-1.21,6.55-0.67
			c2.18,0.54,4.24,1.65,6.04,2.95c3.6,2.6,6.65,6.29,8.84,10.09c2.19,3.8,3.87,8.28,4.32,12.7c0.22,2.2,0.16,4.54-0.47,6.7
			c-0.62,2.16-1.82,4.17-3.86,5.34 M664.4,589.76c-3.32-4.13-5.93-9.33-7.03-14.55c-0.55-2.59-0.76-5.44-0.28-8.09
			c0.48-2.61,1.7-5.27,4.17-6.7 M665.69,570.47c-1.44,1.64-1.44,4.25-1.11,6.15c0.37,2.09,1.23,4.18,2.35,5.97
			c1.11,1.78,2.6,3.5,4.36,4.7c1.61,1.1,4.05,2.11,6.05,0.96 M661.26,560.42l3.79-2.19 M665.05,558.23c3.29-1.9,7.25-0.81,10.2,0.78
			c3.1,1.67,5.86,4.25,8.04,6.95c2.22,2.75,4.08,5.91,5.4,9.18c1.31,3.22,2.22,6.87,2.22,10.4 M666.62,569.7
			c-0.36,0.21-0.66,0.46-0.93,0.77 M661.26,560.42c3.29-1.9,7.25-0.81,10.2,0.78c3.1,1.67,5.86,4.25,8.04,6.95
			c2.22,2.75,4.08,5.91,5.4,9.19c1.31,3.22,2.22,6.87,2.22,10.4 M490.15,489.15c-3.32-4.13-5.93-9.33-7.03-14.55
			c-0.55-2.59-0.76-5.44-0.28-8.09c0.48-2.61,1.7-5.27,4.17-6.7 M505.3,497.9v15.47 M487.01,459.82l3.79-2.19 M490.8,457.63
			c2.04-1.18,4.38-1.21,6.56-0.67c2.18,0.54,4.24,1.65,6.04,2.95c3.6,2.6,6.64,6.29,8.84,10.09c2.19,3.8,3.87,8.28,4.32,12.7
			c0.22,2.2,0.16,4.54-0.47,6.7c-0.62,2.16-1.82,4.16-3.86,5.34 M508.44,496.93c-1,0.57-2,0.87-3.14,0.97 M492.36,469.1
			c-1.02,0.59-1.62,1.59-1.93,2.67c-0.31,1.08-0.35,2.25-0.23,3.35c0.22,2.21,1.06,4.45,2.16,6.35c1.1,1.9,2.62,3.75,4.42,5.05
			c0.9,0.65,1.92,1.2,3.02,1.47c1.09,0.27,2.26,0.26,3.28-0.33 M509.09,496.56v14.62 M487.01,459.82c2.04-1.18,4.38-1.21,6.56-0.67
			c2.18,0.54,4.24,1.65,6.04,2.95c3.6,2.6,6.64,6.29,8.84,10.09c2.19,3.8,3.87,8.28,4.32,12.7c0.22,2.2,0.16,4.54-0.47,6.7
			c-0.62,2.16-1.82,4.16-3.86,5.34 M668.86,569.2c-0.84,1.66-0.77,3.77-0.44,5.48c0.35,1.81,1.07,3.61,1.99,5.2
			c0.92,1.59,2.11,3.11,3.51,4.32c1.31,1.14,3.11,2.25,4.97,2.36 M421.96,446.26l-0.65,0.37 M509.08,496.56l-0.65,0.37 M494.6,468.6
			c-0.84,1.66-0.77,3.77-0.44,5.48c0.35,1.81,1.07,3.61,1.99,5.2c0.92,1.59,2.11,3.11,3.51,4.32c1.31,1.14,3.11,2.25,4.97,2.36
			 M539.39,561.32c-3.32-4.13-5.93-9.33-7.03-14.55c-0.55-2.59-0.76-5.44-0.28-8.09c0.48-2.61,1.7-5.27,4.17-6.7 M536.25,531.99
			l3.79-2.19 M561.47,566.92l-3.14,1.81 M557.68,569.1c-0.99,0.57-2,0.87-3.14,0.97 M541.61,541.27c-1.02,0.59-1.62,1.59-1.93,2.67
			c-0.31,1.08-0.34,2.25-0.23,3.35c0.22,2.21,1.06,4.45,2.16,6.35c1.1,1.9,2.62,3.75,4.42,5.05c0.9,0.65,1.92,1.2,3.02,1.47
			c1.09,0.27,2.26,0.25,3.28-0.33 M536.25,531.99c2.04-1.18,4.38-1.21,6.55-0.67c2.18,0.54,4.24,1.65,6.04,2.95
			c3.6,2.6,6.65,6.29,8.84,10.09c2.19,3.8,3.87,8.28,4.32,12.7c0.22,2.2,0.16,4.54-0.47,6.7c-0.62,2.16-1.82,4.16-3.86,5.34
			 M552.18,624.84l-58.13-33.56 M804.56,511.18v8.75 M789.4,502.43c0-1.75,0.48-3.9,2.22-4.9 M791.79,497.43l7.41-4.28
			 M543.18,360.27v30.62 M528.03,351.53c0-1.75,0.48-3.9,2.22-4.9 M530.41,346.53l7.41-4.28 M530.25,346.62
			c1.64-0.95,3.63-0.41,5.1,0.39c1.55,0.84,2.93,2.12,4.02,3.47c2.1,2.6,3.81,6.33,3.81,9.79 M465.06,574.53l-58.13-33.56
			 M458.41,611.85l58.13,33.56 M543.85,540.78c-0.84,1.66-0.77,3.77-0.44,5.48c0.35,1.81,1.07,3.61,1.99,5.2
			c0.92,1.59,2.11,3.11,3.51,4.32c1.31,1.14,3.11,2.25,4.97,2.36 M377.93,557.72L377.93,557.72 M371.29,561.55l58.13,33.56
			 M290.81,507.41L290.81,507.41 M704.5,447.22c1.64-0.95,3.63-0.41,5.1,0.39c1.55,0.84,2.93,2.12,4.02,3.47
			c2.1,2.6,3.81,6.33,3.81,9.79 M421.96,446.25v14.62 M425.1,444.44l-3.14,1.81 M407.48,418.3c-0.84,1.66-0.77,3.77-0.44,5.48
			c0.35,1.81,1.07,3.61,1.99,5.2c0.92,1.59,2.11,3.11,3.51,4.33c1.31,1.14,3.11,2.25,4.97,2.36 M512.22,494.74l-3.14,1.81
			 M465.06,608.02L465.06,608.02 M539.39,588.4l-17.38,10.03 M539.39,582.36l-22.61,13.05 M702.28,484.87
			c-6.97-6.87-12.74-15.5-16.7-24.41 M600.64,414.71c-4.7-9.05-8.22-19.96-8.22-30.38 M725.56,391.21
			c38.96,22.49,77.92,44.99,116.88,67.48 M640.61,345.48l-130.61-75.41 M708.05,421.53l126.81,73.21 M528.03,384.27
			c-6.63-6.53-12.15-14.63-16.07-23.03c-3.85-8.26-6.65-17.93-6.65-27.21 M342.29,550.48v-5.67 M197.03,466.61v-5.67 M284.16,516.92
			v-5.67 M702.28,484.87v-32.74 M664.4,600.85v-11.09 M516.54,651.08v-5.67 M552.18,630.5v-5.67 M789.4,528.68v-26.24
			 M528.03,384.27v-32.74 M429.41,600.78v-5.67 M458.41,617.52v-5.67"/>
	</g>
	<g>
		<g class="st3">
			<defs>
				<polygon id="SVGID_00000135684898289307038130000008456221286917248445_" class="st3" points="767.26,434.99 776.96,393.58 
					865.33,408.06 855.63,449.48 				"/>
			</defs>
			<clipPath id="SVGID_00000149364710154485451880000002947695018545985448_">
				<use xlink:href="#SVGID_00000135684898289307038130000008456221286917248445_"  style="overflow:visible;"/>
			</clipPath>
			<g style="clip-path:url(#SVGID_00000149364710154485451880000002947695018545985448_);">
				<polyline points="790.53,395.8 781.9,401.99 787.42,405.09 786.37,405.84 787.75,406.62 783.43,409.72 782.05,408.94 
					780.96,409.72 778.21,408.19 779.29,407.4 777.91,406.63 779,405.85 776.25,404.31 774.08,405.87 775.43,406.63 774.37,407.39 
					775.76,408.17 774.68,408.95 780.2,412.04 781.28,411.26 782.64,412.02 783.71,411.26 785.09,412.03 791.55,407.4 
					790.16,406.62 791.26,405.84 789.9,405.08 790.98,404.31 786.84,401.99 791.14,398.91 796.63,401.99 798.8,400.43 790.53,395.8 
									"/>
				<path d="M803.37,408.51l1.08-0.78l2.74,1.53l-1.09,0.78l1.39,0.78l-8.61,6.18l-1.38-0.78l-1.08,0.78l-2.74-1.53l1.09-0.78
					l-1.39-0.78l8.61-6.17L803.37,408.51 M807.68,405.42l-1.09,0.78l-1.39-0.78l-1.09,0.78l-1.38-0.78l-1.06,0.76l-1.36-0.76
					l-10.77,7.73l1.35,0.75l-1.09,0.78l1.39,0.78l-1.06,0.76l1.39,0.78l-1.08,0.78l2.74,1.54l1.08-0.78l1.39,0.78l1.05-0.76
					l1.36,0.76l1.09-0.78l1.38,0.78l10.78-7.73l-1.39-0.78l1.06-0.76l-1.35-0.76l1.09-0.78l-1.39-0.78l1.08-0.78L807.68,405.42"/>
				<path d="M817.48,416.16l1.08-0.78l2.74,1.53l-1.09,0.78l1.39,0.78l-8.61,6.18l-1.38-0.78l-1.08,0.78l-2.74-1.53l1.09-0.78
					l-1.39-0.78l8.61-6.17L817.48,416.16 M821.79,413.06l-1.09,0.78l-1.39-0.78l-1.09,0.78l-1.38-0.78l-1.06,0.76l-1.36-0.76
					l-10.77,7.73l1.35,0.75l-1.09,0.78l1.39,0.78l-1.06,0.76l1.39,0.78l-1.08,0.78l2.74,1.54l1.08-0.78l1.39,0.78l1.05-0.76
					l1.36,0.76l1.09-0.78l1.38,0.78l10.78-7.73l-1.39-0.78l1.06-0.76l-1.35-0.76l1.09-0.78l-1.39-0.78l1.08-0.78L821.79,413.06"/>
				<polyline points="830.31,423.58 817.39,432.86 820.13,434.39 830.92,426.66 832.3,427.44 826.9,431.31 829.65,432.85 
					835.05,428.98 836.44,429.75 825.65,437.48 828.41,439.02 840.24,430.53 838.85,429.75 839.93,428.97 837.19,427.44 
					836.11,428.21 834.72,427.44 835.81,426.66 833.06,425.12 831.97,425.9 830.59,425.12 831.67,424.35 830.31,423.58 				"/>
				<path d="M850.68,433.6l1.06-0.76l2.74,1.54l-1.06,0.76l1.39,0.78l-5.4,3.88l-5.52-3.09l5.4-3.87L850.68,433.6 M852.53,430.51
					l-1.09,0.78l-1.38-0.78l-1.08,0.78l-1.36-0.76l-15.07,10.81l2.74,1.54l6.47-4.64l5.52,3.09l-6.46,4.63l2.74,1.54l15.07-10.81
					l-1.39-0.78l1.09-0.78l-1.35-0.75l1.09-0.78L852.53,430.51"/>
			</g>
		</g>
	</g>
</g>
</svg>
